<?xml version="1.0" encoding="UTF-8"?>
<svg xmlns="http://www.w3.org/2000/svg" xmlns:xlink="http://www.w3.org/1999/xlink" version="1.1" viewBox="0 0 576 576">
  <!-- Generator: Adobe Illustrator 29.5.1, SVG Export Plug-In . SVG Version: 2.1.0 Build 141)  -->
  <defs>
    <style>
      .st0, .st1, .st2, .st3, .st4, .st5, .st6, .st7 {
        fill: none;
      }

      .st8 {
        opacity: .8;
        stroke: #ccc;
      }

      .st8, .st9, .st10, .st11, .st12 {
        isolation: isolate;
      }

      .st8, .st13 {
        fill: #fff;
      }

      .st1 {
        stroke: #b0b0b0;
      }

      .st1, .st2, .st3, .st4, .st5, .st6 {
        stroke-linejoin: round;
      }

      .st1, .st2, .st3, .st4, .st6, .st7 {
        stroke-linecap: square;
      }

      .st1, .st5, .st7 {
        stroke-width: .8px;
      }

      .st9 {
        fill: blue;
      }

      .st9, .st10, .st11, .st12 {
        opacity: .1;
      }

      .st9, .st6 {
        stroke: blue;
      }

      .st14 {
        font-size: 11px;
      }

      .st14, .st15 {
        font-family: MyriadPro-Regular, 'Myriad Pro';
      }

      .st15 {
        font-size: 21px;
      }

      .st2, .st3, .st4, .st6 {
        stroke-width: 2px;
      }

      .st2, .st12 {
        stroke: red;
      }

      .st3, .st11 {
        stroke: green;
      }

      .st16 {
        clip-path: url(#clippath-11);
      }

      .st17 {
        clip-path: url(#clippath-10);
      }

      .st18 {
        clip-path: url(#clippath-13);
      }

      .st19 {
        clip-path: url(#clippath-14);
      }

      .st20 {
        clip-path: url(#clippath-12);
      }

      .st4, .st10 {
        stroke: #ff0;
      }

      .st21 {
        clip-path: url(#clippath-4);
      }

      .st22 {
        clip-path: url(#clippath-7);
      }

      .st23 {
        clip-path: url(#clippath-6);
      }

      .st24 {
        clip-path: url(#clippath-9);
      }

      .st25 {
        clip-path: url(#clippath-8);
      }

      .st26 {
        clip-path: url(#clippath-5);
      }

      .st5 {
        stroke: gray;
        stroke-dasharray: 3 1.3;
        stroke-opacity: .5;
      }

      .st10 {
        fill: #ff0;
      }

      .st11 {
        fill: green;
      }

      .st7 {
        stroke: #000;
      }

      .st12 {
        fill: red;
      }
    </style>
    <clipPath id="clippath-4">
      <path class="st0" d="M455.4,298.2c0-22.3-4.4-44.3-12.9-64.9s-21-39.2-36.7-55-34.4-28.2-55-36.7c-20.6-8.5-42.6-12.9-64.9-12.9s-44.3,4.4-64.9,12.9c-20.6,8.5-39.2,21-55,36.7s-28.2,34.4-36.7,55c-8.5,20.6-12.9,42.6-12.9,64.9s4.4,44.3,12.9,64.9c8.5,20.6,21,39.2,36.7,55s34.4,28.2,55,36.7c20.6,8.5,42.6,12.9,64.9,12.9s44.3-4.4,64.9-12.9c20.6-8.5,39.2-21,55-36.7s28.2-34.4,36.7-55c8.5-20.6,12.9-42.6,12.9-64.9M286,298.2h0Z"/>
    </clipPath>
    <clipPath id="clippath-5">
      <path class="st0" d="M455.4,298.2c0-22.3-4.4-44.3-12.9-64.9s-21-39.2-36.7-55-34.4-28.2-55-36.7c-20.6-8.5-42.6-12.9-64.9-12.9s-44.3,4.4-64.9,12.9c-20.6,8.5-39.2,21-55,36.7s-28.2,34.4-36.7,55c-8.5,20.6-12.9,42.6-12.9,64.9s4.4,44.3,12.9,64.9c8.5,20.6,21,39.2,36.7,55s34.4,28.2,55,36.7c20.6,8.5,42.6,12.9,64.9,12.9s44.3-4.4,64.9-12.9c20.6-8.5,39.2-21,55-36.7s28.2-34.4,36.7-55c8.5-20.6,12.9-42.6,12.9-64.9M286,298.2h0Z"/>
    </clipPath>
    <clipPath id="clippath-6">
      <path class="st0" d="M455.4,298.2c0-22.3-4.4-44.3-12.9-64.9s-21-39.2-36.7-55-34.4-28.2-55-36.7c-20.6-8.5-42.6-12.9-64.9-12.9s-44.3,4.4-64.9,12.9c-20.6,8.5-39.2,21-55,36.7s-28.2,34.4-36.7,55c-8.5,20.6-12.9,42.6-12.9,64.9s4.4,44.3,12.9,64.9c8.5,20.6,21,39.2,36.7,55s34.4,28.2,55,36.7c20.6,8.5,42.6,12.9,64.9,12.9s44.3-4.4,64.9-12.9c20.6-8.5,39.2-21,55-36.7s28.2-34.4,36.7-55c8.5-20.6,12.9-42.6,12.9-64.9M286,298.2h0Z"/>
    </clipPath>
    <clipPath id="clippath-7">
      <path class="st0" d="M455.4,298.2c0-22.3-4.4-44.3-12.9-64.9s-21-39.2-36.7-55-34.4-28.2-55-36.7c-20.6-8.5-42.6-12.9-64.9-12.9s-44.3,4.4-64.9,12.9c-20.6,8.5-39.2,21-55,36.7s-28.2,34.4-36.7,55c-8.5,20.6-12.9,42.6-12.9,64.9s4.4,44.3,12.9,64.9c8.5,20.6,21,39.2,36.7,55s34.4,28.2,55,36.7c20.6,8.5,42.6,12.9,64.9,12.9s44.3-4.4,64.9-12.9c20.6-8.5,39.2-21,55-36.7s28.2-34.4,36.7-55c8.5-20.6,12.9-42.6,12.9-64.9M286,298.2h0Z"/>
    </clipPath>
    <clipPath id="clippath-8">
      <path class="st0" d="M455.4,298.2c0-22.3-4.4-44.3-12.9-64.9s-21-39.2-36.7-55-34.4-28.2-55-36.7c-20.6-8.5-42.6-12.9-64.9-12.9s-44.3,4.4-64.9,12.9c-20.6,8.5-39.2,21-55,36.7s-28.2,34.4-36.7,55c-8.5,20.6-12.9,42.6-12.9,64.9s4.4,44.3,12.9,64.9c8.5,20.6,21,39.2,36.7,55s34.4,28.2,55,36.7c20.6,8.5,42.6,12.9,64.9,12.9s44.3-4.4,64.9-12.9c20.6-8.5,39.2-21,55-36.7s28.2-34.4,36.7-55c8.5-20.6,12.9-42.6,12.9-64.9M286,298.2h0Z"/>
    </clipPath>
    <clipPath id="clippath-9">
      <path class="st0" d="M455.4,298.2c0-22.3-4.4-44.3-12.9-64.9s-21-39.2-36.7-55-34.4-28.2-55-36.7c-20.6-8.5-42.6-12.9-64.9-12.9s-44.3,4.4-64.9,12.9c-20.6,8.5-39.2,21-55,36.7s-28.2,34.4-36.7,55c-8.5,20.6-12.9,42.6-12.9,64.9s4.4,44.3,12.9,64.9c8.5,20.6,21,39.2,36.7,55s34.4,28.2,55,36.7c20.6,8.5,42.6,12.9,64.9,12.9s44.3-4.4,64.9-12.9c20.6-8.5,39.2-21,55-36.7s28.2-34.4,36.7-55c8.5-20.6,12.9-42.6,12.9-64.9M286,298.2h0Z"/>
    </clipPath>
    <clipPath id="clippath-10">
      <path class="st0" d="M455.4,298.2c0-22.3-4.4-44.3-12.9-64.9s-21-39.2-36.7-55-34.4-28.2-55-36.7c-20.6-8.5-42.6-12.9-64.9-12.9s-44.3,4.4-64.9,12.9c-20.6,8.5-39.2,21-55,36.7s-28.2,34.4-36.7,55c-8.5,20.6-12.9,42.6-12.9,64.9s4.4,44.3,12.9,64.9c8.5,20.6,21,39.2,36.7,55s34.4,28.2,55,36.7c20.6,8.5,42.6,12.9,64.9,12.9s44.3-4.4,64.9-12.9c20.6-8.5,39.2-21,55-36.7s28.2-34.4,36.7-55c8.5-20.6,12.9-42.6,12.9-64.9M286,298.2h0Z"/>
    </clipPath>
    <clipPath id="clippath-11">
      <path class="st0" d="M455.4,298.2c0-22.3-4.4-44.3-12.9-64.9s-21-39.2-36.7-55-34.4-28.2-55-36.7c-20.6-8.5-42.6-12.9-64.9-12.9s-44.3,4.4-64.9,12.9c-20.6,8.5-39.2,21-55,36.7s-28.2,34.4-36.7,55c-8.5,20.6-12.9,42.6-12.9,64.9s4.4,44.3,12.9,64.9c8.5,20.6,21,39.2,36.7,55s34.4,28.2,55,36.7c20.6,8.5,42.6,12.9,64.9,12.9s44.3-4.4,64.9-12.9c20.6-8.5,39.2-21,55-36.7s28.2-34.4,36.7-55c8.5-20.6,12.9-42.6,12.9-64.9M286,298.2h0Z"/>
    </clipPath>
    <clipPath id="clippath-12">
      <path class="st0" d="M455.4,298.2c0-22.3-4.4-44.3-12.9-64.9s-21-39.2-36.7-55-34.4-28.2-55-36.7c-20.6-8.5-42.6-12.9-64.9-12.9s-44.3,4.4-64.9,12.9c-20.6,8.5-39.2,21-55,36.7s-28.2,34.4-36.7,55c-8.5,20.6-12.9,42.6-12.9,64.9s4.4,44.3,12.9,64.9c8.5,20.6,21,39.2,36.7,55s34.4,28.2,55,36.7c20.6,8.5,42.6,12.9,64.9,12.9s44.3-4.4,64.9-12.9c20.6-8.5,39.2-21,55-36.7s28.2-34.4,36.7-55c8.5-20.6,12.9-42.6,12.9-64.9M286,298.2h0Z"/>
    </clipPath>
    <clipPath id="clippath-13">
      <path class="st0" d="M455.4,298.2c0-22.3-4.4-44.3-12.9-64.9s-21-39.2-36.7-55-34.4-28.2-55-36.7c-20.6-8.5-42.6-12.9-64.9-12.9s-44.3,4.4-64.9,12.9c-20.6,8.5-39.2,21-55,36.7s-28.2,34.4-36.7,55c-8.5,20.6-12.9,42.6-12.9,64.9s4.4,44.3,12.9,64.9c8.5,20.6,21,39.2,36.7,55s34.4,28.2,55,36.7c20.6,8.5,42.6,12.9,64.9,12.9s44.3-4.4,64.9-12.9c20.6-8.5,39.2-21,55-36.7s28.2-34.4,36.7-55c8.5-20.6,12.9-42.6,12.9-64.9M286,298.2h0Z"/>
    </clipPath>
    <clipPath id="clippath-14">
      <path class="st0" d="M455.4,298.2c0-22.3-4.4-44.3-12.9-64.9s-21-39.2-36.7-55-34.4-28.2-55-36.7c-20.6-8.5-42.6-12.9-64.9-12.9s-44.3,4.4-64.9,12.9c-20.6,8.5-39.2,21-55,36.7s-28.2,34.4-36.7,55c-8.5,20.6-12.9,42.6-12.9,64.9s4.4,44.3,12.9,64.9c8.5,20.6,21,39.2,36.7,55s34.4,28.2,55,36.7c20.6,8.5,42.6,12.9,64.9,12.9s44.3-4.4,64.9-12.9c20.6-8.5,39.2-21,55-36.7s28.2-34.4,36.7-55c8.5-20.6,12.9-42.6,12.9-64.9M286,298.2h0Z"/>
    </clipPath>
  </defs>
  <g id="Layer_1">
    <g id="figure_1">
      <g id="patch_1">
        <path class="st13" d="M0,576h576V0H0v576Z"/>
      </g>
      <g id="axes_1">
        <g id="patch_2">
          <path class="st13" d="M455.4,298.2c0-22.3-4.4-44.3-12.9-64.9s-21-39.2-36.7-55-34.4-28.2-55-36.7c-20.6-8.5-42.6-12.9-64.9-12.9s-44.3,4.4-64.9,12.9c-20.6,8.5-39.2,21-55,36.7s-28.2,34.4-36.7,55c-8.5,20.6-12.9,42.6-12.9,64.9s4.4,44.3,12.9,64.9c8.5,20.6,21,39.2,36.7,55s34.4,28.2,55,36.7c20.6,8.5,42.6,12.9,64.9,12.9s44.3-4.4,64.9-12.9c20.6-8.5,39.2-21,55-36.7s28.2-34.4,36.7-55c8.5-20.6,12.9-42.6,12.9-64.9M286,298.2h0Z"/>
        </g>
        <g id="matplotlib.axis_1">
          <g id="xtick_1">
            <g id="line2d_1">
              <g class="st21">
                <path class="st1" d="M286,298.2h169.5"/>
              </g>
            </g>
            <g id="text_1">
              <g>
                <path id="DejaVuSans-41" d="M472.9,283.4l-1.3,3.6h2.7l-1.3-3.6ZM472.3,282.5h1.1l2.8,7.3h-1l-.7-1.9h-3.3l-.7,1.9h-1l2.8-7.3Z"/>
                <path id="DejaVuSans-75" d="M477.1,287.6v-3.3h.9v3.3c0,.5.1.9.3,1.2.2.3.5.4.9.4s.9-.2,1.1-.5c.3-.3.4-.7.4-1.3v-3.1h.9v5.5h-.9v-.8c-.2.3-.5.6-.8.7-.3.2-.6.2-1,.2-.6,0-1.1-.2-1.4-.6-.3-.4-.5-1-.5-1.7ZM479.4,284.2h0Z"/>
                <path id="DejaVuSans-64" d="M487.2,285.1v-3h.9v7.6h-.9v-.8c-.2.3-.4.6-.7.7-.3.2-.6.2-1,.2-.7,0-1.2-.3-1.6-.8-.4-.5-.6-1.2-.6-2.1s.2-1.6.6-2.1c.4-.5,1-.8,1.6-.8s.8,0,1,.2c.3.2.5.4.7.7ZM484.1,287c0,.7.1,1.2.4,1.6.3.4.6.6,1.1.6s.8-.2,1.1-.6c.3-.4.4-.9.4-1.6s-.1-1.2-.4-1.6c-.3-.4-.6-.6-1.1-.6s-.8.2-1.1.6-.4.9-.4,1.6Z"/>
                <path id="DejaVuSans-69" d="M489.9,284.3h.9v5.5h-.9v-5.5ZM489.9,282.2h.9v1.1h-.9v-1.1Z"/>
                <path id="DejaVuSans-6f" d="M494.8,284.9c-.5,0-.9.2-1.1.6s-.4.9-.4,1.5.1,1.2.4,1.5c.3.4.7.6,1.1.6s.9-.2,1.1-.6c.3-.4.4-.9.4-1.5s-.1-1.2-.4-1.5c-.3-.4-.7-.6-1.1-.6ZM494.8,284.2c.8,0,1.4.3,1.8.8.4.5.7,1.2.7,2.1s-.2,1.6-.7,2.1c-.4.5-1.1.8-1.8.8s-1.4-.3-1.8-.8c-.4-.5-.7-1.2-.7-2.1s.2-1.6.7-2.1c.4-.5,1.1-.8,1.8-.8Z"/>
                <path id="DejaVuSans-20" d="M497.9,289.8"/>
                <path id="DejaVuSans-51" d="M505,283.1c-.7,0-1.3.3-1.7.8-.4.5-.6,1.3-.6,2.2s.2,1.6.6,2.2c.4.5,1,.8,1.7.8s1.3-.3,1.7-.8c.4-.5.6-1.3.6-2.2s-.2-1.6-.6-2.2c-.4-.5-1-.8-1.7-.8ZM506.4,289.6l1.3,1.4h-1.2l-1.1-1.2c-.1,0-.2,0-.2,0,0,0-.1,0-.2,0-1,0-1.8-.3-2.5-1-.6-.7-.9-1.6-.9-2.8s.3-2.1.9-2.8c.6-.7,1.4-1,2.5-1s1.8.3,2.5,1c.6.7.9,1.6.9,2.8s-.2,1.6-.5,2.2c-.3.6-.8,1-1.5,1.3Z"/>
                <path id="DejaVuSans-751" data-name="DejaVuSans-75" d="M509.8,287.6v-3.3h.9v3.3c0,.5.1.9.3,1.2.2.3.5.4.9.4s.9-.2,1.1-.5c.3-.3.4-.7.4-1.3v-3.1h.9v5.5h-.9v-.8c-.2.3-.5.6-.8.7-.3.2-.6.2-1,.2-.6,0-1.1-.2-1.4-.6-.3-.4-.5-1-.5-1.7ZM512,284.2h0Z"/>
                <path id="DejaVuSans-61" d="M518.7,287c-.7,0-1.2,0-1.5.2s-.4.4-.4.9.1.6.3.8c.2.2.5.3.9.3s.9-.2,1.2-.5.5-.8.5-1.4v-.2h-.9ZM520.5,286.6v3.1h-.9v-.8c-.2.3-.5.6-.8.7-.3.2-.7.2-1.1.2s-1-.2-1.3-.5c-.3-.3-.5-.7-.5-1.3s.2-1.1.6-1.4c.4-.3,1-.5,1.8-.5h1.3c0-.5-.1-.8-.4-1s-.7-.3-1.1-.3-.6,0-.9.1c-.3,0-.6.2-.9.3v-.8c.3-.1.6-.2,1-.3.3,0,.6,0,.9,0,.8,0,1.4.2,1.8.6.4.4.6,1,.6,1.9Z"/>
                <path id="DejaVuSans-6c" d="M522.3,282.2h.9v7.6h-.9v-7.6Z"/>
                <path id="DejaVuSans-691" data-name="DejaVuSans-69" d="M525.1,284.3h.9v5.5h-.9v-5.5ZM525.1,282.2h.9v1.1h-.9v-1.1Z"/>
                <path id="DejaVuSans-74" d="M528.8,282.7v1.6h1.9v.7h-1.9v3c0,.4,0,.7.2.9s.4.2.7.2h.9v.8h-.9c-.7,0-1.2-.1-1.4-.4-.3-.3-.4-.7-.4-1.4v-3h-.7v-.7h.7v-1.6h.9Z"/>
                <path id="DejaVuSans-79" d="M534.1,290.3c-.3.7-.5,1.1-.7,1.3-.2.2-.6.3-1,.3h-.7v-.8h.5c.2,0,.4,0,.6-.2.1-.1.3-.4.5-.8l.2-.4-2.2-5.4h1l1.7,4.3,1.7-4.3h1l-2.4,6Z"/>
                <path id="DejaVuSans-2c" d="M537.9,288.5h1v.8l-.8,1.6h-.6l.4-1.6v-.8Z"/>
              </g>
              <g>
                <path id="DejaVuSans-411" data-name="DejaVuSans-41" d="M472.9,294.6l-1.3,3.6h2.7l-1.3-3.6ZM472.3,293.7h1.1l2.8,7.3h-1l-.7-1.9h-3.3l-.7,1.9h-1l2.8-7.3Z"/>
                <path id="DejaVuSans-72" d="M480.4,296.3c-.1,0-.2-.1-.3-.1-.1,0-.2,0-.4,0-.5,0-.9.2-1.2.5s-.4.8-.4,1.4v2.9h-.9v-5.5h.9v.9c.2-.3.4-.6.7-.7.3-.2.7-.2,1.1-.2s.1,0,.2,0c0,0,.2,0,.2,0v.9Z"/>
                <path id="DejaVuSans-741" data-name="DejaVuSans-74" d="M482.2,293.9v1.6h1.9v.7h-1.9v3c0,.4,0,.7.2.9s.4.2.7.2h.9v.8h-.9c-.7,0-1.2-.1-1.4-.4-.3-.3-.4-.7-.4-1.4v-3h-.7v-.7h.7v-1.6h.9Z"/>
                <path id="DejaVuSans-692" data-name="DejaVuSans-69" d="M485.3,295.5h.9v5.5h-.9v-5.5ZM485.3,293.4h.9v1.1h-.9v-1.1Z"/>
                <path id="DejaVuSans-66" d="M490.8,293.4v.7h-.9c-.3,0-.5,0-.7.2-.1.1-.2.4-.2.7v.5h1.5v.7h-1.5v4.8h-.9v-4.8h-.9v-.7h.9v-.4c0-.6.1-1.1.4-1.3.3-.3.7-.4,1.3-.4h.9Z"/>
                <path id="DejaVuSans-611" data-name="DejaVuSans-61" d="M494,298.2c-.7,0-1.2,0-1.5.2s-.4.4-.4.9.1.6.3.8c.2.2.5.3.9.3s.9-.2,1.2-.5.5-.8.5-1.4v-.2h-.9ZM495.8,297.8v3.1h-.9v-.8c-.2.3-.5.6-.8.7-.3.2-.7.2-1.1.2s-1-.2-1.3-.5c-.3-.3-.5-.7-.5-1.3s.2-1.1.6-1.4c.4-.3,1-.5,1.8-.5h1.3c0-.5-.1-.8-.4-1s-.7-.3-1.1-.3-.6,0-.9.1c-.3,0-.6.2-.9.3v-.8c.3-.1.6-.2,1-.3.3,0,.6,0,.9,0,.8,0,1.4.2,1.8.6.4.4.6,1,.6,1.9Z"/>
                <path id="DejaVuSans-63" d="M501.6,295.7v.8c-.3-.1-.5-.2-.8-.3s-.5-.1-.8-.1c-.6,0-1,.2-1.4.6-.3.4-.5.9-.5,1.6s.2,1.2.5,1.6c.3.4.8.6,1.4.6s.5,0,.8-.1.5-.2.8-.3v.8c-.3.1-.5.2-.8.3-.3,0-.6,0-.9,0-.8,0-1.5-.3-2-.8-.5-.5-.7-1.2-.7-2.1s.2-1.6.7-2.1c.5-.5,1.2-.8,2-.8s.5,0,.8,0c.3,0,.5.1.8.3Z"/>
                <path id="DejaVuSans-742" data-name="DejaVuSans-74" d="M504.1,293.9v1.6h1.9v.7h-1.9v3c0,.4,0,.7.2.9s.4.2.7.2h.9v.8h-.9c-.7,0-1.2-.1-1.4-.4-.3-.3-.4-.7-.4-1.4v-3h-.7v-.7h.7v-1.6h.9Z"/>
                <path id="DejaVuSans-73" d="M510.6,295.6v.9c-.3-.1-.5-.2-.8-.3-.3,0-.6,0-.9,0-.4,0-.8,0-1,.2-.2.1-.3.3-.3.6s0,.4.2.5.5.2,1,.3h.3c.6.2,1.1.4,1.4.6s.4.6.4,1-.2.9-.6,1.2c-.4.3-1,.4-1.7.4s-.6,0-.9,0c-.3,0-.7-.1-1-.3v-.9c.3.2.7.3,1,.4.3,0,.6.1,1,.1s.7,0,1-.2c.2-.1.3-.3.3-.6s0-.4-.2-.6c-.2-.1-.5-.3-1.1-.4h-.3c-.6-.2-1-.4-1.2-.6-.2-.2-.4-.6-.4-1s.2-.9.5-1.2c.4-.3.9-.4,1.6-.4s.6,0,.9,0c.3,0,.6.1.8.2Z"/>
                <path id="DejaVuSans-201" data-name="DejaVuSans-20" d="M511.4,301"/>
                <path id="DejaVuSans-26" d="M517,297c-.3.3-.5.5-.7.8-.1.3-.2.5-.2.8,0,.5.2.9.5,1.2.3.3.8.5,1.3.5s.6,0,.9-.2c.3-.1.5-.3.8-.5l-2.6-2.7ZM517.7,296.5l2.5,2.5c.2-.3.3-.6.5-.9s.2-.7.2-1.1h.9c0,.4-.1.9-.3,1.3-.2.4-.4.8-.7,1.2l1.4,1.4h-1.2l-.7-.7c-.3.3-.7.5-1.1.6-.4.1-.8.2-1.2.2-.8,0-1.4-.2-1.9-.7-.5-.4-.7-1-.7-1.7s.1-.8.3-1.2c.2-.4.5-.7,1-1-.2-.2-.3-.4-.4-.6,0-.2-.1-.4-.1-.6,0-.5.2-1,.5-1.3s.8-.5,1.4-.5.5,0,.8,0c.3,0,.5.1.8.3v.9c-.3-.2-.6-.3-.8-.3-.3,0-.5-.1-.7-.1-.3,0-.6,0-.8.3-.2.2-.3.4-.3.7s0,.3.1.5c0,.2.3.4.6.7Z"/>
                <path id="DejaVuSans-202" data-name="DejaVuSans-20" d="M522.3,301"/>
                <path id="DejaVuSans-43" d="M532,294.2v1c-.3-.3-.7-.5-1.1-.7-.4-.2-.8-.2-1.2-.2-.8,0-1.5.3-1.9.8s-.7,1.2-.7,2.2.2,1.7.7,2.2,1.1.8,1.9.8.8,0,1.2-.2.7-.4,1.1-.7v1c-.3.2-.7.4-1.1.5-.4.1-.8.2-1.2.2-1.1,0-2-.3-2.6-1-.6-.7-1-1.6-1-2.8s.3-2.1,1-2.8c.6-.7,1.5-1,2.6-1s.8,0,1.2.2c.4.1.7.3,1.1.5Z"/>
                <path id="DejaVuSans-68" d="M538,297.7v3.3h-.9v-3.3c0-.5-.1-.9-.3-1.2-.2-.3-.5-.4-.9-.4s-.9.2-1.1.5c-.3.3-.4.7-.4,1.3v3.1h-.9v-7.6h.9v3c.2-.3.5-.6.8-.7.3-.2.6-.2,1-.2.6,0,1.1.2,1.4.6.3.4.5,1,.5,1.7Z"/>
                <path id="DejaVuSans-612" data-name="DejaVuSans-61" d="M542.3,298.2c-.7,0-1.2,0-1.5.2s-.4.4-.4.9.1.6.3.8c.2.2.5.3.9.3s.9-.2,1.2-.5.5-.8.5-1.4v-.2h-.9ZM544.1,297.8v3.1h-.9v-.8c-.2.3-.5.6-.8.7-.3.2-.7.2-1.1.2s-1-.2-1.3-.5c-.3-.3-.5-.7-.5-1.3s.2-1.1.6-1.4c.4-.3,1-.5,1.8-.5h1.3c0-.5-.1-.8-.4-1s-.7-.3-1.1-.3-.6,0-.9.1c-.3,0-.6.2-.9.3v-.8c.3-.1.6-.2,1-.3.3,0,.6,0,.9,0,.8,0,1.4.2,1.8.6.4.4.6,1,.6,1.9Z"/>
                <path id="DejaVuSans-6e" d="M550.5,297.7v3.3h-.9v-3.3c0-.5-.1-.9-.3-1.2-.2-.3-.5-.4-.9-.4s-.9.2-1.1.5c-.3.3-.4.7-.4,1.3v3.1h-.9v-5.5h.9v.9c.2-.3.5-.6.8-.7.3-.2.6-.2,1-.2.6,0,1.1.2,1.4.6.3.4.5,1,.5,1.7Z"/>
                <path id="DejaVuSans-6e1" data-name="DejaVuSans-6e" d="M556.8,297.7v3.3h-.9v-3.3c0-.5-.1-.9-.3-1.2-.2-.3-.5-.4-.9-.4s-.9.2-1.1.5c-.3.3-.4.7-.4,1.3v3.1h-.9v-5.5h.9v.9c.2-.3.5-.6.8-.7.3-.2.6-.2,1-.2.6,0,1.1.2,1.4.6.3.4.5,1,.5,1.7Z"/>
                <path id="DejaVuSans-65" d="M563.3,298v.4h-4.1c0,.6.2,1.1.6,1.4.3.3.8.5,1.4.5s.7,0,1-.1.6-.2,1-.4v.9c-.3.1-.7.2-1,.3s-.7.1-1,.1c-.9,0-1.6-.3-2.1-.8-.5-.5-.8-1.2-.8-2.1s.2-1.6.7-2.1c.5-.5,1.1-.8,2-.8s1.3.2,1.7.7c.4.5.6,1.1.6,1.9ZM562.4,297.7c0-.5-.1-.9-.4-1.2-.3-.3-.6-.4-1.1-.4s-.9.1-1.2.4-.5.7-.5,1.2h3.2Z"/>
                <path id="DejaVuSans-6c1" data-name="DejaVuSans-6c" d="M564.7,293.4h.9v7.6h-.9v-7.6Z"/>
              </g>
              <g>
                <path id="DejaVuSans-431" data-name="DejaVuSans-43" d="M475.9,305.4v1c-.3-.3-.7-.5-1.1-.7-.4-.2-.8-.2-1.2-.2-.8,0-1.5.3-1.9.8s-.7,1.2-.7,2.2.2,1.7.7,2.2,1.1.8,1.9.8.8,0,1.2-.2.7-.4,1.1-.7v1c-.3.2-.7.4-1.1.5-.4.1-.8.2-1.2.2-1.1,0-2-.3-2.6-1-.6-.7-1-1.6-1-2.8s.3-2.1,1-2.8c.6-.7,1.5-1,2.6-1s.8,0,1.2.2c.4.1.7.3,1.1.5Z"/>
                <path id="DejaVuSans-681" data-name="DejaVuSans-68" d="M481.9,308.9v3.3h-.9v-3.3c0-.5-.1-.9-.3-1.2-.2-.3-.5-.4-.9-.4s-.9.2-1.1.5c-.3.3-.4.7-.4,1.3v3.1h-.9v-7.6h.9v3c.2-.3.5-.6.8-.7.3-.2.6-.2,1-.2.6,0,1.1.2,1.4.6.3.4.5,1,.5,1.7Z"/>
                <path id="DejaVuSans-613" data-name="DejaVuSans-61" d="M486.2,309.4c-.7,0-1.2,0-1.5.2s-.4.4-.4.9.1.6.3.8c.2.2.5.3.9.3s.9-.2,1.2-.5.5-.8.5-1.4v-.2h-.9ZM488,309v3.1h-.9v-.8c-.2.3-.5.6-.8.7-.3.2-.7.2-1.1.2s-1-.2-1.3-.5c-.3-.3-.5-.7-.5-1.3s.2-1.1.6-1.4c.4-.3,1-.5,1.8-.5h1.3c0-.5-.1-.8-.4-1s-.7-.3-1.1-.3-.6,0-.9.1c-.3,0-.6.2-.9.3v-.8c.3-.1.6-.2,1-.3.3,0,.6,0,.9,0,.8,0,1.4.2,1.8.6.4.4.6,1,.6,1.9Z"/>
                <path id="DejaVuSans-721" data-name="DejaVuSans-72" d="M493,307.5c-.1,0-.2-.1-.3-.1-.1,0-.2,0-.4,0-.5,0-.9.2-1.2.5s-.4.8-.4,1.4v2.9h-.9v-5.5h.9v.9c.2-.3.4-.6.7-.7.3-.2.7-.2,1.1-.2s.1,0,.2,0c0,0,.2,0,.2,0v.9Z"/>
                <path id="DejaVuSans-614" data-name="DejaVuSans-61" d="M496.4,309.4c-.7,0-1.2,0-1.5.2s-.4.4-.4.9.1.6.3.8c.2.2.5.3.9.3s.9-.2,1.2-.5.5-.8.5-1.4v-.2h-.9ZM498.2,309v3.1h-.9v-.8c-.2.3-.5.6-.8.7-.3.2-.7.2-1.1.2s-1-.2-1.3-.5c-.3-.3-.5-.7-.5-1.3s.2-1.1.6-1.4c.4-.3,1-.5,1.8-.5h1.3c0-.5-.1-.8-.4-1s-.7-.3-1.1-.3-.6,0-.9.1c-.3,0-.6.2-.9.3v-.8c.3-.1.6-.2,1-.3.3,0,.6,0,.9,0,.8,0,1.4.2,1.8.6.4.4.6,1,.6,1.9Z"/>
                <path id="DejaVuSans-631" data-name="DejaVuSans-63" d="M504,306.9v.8c-.3-.1-.5-.2-.8-.3s-.5-.1-.8-.1c-.6,0-1,.2-1.4.6-.3.4-.5.9-.5,1.6s.2,1.2.5,1.6c.3.4.8.6,1.4.6s.5,0,.8-.1.5-.2.8-.3v.8c-.3.1-.5.2-.8.3-.3,0-.6,0-.9,0-.8,0-1.5-.3-2-.8-.5-.5-.7-1.2-.7-2.1s.2-1.6.7-2.1c.5-.5,1.2-.8,2-.8s.5,0,.8,0c.3,0,.5.1.8.3Z"/>
                <path id="DejaVuSans-743" data-name="DejaVuSans-74" d="M506.5,305.1v1.6h1.9v.7h-1.9v3c0,.4,0,.7.2.9s.4.2.7.2h.9v.8h-.9c-.7,0-1.2-.1-1.4-.4-.3-.3-.4-.7-.4-1.4v-3h-.7v-.7h.7v-1.6h.9Z"/>
                <path id="DejaVuSans-651" data-name="DejaVuSans-65" d="M514.2,309.2v.4h-4.1c0,.6.2,1.1.6,1.4.3.3.8.5,1.4.5s.7,0,1-.1.6-.2,1-.4v.9c-.3.1-.7.2-1,.3s-.7.1-1,.1c-.9,0-1.6-.3-2.1-.8-.5-.5-.8-1.2-.8-2.1s.2-1.6.7-2.1c.5-.5,1.1-.8,2-.8s1.3.2,1.7.7c.4.5.6,1.1.6,1.9ZM513.3,308.9c0-.5-.1-.9-.4-1.2-.3-.3-.6-.4-1.1-.4s-.9.1-1.2.4-.5.7-.5,1.2h3.2Z"/>
                <path id="DejaVuSans-722" data-name="DejaVuSans-72" d="M518.8,307.5c-.1,0-.2-.1-.3-.1-.1,0-.2,0-.4,0-.5,0-.9.2-1.2.5s-.4.8-.4,1.4v2.9h-.9v-5.5h.9v.9c.2-.3.4-.6.7-.7.3-.2.7-.2,1.1-.2s.1,0,.2,0c0,0,.2,0,.2,0v.9Z"/>
                <path id="DejaVuSans-693" data-name="DejaVuSans-69" d="M519.8,306.7h.9v5.5h-.9v-5.5ZM519.8,304.6h.9v1.1h-.9v-1.1Z"/>
                <path id="DejaVuSans-731" data-name="DejaVuSans-73" d="M526,306.8v.9c-.3-.1-.5-.2-.8-.3-.3,0-.6,0-.9,0-.4,0-.8,0-1,.2-.2.1-.3.3-.3.6s0,.4.2.5.5.2,1,.3h.3c.6.2,1.1.4,1.4.6s.4.6.4,1-.2.9-.6,1.2c-.4.3-1,.4-1.7.4s-.6,0-.9,0c-.3,0-.7-.1-1-.3v-.9c.3.2.7.3,1,.4.3,0,.6.1,1,.1s.7,0,1-.2c.2-.1.3-.3.3-.6s0-.4-.2-.6c-.2-.1-.5-.3-1.1-.4h-.3c-.6-.2-1-.4-1.2-.6-.2-.2-.4-.6-.4-1s.2-.9.5-1.2c.4-.3.9-.4,1.6-.4s.6,0,.9,0c.3,0,.6.1.8.2Z"/>
                <path id="DejaVuSans-744" data-name="DejaVuSans-74" d="M528.6,305.1v1.6h1.9v.7h-1.9v3c0,.4,0,.7.2.9s.4.2.7.2h.9v.8h-.9c-.7,0-1.2-.1-1.4-.4-.3-.3-.4-.7-.4-1.4v-3h-.7v-.7h.7v-1.6h.9Z"/>
                <path id="DejaVuSans-694" data-name="DejaVuSans-69" d="M531.7,306.7h.9v5.5h-.9v-5.5ZM531.7,304.6h.9v1.1h-.9v-1.1Z"/>
                <path id="DejaVuSans-632" data-name="DejaVuSans-63" d="M538.4,306.9v.8c-.3-.1-.5-.2-.8-.3s-.5-.1-.8-.1c-.6,0-1,.2-1.4.6-.3.4-.5.9-.5,1.6s.2,1.2.5,1.6c.3.4.8.6,1.4.6s.5,0,.8-.1.5-.2.8-.3v.8c-.3.1-.5.2-.8.3-.3,0-.6,0-.9,0-.8,0-1.5-.3-2-.8-.5-.5-.7-1.2-.7-2.1s.2-1.6.7-2.1c.5-.5,1.2-.8,2-.8s.5,0,.8,0c.3,0,.5.1.8.3Z"/>
                <path id="DejaVuSans-732" data-name="DejaVuSans-73" d="M543.4,306.8v.9c-.3-.1-.5-.2-.8-.3-.3,0-.6,0-.9,0-.4,0-.8,0-1,.2-.2.1-.3.3-.3.6s0,.4.2.5.5.2,1,.3h.3c.6.2,1.1.4,1.4.6s.4.6.4,1-.2.9-.6,1.2c-.4.3-1,.4-1.7.4s-.6,0-.9,0c-.3,0-.7-.1-1-.3v-.9c.3.2.7.3,1,.4.3,0,.6.1,1,.1s.7,0,1-.2c.2-.1.3-.3.3-.6s0-.4-.2-.6c-.2-.1-.5-.3-1.1-.4h-.3c-.6-.2-1-.4-1.2-.6-.2-.2-.4-.6-.4-1s.2-.9.5-1.2c.4-.3.9-.4,1.6-.4s.6,0,.9,0c.3,0,.6.1.8.2Z"/>
              </g>
            </g>
          </g>
          <g id="xtick_2">
            <g id="line2d_2">
              <g class="st26">
                <path class="st1" d="M286,298.2l105.7-132.5"/>
              </g>
            </g>
            <g id="text_2">
              <g>
                <path id="DejaVuSans-4c" d="M401.3,144.6h1v6.5h3.6v.8h-4.5v-7.3Z"/>
                <path id="DejaVuSans-615" data-name="DejaVuSans-61" d="M409.4,149.2c-.7,0-1.2,0-1.5.2s-.4.4-.4.9.1.6.3.8c.2.2.5.3.9.3s.9-.2,1.2-.5.5-.8.5-1.4v-.2h-.9ZM411.1,148.8v3.1h-.9v-.8c-.2.3-.5.6-.8.7-.3.2-.7.2-1.1.2s-1-.2-1.3-.5c-.3-.3-.5-.7-.5-1.3s.2-1.1.6-1.4c.4-.3,1-.5,1.8-.5h1.3c0-.5-.1-.8-.4-1s-.7-.3-1.1-.3-.6,0-.9.1c-.3,0-.6.2-.9.3v-.8c.3-.1.6-.2,1-.3.3,0,.6,0,.9,0,.8,0,1.4.2,1.8.6.4.4.6,1,.6,1.9Z"/>
                <path id="DejaVuSans-6e2" data-name="DejaVuSans-6e" d="M417.5,148.6v3.3h-.9v-3.3c0-.5-.1-.9-.3-1.2-.2-.3-.5-.4-.9-.4s-.9.2-1.1.5c-.3.3-.4.7-.4,1.3v3.1h-.9v-5.5h.9v.9c.2-.3.5-.6.8-.7.3-.2.6-.2,1-.2.6,0,1.1.2,1.4.6.3.4.5,1,.5,1.7Z"/>
                <path id="DejaVuSans-67" d="M422.9,149.1c0-.7-.1-1.2-.4-1.5-.3-.4-.6-.5-1.1-.5s-.9.2-1.1.5c-.3.4-.4.9-.4,1.5s.1,1.2.4,1.5c.3.4.6.5,1.1.5s.9-.2,1.1-.5c.3-.4.4-.9.4-1.5ZM423.8,151.2c0,.9-.2,1.6-.6,2.1-.4.5-1,.7-1.9.7s-.6,0-.9,0-.6-.1-.8-.2v-.9c.3.1.5.2.8.3.3,0,.5.1.8.1.6,0,1-.2,1.3-.5.3-.3.4-.8.4-1.4v-.4c-.2.3-.4.6-.7.7s-.6.2-1,.2c-.7,0-1.2-.3-1.6-.8-.4-.5-.6-1.2-.6-2s.2-1.5.6-2c.4-.5,1-.8,1.6-.8s.8,0,1,.2.5.4.7.7v-.8h.9v4.8Z"/>
                <path id="DejaVuSans-752" data-name="DejaVuSans-75" d="M425.6,149.7v-3.3h.9v3.3c0,.5.1.9.3,1.2.2.3.5.4.9.4s.9-.2,1.1-.5c.3-.3.4-.7.4-1.3v-3.1h.9v5.5h-.9v-.8c-.2.3-.5.6-.8.7-.3.2-.6.2-1,.2-.6,0-1.1-.2-1.4-.6-.3-.4-.5-1-.5-1.7ZM427.9,146.3h0Z"/>
                <path id="DejaVuSans-616" data-name="DejaVuSans-61" d="M434.5,149.2c-.7,0-1.2,0-1.5.2s-.4.4-.4.9.1.6.3.8c.2.2.5.3.9.3s.9-.2,1.2-.5.5-.8.5-1.4v-.2h-.9ZM436.3,148.8v3.1h-.9v-.8c-.2.3-.5.6-.8.7-.3.2-.7.2-1.1.2s-1-.2-1.3-.5c-.3-.3-.5-.7-.5-1.3s.2-1.1.6-1.4c.4-.3,1-.5,1.8-.5h1.3c0-.5-.1-.8-.4-1s-.7-.3-1.1-.3-.6,0-.9.1c-.3,0-.6.2-.9.3v-.8c.3-.1.6-.2,1-.3.3,0,.6,0,.9,0,.8,0,1.4.2,1.8.6.4.4.6,1,.6,1.9Z"/>
                <path id="DejaVuSans-671" data-name="DejaVuSans-67" d="M441.7,149.1c0-.7-.1-1.2-.4-1.5-.3-.4-.6-.5-1.1-.5s-.9.2-1.1.5c-.3.4-.4.9-.4,1.5s.1,1.2.4,1.5c.3.4.6.5,1.1.5s.9-.2,1.1-.5c.3-.4.4-.9.4-1.5ZM442.6,151.2c0,.9-.2,1.6-.6,2.1-.4.5-1,.7-1.9.7s-.6,0-.9,0-.6-.1-.8-.2v-.9c.3.1.5.2.8.3.3,0,.5.1.8.1.6,0,1-.2,1.3-.5.3-.3.4-.8.4-1.4v-.4c-.2.3-.4.6-.7.7s-.6.2-1,.2c-.7,0-1.2-.3-1.6-.8-.4-.5-.6-1.2-.6-2s.2-1.5.6-2c.4-.5,1-.8,1.6-.8s.8,0,1,.2.5.4.7.7v-.8h.9v4.8Z"/>
                <path id="DejaVuSans-652" data-name="DejaVuSans-65" d="M449.2,148.9v.4h-4.1c0,.6.2,1.1.6,1.4.3.3.8.5,1.4.5s.7,0,1-.1.6-.2,1-.4v.9c-.3.1-.7.2-1,.3s-.7.1-1,.1c-.9,0-1.6-.3-2.1-.8-.5-.5-.8-1.2-.8-2.1s.2-1.6.7-2.1c.5-.5,1.1-.8,2-.8s1.3.2,1.7.7c.4.5.6,1.1.6,1.9ZM448.3,148.7c0-.5-.1-.9-.4-1.2-.3-.3-.6-.4-1.1-.4s-.9.1-1.2.4-.5.7-.5,1.2h3.2Z"/>
              </g>
              <g>
                <path id="DejaVuSans-49" d="M401.3,155.8h1v7.3h-1v-7.3Z"/>
                <path id="DejaVuSans-641" data-name="DejaVuSans-64" d="M407.8,158.5v-3h.9v7.6h-.9v-.8c-.2.3-.4.6-.7.7-.3.2-.6.2-1,.2-.7,0-1.2-.3-1.6-.8-.4-.5-.6-1.2-.6-2.1s.2-1.6.6-2.1c.4-.5,1-.8,1.6-.8s.8,0,1,.2c.3.2.5.4.7.7ZM404.8,160.4c0,.7.1,1.2.4,1.6.3.4.6.6,1.1.6s.8-.2,1.1-.6c.3-.4.4-.9.4-1.6s-.1-1.2-.4-1.6c-.3-.4-.6-.6-1.1-.6s-.8.2-1.1.6-.4.9-.4,1.6Z"/>
                <path id="DejaVuSans-653" data-name="DejaVuSans-65" d="M415.3,160.1v.4h-4.1c0,.6.2,1.1.6,1.4.3.3.8.5,1.4.5s.7,0,1-.1.6-.2,1-.4v.9c-.3.1-.7.2-1,.3s-.7.1-1,.1c-.9,0-1.6-.3-2.1-.8-.5-.5-.8-1.2-.8-2.1s.2-1.6.7-2.1c.5-.5,1.1-.8,2-.8s1.3.2,1.7.7c.4.5.6,1.1.6,1.9ZM414.4,159.9c0-.5-.1-.9-.4-1.2-.3-.3-.6-.4-1.1-.4s-.9.1-1.2.4-.5.7-.5,1.2h3.2Z"/>
                <path id="DejaVuSans-6e3" data-name="DejaVuSans-6e" d="M421.3,159.8v3.3h-.9v-3.3c0-.5-.1-.9-.3-1.2-.2-.3-.5-.4-.9-.4s-.9.2-1.1.5c-.3.3-.4.7-.4,1.3v3.1h-.9v-5.5h.9v.9c.2-.3.5-.6.8-.7.3-.2.6-.2,1-.2.6,0,1.1.2,1.4.6.3.4.5,1,.5,1.7Z"/>
                <path id="DejaVuSans-745" data-name="DejaVuSans-74" d="M424,156.1v1.6h1.9v.7h-1.9v3c0,.4,0,.7.2.9s.4.2.7.2h.9v.8h-.9c-.7,0-1.2-.1-1.4-.4-.3-.3-.4-.7-.4-1.4v-3h-.7v-.7h.7v-1.6h.9Z"/>
                <path id="DejaVuSans-695" data-name="DejaVuSans-69" d="M427,157.6h.9v5.5h-.9v-5.5ZM427,155.5h.9v1.1h-.9v-1.1Z"/>
                <path id="DejaVuSans-661" data-name="DejaVuSans-66" d="M432.6,155.5v.7h-.9c-.3,0-.5,0-.7.2-.1.1-.2.4-.2.7v.5h1.5v.7h-1.5v4.8h-.9v-4.8h-.9v-.7h.9v-.4c0-.6.1-1.1.4-1.3.3-.3.7-.4,1.3-.4h.9Z"/>
                <path id="DejaVuSans-696" data-name="DejaVuSans-69" d="M433.3,157.6h.9v5.5h-.9v-5.5ZM433.3,155.5h.9v1.1h-.9v-1.1Z"/>
                <path id="DejaVuSans-633" data-name="DejaVuSans-63" d="M440,157.8v.8c-.3-.1-.5-.2-.8-.3s-.5-.1-.8-.1c-.6,0-1,.2-1.4.6-.3.4-.5.9-.5,1.6s.2,1.2.5,1.6c.3.4.8.6,1.4.6s.5,0,.8-.1.5-.2.8-.3v.8c-.3.1-.5.2-.8.3-.3,0-.6,0-.9,0-.8,0-1.5-.3-2-.8-.5-.5-.7-1.2-.7-2.1s.2-1.6.7-2.1c.5-.5,1.2-.8,2-.8s.5,0,.8,0c.3,0,.5.1.8.3Z"/>
                <path id="DejaVuSans-617" data-name="DejaVuSans-61" d="M444.1,160.4c-.7,0-1.2,0-1.5.2s-.4.4-.4.9.1.6.3.8c.2.2.5.3.9.3s.9-.2,1.2-.5.5-.8.5-1.4v-.2h-.9ZM445.9,160v3.1h-.9v-.8c-.2.3-.5.6-.8.7-.3.2-.7.2-1.1.2s-1-.2-1.3-.5c-.3-.3-.5-.7-.5-1.3s.2-1.1.6-1.4c.4-.3,1-.5,1.8-.5h1.3c0-.5-.1-.8-.4-1s-.7-.3-1.1-.3-.6,0-.9.1c-.3,0-.6.2-.9.3v-.8c.3-.1.6-.2,1-.3.3,0,.6,0,.9,0,.8,0,1.4.2,1.8.6.4.4.6,1,.6,1.9Z"/>
                <path id="DejaVuSans-746" data-name="DejaVuSans-74" d="M448.6,156.1v1.6h1.9v.7h-1.9v3c0,.4,0,.7.2.9s.4.2.7.2h.9v.8h-.9c-.7,0-1.2-.1-1.4-.4-.3-.3-.4-.7-.4-1.4v-3h-.7v-.7h.7v-1.6h.9Z"/>
                <path id="DejaVuSans-697" data-name="DejaVuSans-69" d="M451.6,157.6h.9v5.5h-.9v-5.5ZM451.6,155.5h.9v1.1h-.9v-1.1Z"/>
                <path id="DejaVuSans-6f1" data-name="DejaVuSans-6f" d="M456.5,158.3c-.5,0-.9.2-1.1.6s-.4.9-.4,1.5.1,1.2.4,1.5c.3.4.7.6,1.1.6s.9-.2,1.1-.6c.3-.4.4-.9.4-1.5s-.1-1.2-.4-1.5c-.3-.4-.7-.6-1.1-.6ZM456.5,157.5c.8,0,1.4.3,1.8.8.4.5.7,1.2.7,2.1s-.2,1.6-.7,2.1c-.4.5-1.1.8-1.8.8s-1.4-.3-1.8-.8c-.4-.5-.7-1.2-.7-2.1s.2-1.6.7-2.1c.4-.5,1.1-.8,1.8-.8Z"/>
                <path id="DejaVuSans-6e4" data-name="DejaVuSans-6e" d="M465.1,159.8v3.3h-.9v-3.3c0-.5-.1-.9-.3-1.2-.2-.3-.5-.4-.9-.4s-.9.2-1.1.5c-.3.3-.4.7-.4,1.3v3.1h-.9v-5.5h.9v.9c.2-.3.5-.6.8-.7.3-.2.6-.2,1-.2.6,0,1.1.2,1.4.6.3.4.5,1,.5,1.7Z"/>
              </g>
            </g>
          </g>
          <g id="xtick_3">
            <g id="line2d_3">
              <g class="st23">
                <path class="st1" d="M286,298.2l-37.7-165.2"/>
              </g>
            </g>
            <g id="text_3">
              <g>
                <path id="DejaVuSans-4c1" data-name="DejaVuSans-4c" d="M148.9,109.2h1v6.5h3.6v.8h-4.5v-7.3Z"/>
                <path id="DejaVuSans-654" data-name="DejaVuSans-65" d="M158.9,113.5v.4h-4.1c0,.6.2,1.1.6,1.4.3.3.8.5,1.4.5s.7,0,1-.1.6-.2,1-.4v.9c-.3.1-.7.2-1,.3s-.7.1-1,.1c-.9,0-1.6-.3-2.1-.8-.5-.5-.8-1.2-.8-2.1s.2-1.6.7-2.1c.5-.5,1.1-.8,2-.8s1.3.2,1.7.7c.4.5.6,1.1.6,1.9ZM158,113.2c0-.5-.1-.9-.4-1.2-.3-.3-.6-.4-1.1-.4s-.9.1-1.2.4-.5.7-.5,1.2h3.2Z"/>
                <path id="DejaVuSans-78" d="M164.8,111l-2,2.7,2.1,2.8h-1.1l-1.6-2.1-1.6,2.1h-1.1l2.1-2.9-1.9-2.6h1.1l1.5,1.9,1.5-1.9h1.1Z"/>
                <path id="DejaVuSans-698" data-name="DejaVuSans-69" d="M166.1,111h.9v5.5h-.9v-5.5ZM166.1,108.9h.9v1.1h-.9v-1.1Z"/>
                <path id="DejaVuSans-634" data-name="DejaVuSans-63" d="M172.9,111.2v.8c-.3-.1-.5-.2-.8-.3s-.5-.1-.8-.1c-.6,0-1,.2-1.4.6-.3.4-.5.9-.5,1.6s.2,1.2.5,1.6c.3.4.8.6,1.4.6s.5,0,.8-.1.5-.2.8-.3v.8c-.3.1-.5.2-.8.3-.3,0-.6,0-.9,0-.8,0-1.5-.3-2-.8-.5-.5-.7-1.2-.7-2.1s.2-1.6.7-2.1c.5-.5,1.2-.8,2-.8s.5,0,.8,0c.3,0,.5.1.8.3Z"/>
                <path id="DejaVuSans-618" data-name="DejaVuSans-61" d="M176.9,113.7c-.7,0-1.2,0-1.5.2s-.4.4-.4.9.1.6.3.8c.2.2.5.3.9.3s.9-.2,1.2-.5.5-.8.5-1.4v-.2h-.9ZM178.7,113.4v3.1h-.9v-.8c-.2.3-.5.6-.8.7-.3.2-.7.2-1.1.2s-1-.2-1.3-.5c-.3-.3-.5-.7-.5-1.3s.2-1.1.6-1.4c.4-.3,1-.5,1.8-.5h1.3c0-.5-.1-.8-.4-1s-.7-.3-1.1-.3-.6,0-.9.1c-.3,0-.6.2-.9.3v-.8c.3-.1.6-.2,1-.3.3,0,.6,0,.9,0,.8,0,1.4.2,1.8.6.4.4.6,1,.6,1.9Z"/>
                <path id="DejaVuSans-6c2" data-name="DejaVuSans-6c" d="M180.5,108.9h.9v7.6h-.9v-7.6Z"/>
                <path id="DejaVuSans-203" data-name="DejaVuSans-20" d="M182.4,116.5"/>
                <path id="DejaVuSans-619" data-name="DejaVuSans-61" d="M189,113.7c-.7,0-1.2,0-1.5.2s-.4.4-.4.9.1.6.3.8c.2.2.5.3.9.3s.9-.2,1.2-.5.5-.8.5-1.4v-.2h-.9ZM190.8,113.4v3.1h-.9v-.8c-.2.3-.5.6-.8.7-.3.2-.7.2-1.1.2s-1-.2-1.3-.5c-.3-.3-.5-.7-.5-1.3s.2-1.1.6-1.4c.4-.3,1-.5,1.8-.5h1.3c0-.5-.1-.8-.4-1s-.7-.3-1.1-.3-.6,0-.9.1c-.3,0-.6.2-.9.3v-.8c.3-.1.6-.2,1-.3.3,0,.6,0,.9,0,.8,0,1.4.2,1.8.6.4.4.6,1,.6,1.9Z"/>
                <path id="DejaVuSans-6e5" data-name="DejaVuSans-6e" d="M197.2,113.2v3.3h-.9v-3.3c0-.5-.1-.9-.3-1.2-.2-.3-.5-.4-.9-.4s-.9.2-1.1.5c-.3.3-.4.7-.4,1.3v3.1h-.9v-5.5h.9v.9c.2-.3.5-.6.8-.7.3-.2.6-.2,1-.2.6,0,1.1.2,1.4.6.3.4.5,1,.5,1.7Z"/>
                <path id="DejaVuSans-642" data-name="DejaVuSans-64" d="M202.6,111.8v-3h.9v7.6h-.9v-.8c-.2.3-.4.6-.7.7-.3.2-.6.2-1,.2-.7,0-1.2-.3-1.6-.8-.4-.5-.6-1.2-.6-2.1s.2-1.6.6-2.1c.4-.5,1-.8,1.6-.8s.8,0,1,.2c.3.2.5.4.7.7ZM199.5,113.7c0,.7.1,1.2.4,1.6.3.4.6.6,1.1.6s.8-.2,1.1-.6c.3-.4.4-.9.4-1.6s-.1-1.2-.4-1.6c-.3-.4-.6-.6-1.1-.6s-.8.2-1.1.6-.4.9-.4,1.6Z"/>
                <path id="DejaVuSans-204" data-name="DejaVuSans-20" d="M204.4,116.5"/>
                <path id="DejaVuSans-50" d="M209.5,110v2.7h1.2c.5,0,.8-.1,1.1-.4.3-.2.4-.6.4-1s-.1-.8-.4-1c-.3-.2-.6-.4-1.1-.4h-1.2ZM208.5,109.2h2.2c.8,0,1.4.2,1.9.6.4.4.6.9.6,1.6s-.2,1.3-.6,1.6c-.4.4-1,.6-1.9.6h-1.2v2.9h-1v-7.3Z"/>
                <path id="DejaVuSans-682" data-name="DejaVuSans-68" d="M219.1,113.2v3.3h-.9v-3.3c0-.5-.1-.9-.3-1.2-.2-.3-.5-.4-.9-.4s-.9.2-1.1.5c-.3.3-.4.7-.4,1.3v3.1h-.9v-7.6h.9v3c.2-.3.5-.6.8-.7.3-.2.6-.2,1-.2.6,0,1.1.2,1.4.6.3.4.5,1,.5,1.7Z"/>
                <path id="DejaVuSans-723" data-name="DejaVuSans-72" d="M224,111.8c-.1,0-.2-.1-.3-.1-.1,0-.2,0-.4,0-.5,0-.9.2-1.2.5s-.4.8-.4,1.4v2.9h-.9v-5.5h.9v.9c.2-.3.4-.6.7-.7.3-.2.7-.2,1.1-.2s.1,0,.2,0c0,0,.2,0,.2,0v.9Z"/>
                <path id="DejaVuSans-6110" data-name="DejaVuSans-61" d="M227.5,113.7c-.7,0-1.2,0-1.5.2s-.4.4-.4.9.1.6.3.8c.2.2.5.3.9.3s.9-.2,1.2-.5.5-.8.5-1.4v-.2h-.9ZM229.2,113.4v3.1h-.9v-.8c-.2.3-.5.6-.8.7-.3.2-.7.2-1.1.2s-1-.2-1.3-.5c-.3-.3-.5-.7-.5-1.3s.2-1.1.6-1.4c.4-.3,1-.5,1.8-.5h1.3c0-.5-.1-.8-.4-1s-.7-.3-1.1-.3-.6,0-.9.1c-.3,0-.6.2-.9.3v-.8c.3-.1.6-.2,1-.3.3,0,.6,0,.9,0,.8,0,1.4.2,1.8.6.4.4.6,1,.6,1.9Z"/>
                <path id="DejaVuSans-733" data-name="DejaVuSans-73" d="M234.6,111.2v.9c-.3-.1-.5-.2-.8-.3-.3,0-.6,0-.9,0-.4,0-.8,0-1,.2-.2.1-.3.3-.3.6s0,.4.2.5.5.2,1,.3h.3c.6.2,1.1.4,1.4.6s.4.6.4,1-.2.9-.6,1.2c-.4.3-1,.4-1.7.4s-.6,0-.9,0c-.3,0-.7-.1-1-.3v-.9c.3.2.7.3,1,.4.3,0,.6.1,1,.1s.7,0,1-.2c.2-.1.3-.3.3-.6s0-.4-.2-.6c-.2-.1-.5-.3-1.1-.4h-.3c-.6-.2-1-.4-1.2-.6-.2-.2-.4-.6-.4-1s.2-.9.5-1.2c.4-.3.9-.4,1.6-.4s.6,0,.9,0c.3,0,.6.1.8.2Z"/>
                <path id="DejaVuSans-655" data-name="DejaVuSans-65" d="M241,113.5v.4h-4.1c0,.6.2,1.1.6,1.4.3.3.8.5,1.4.5s.7,0,1-.1.6-.2,1-.4v.9c-.3.1-.7.2-1,.3s-.7.1-1,.1c-.9,0-1.6-.3-2.1-.8-.5-.5-.8-1.2-.8-2.1s.2-1.6.7-2.1c.5-.5,1.1-.8,2-.8s1.3.2,1.7.7c.4.5.6,1.1.6,1.9ZM240.1,113.2c0-.5-.1-.9-.4-1.2-.3-.3-.6-.4-1.1-.4s-.9.1-1.2.4-.5.7-.5,1.2h3.2Z"/>
                <path id="DejaVuSans-2d" d="M242,113.3h2.6v.8h-2.6v-.8Z"/>
              </g>
              <g>
                <path id="DejaVuSans-4c2" data-name="DejaVuSans-4c" d="M157.6,120.4h1v6.5h3.6v.8h-4.5v-7.3Z"/>
                <path id="DejaVuSans-656" data-name="DejaVuSans-65" d="M167.7,124.7v.4h-4.1c0,.6.2,1.1.6,1.4.3.3.8.5,1.4.5s.7,0,1-.1.6-.2,1-.4v.9c-.3.1-.7.2-1,.3s-.7.1-1,.1c-.9,0-1.6-.3-2.1-.8-.5-.5-.8-1.2-.8-2.1s.2-1.6.7-2.1c.5-.5,1.1-.8,2-.8s1.3.2,1.7.7c.4.5.6,1.1.6,1.9ZM166.8,124.4c0-.5-.1-.9-.4-1.2-.3-.3-.6-.4-1.1-.4s-.9.1-1.2.4-.5.7-.5,1.2h3.2Z"/>
                <path id="DejaVuSans-76" d="M168.5,122.2h1l1.7,4.6,1.7-4.6h1l-2.1,5.5h-1.2l-2.1-5.5Z"/>
                <path id="DejaVuSans-657" data-name="DejaVuSans-65" d="M179.7,124.7v.4h-4.1c0,.6.2,1.1.6,1.4.3.3.8.5,1.4.5s.7,0,1-.1.6-.2,1-.4v.9c-.3.1-.7.2-1,.3s-.7.1-1,.1c-.9,0-1.6-.3-2.1-.8-.5-.5-.8-1.2-.8-2.1s.2-1.6.7-2.1c.5-.5,1.1-.8,2-.8s1.3.2,1.7.7c.4.5.6,1.1.6,1.9ZM178.9,124.4c0-.5-.1-.9-.4-1.2-.3-.3-.6-.4-1.1-.4s-.9.1-1.2.4-.5.7-.5,1.2h3.2Z"/>
                <path id="DejaVuSans-6c3" data-name="DejaVuSans-6c" d="M181.2,120.1h.9v7.6h-.9v-7.6Z"/>
                <path id="DejaVuSans-205" data-name="DejaVuSans-20" d="M183.1,127.7"/>
                <path id="DejaVuSans-52" d="M190.7,124.3c.2,0,.4.2.6.5s.4.6.6,1l1,2h-1.1l-.9-1.9c-.2-.5-.5-.8-.7-1s-.5-.2-.9-.2h-1.1v3.1h-1v-7.3h2.2c.8,0,1.5.2,1.9.5.4.3.6.9.6,1.6s-.1.8-.3,1.1c-.2.3-.5.5-.9.6ZM188.2,121.2v2.6h1.2c.5,0,.8-.1,1.1-.3s.4-.5.4-1-.1-.7-.4-1-.6-.3-1.1-.3h-1.2Z"/>
                <path id="DejaVuSans-658" data-name="DejaVuSans-65" d="M198.4,124.7v.4h-4.1c0,.6.2,1.1.6,1.4.3.3.8.5,1.4.5s.7,0,1-.1.6-.2,1-.4v.9c-.3.1-.7.2-1,.3s-.7.1-1,.1c-.9,0-1.6-.3-2.1-.8-.5-.5-.8-1.2-.8-2.1s.2-1.6.7-2.1c.5-.5,1.1-.8,2-.8s1.3.2,1.7.7c.4.5.6,1.1.6,1.9ZM197.5,124.4c0-.5-.1-.9-.4-1.2-.3-.3-.6-.4-1.1-.4s-.9.1-1.2.4-.5.7-.5,1.2h3.2Z"/>
                <path id="DejaVuSans-635" data-name="DejaVuSans-63" d="M203.8,122.4v.8c-.3-.1-.5-.2-.8-.3s-.5-.1-.8-.1c-.6,0-1,.2-1.4.6-.3.4-.5.9-.5,1.6s.2,1.2.5,1.6c.3.4.8.6,1.4.6s.5,0,.8-.1.5-.2.8-.3v.8c-.3.1-.5.2-.8.3-.3,0-.6,0-.9,0-.8,0-1.5-.3-2-.8-.5-.5-.7-1.2-.7-2.1s.2-1.6.7-2.1c.5-.5,1.2-.8,2-.8s.5,0,.8,0c.3,0,.5.1.8.3Z"/>
                <path id="DejaVuSans-6f2" data-name="DejaVuSans-6f" d="M207.4,122.8c-.5,0-.9.2-1.1.6s-.4.9-.4,1.5.1,1.2.4,1.5c.3.4.7.6,1.1.6s.9-.2,1.1-.6c.3-.4.4-.9.4-1.5s-.1-1.2-.4-1.5c-.3-.4-.7-.6-1.1-.6ZM207.4,122.1c.8,0,1.4.3,1.8.8.4.5.7,1.2.7,2.1s-.2,1.6-.7,2.1c-.4.5-1.1.8-1.8.8s-1.4-.3-1.8-.8c-.4-.5-.7-1.2-.7-2.1s.2-1.6.7-2.1c.4-.5,1.1-.8,1.8-.8Z"/>
                <path id="DejaVuSans-672" data-name="DejaVuSans-67" d="M215,124.9c0-.7-.1-1.2-.4-1.5-.3-.4-.6-.5-1.1-.5s-.9.2-1.1.5c-.3.4-.4.9-.4,1.5s.1,1.2.4,1.5c.3.4.6.5,1.1.5s.9-.2,1.1-.5c.3-.4.4-.9.4-1.5ZM215.9,127c0,.9-.2,1.6-.6,2.1-.4.5-1,.7-1.9.7s-.6,0-.9,0-.6-.1-.8-.2v-.9c.3.1.5.2.8.3.3,0,.5.1.8.1.6,0,1-.2,1.3-.5.3-.3.4-.8.4-1.4v-.4c-.2.3-.4.6-.7.7s-.6.2-1,.2c-.7,0-1.2-.3-1.6-.8-.4-.5-.6-1.2-.6-2s.2-1.5.6-2c.4-.5,1-.8,1.6-.8s.8,0,1,.2.5.4.7.7v-.8h.9v4.8Z"/>
                <path id="DejaVuSans-6e6" data-name="DejaVuSans-6e" d="M222.3,124.4v3.3h-.9v-3.3c0-.5-.1-.9-.3-1.2-.2-.3-.5-.4-.9-.4s-.9.2-1.1.5c-.3.3-.4.7-.4,1.3v3.1h-.9v-5.5h.9v.9c.2-.3.5-.6.8-.7.3-.2.6-.2,1-.2.6,0,1.1.2,1.4.6.3.4.5,1,.5,1.7Z"/>
                <path id="DejaVuSans-699" data-name="DejaVuSans-69" d="M224.1,122.2h.9v5.5h-.9v-5.5ZM224.1,120.1h.9v1.1h-.9v-1.1Z"/>
                <path id="DejaVuSans-747" data-name="DejaVuSans-74" d="M227.8,120.6v1.6h1.9v.7h-1.9v3c0,.4,0,.7.2.9s.4.2.7.2h.9v.8h-.9c-.7,0-1.2-.1-1.4-.4-.3-.3-.4-.7-.4-1.4v-3h-.7v-.7h.7v-1.6h.9Z"/>
                <path id="DejaVuSans-6910" data-name="DejaVuSans-69" d="M230.8,122.2h.9v5.5h-.9v-5.5ZM230.8,120.1h.9v1.1h-.9v-1.1Z"/>
                <path id="DejaVuSans-6f3" data-name="DejaVuSans-6f" d="M235.7,122.8c-.5,0-.9.2-1.1.6s-.4.9-.4,1.5.1,1.2.4,1.5c.3.4.7.6,1.1.6s.9-.2,1.1-.6c.3-.4.4-.9.4-1.5s-.1-1.2-.4-1.5c-.3-.4-.7-.6-1.1-.6ZM235.7,122.1c.8,0,1.4.3,1.8.8.4.5.7,1.2.7,2.1s-.2,1.6-.7,2.1c-.4.5-1.1.8-1.8.8s-1.4-.3-1.8-.8c-.4-.5-.7-1.2-.7-2.1s.2-1.6.7-2.1c.4-.5,1.1-.8,1.8-.8Z"/>
                <path id="DejaVuSans-6e7" data-name="DejaVuSans-6e" d="M244.3,124.4v3.3h-.9v-3.3c0-.5-.1-.9-.3-1.2-.2-.3-.5-.4-.9-.4s-.9.2-1.1.5c-.3.3-.4.7-.4,1.3v3.1h-.9v-5.5h.9v.9c.2-.3.5-.6.8-.7.3-.2.6-.2,1-.2.6,0,1.1.2,1.4.6.3.4.5,1,.5,1.7Z"/>
              </g>
            </g>
          </g>
          <g id="xtick_4">
            <g id="line2d_4">
              <g class="st22">
                <path class="st1" d="M286,298.2l-152.7-73.5"/>
              </g>
            </g>
            <g id="text_4">
              <g>
                <path id="DejaVuSans-501" data-name="DejaVuSans-50" d="M31.4,214.9v2.7h1.2c.5,0,.8-.1,1.1-.4.3-.2.4-.6.4-1s-.1-.8-.4-1c-.3-.2-.6-.4-1.1-.4h-1.2ZM30.4,214.1h2.2c.8,0,1.4.2,1.9.6.4.4.6.9.6,1.6s-.2,1.3-.6,1.6c-.4.4-1,.6-1.9.6h-1.2v2.9h-1v-7.3Z"/>
                <path id="DejaVuSans-724" data-name="DejaVuSans-72" d="M39.4,216.7c-.1,0-.2-.1-.3-.1-.1,0-.2,0-.4,0-.5,0-.9.2-1.2.5s-.4.8-.4,1.4v2.9h-.9v-5.5h.9v.9c.2-.3.4-.6.7-.7.3-.2.7-.2,1.1-.2s.1,0,.2,0c0,0,.2,0,.2,0v.9Z"/>
                <path id="DejaVuSans-6f4" data-name="DejaVuSans-6f" d="M42.2,216.5c-.5,0-.9.2-1.1.6s-.4.9-.4,1.5.1,1.2.4,1.5c.3.4.7.6,1.1.6s.9-.2,1.1-.6c.3-.4.4-.9.4-1.5s-.1-1.2-.4-1.5c-.3-.4-.7-.6-1.1-.6ZM42.2,215.7c.8,0,1.4.3,1.8.8.4.5.7,1.2.7,2.1s-.2,1.6-.7,2.1c-.4.5-1.1.8-1.8.8s-1.4-.3-1.8-.8c-.4-.5-.7-1.2-.7-2.1s.2-1.6.7-2.1c.4-.5,1.1-.8,1.8-.8Z"/>
                <path id="DejaVuSans-734" data-name="DejaVuSans-73" d="M49.7,216v.9c-.3-.1-.5-.2-.8-.3-.3,0-.6,0-.9,0-.4,0-.8,0-1,.2-.2.1-.3.3-.3.6s0,.4.2.5.5.2,1,.3h.3c.6.2,1.1.4,1.4.6s.4.6.4,1-.2.9-.6,1.2c-.4.3-1,.4-1.7.4s-.6,0-.9,0c-.3,0-.7-.1-1-.3v-.9c.3.2.7.3,1,.4.3,0,.6.1,1,.1s.7,0,1-.2c.2-.1.3-.3.3-.6s0-.4-.2-.6c-.2-.1-.5-.3-1.1-.4h-.3c-.6-.2-1-.4-1.2-.6-.2-.2-.4-.6-.4-1s.2-.9.5-1.2c.4-.3.9-.4,1.6-.4s.6,0,.9,0c.3,0,.6.1.8.2Z"/>
                <path id="DejaVuSans-6f5" data-name="DejaVuSans-6f" d="M53.6,216.5c-.5,0-.9.2-1.1.6s-.4.9-.4,1.5.1,1.2.4,1.5c.3.4.7.6,1.1.6s.9-.2,1.1-.6c.3-.4.4-.9.4-1.5s-.1-1.2-.4-1.5c-.3-.4-.7-.6-1.1-.6ZM53.6,215.7c.8,0,1.4.3,1.8.8.4.5.7,1.2.7,2.1s-.2,1.6-.7,2.1c-.4.5-1.1.8-1.8.8s-1.4-.3-1.8-.8c-.4-.5-.7-1.2-.7-2.1s.2-1.6.7-2.1c.4-.5,1.1-.8,1.8-.8Z"/>
                <path id="DejaVuSans-643" data-name="DejaVuSans-64" d="M61.2,216.7v-3h.9v7.6h-.9v-.8c-.2.3-.4.6-.7.7-.3.2-.6.2-1,.2-.7,0-1.2-.3-1.6-.8-.4-.5-.6-1.2-.6-2.1s.2-1.6.6-2.1c.4-.5,1-.8,1.6-.8s.8,0,1,.2c.3.2.5.4.7.7ZM58.1,218.6c0,.7.1,1.2.4,1.6.3.4.6.6,1.1.6s.8-.2,1.1-.6c.3-.4.4-.9.4-1.6s-.1-1.2-.4-1.6c-.3-.4-.6-.6-1.1-.6s-.8.2-1.1.6-.4.9-.4,1.6Z"/>
                <path id="DejaVuSans-791" data-name="DejaVuSans-79" d="M66.2,221.9c-.3.7-.5,1.1-.7,1.3-.2.2-.6.3-1,.3h-.7v-.8h.5c.2,0,.4,0,.6-.2.1-.1.3-.4.5-.8l.2-.4-2.2-5.4h1l1.7,4.3,1.7-4.3h1l-2.4,6Z"/>
                <path id="DejaVuSans-206" data-name="DejaVuSans-20" d="M68.9,221.3"/>
                <path id="DejaVuSans-44" d="M74,214.9v5.7h1.2c1,0,1.7-.2,2.2-.7.5-.5.7-1.2.7-2.2s-.2-1.7-.7-2.1-1.2-.7-2.2-.7h-1.2ZM73,214.1h2c1.4,0,2.4.3,3.1.9.7.6,1,1.5,1,2.8s-.3,2.2-1,2.8c-.7.6-1.7.9-3.1.9h-2v-7.3Z"/>
                <path id="DejaVuSans-659" data-name="DejaVuSans-65" d="M85.4,218.4v.4h-4.1c0,.6.2,1.1.6,1.4.3.3.8.5,1.4.5s.7,0,1-.1.6-.2,1-.4v.9c-.3.1-.7.2-1,.3s-.7.1-1,.1c-.9,0-1.6-.3-2.1-.8-.5-.5-.8-1.2-.8-2.1s.2-1.6.7-2.1c.5-.5,1.1-.8,2-.8s1.3.2,1.7.7c.4.5.6,1.1.6,1.9ZM84.5,218.1c0-.5-.1-.9-.4-1.2-.3-.3-.6-.4-1.1-.4s-.9.1-1.2.4-.5.7-.5,1.2h3.2Z"/>
                <path id="DejaVuSans-748" data-name="DejaVuSans-74" d="M87.7,214.3v1.6h1.9v.7h-1.9v3c0,.4,0,.7.2.9s.4.2.7.2h.9v.8h-.9c-.7,0-1.2-.1-1.4-.4-.3-.3-.4-.7-.4-1.4v-3h-.7v-.7h.7v-1.6h.9Z"/>
                <path id="DejaVuSans-6510" data-name="DejaVuSans-65" d="M95.5,218.4v.4h-4.1c0,.6.2,1.1.6,1.4.3.3.8.5,1.4.5s.7,0,1-.1.6-.2,1-.4v.9c-.3.1-.7.2-1,.3s-.7.1-1,.1c-.9,0-1.6-.3-2.1-.8-.5-.5-.8-1.2-.8-2.1s.2-1.6.7-2.1c.5-.5,1.1-.8,2-.8s1.3.2,1.7.7c.4.5.6,1.1.6,1.9ZM94.6,218.1c0-.5-.1-.9-.4-1.2-.3-.3-.6-.4-1.1-.4s-.9.1-1.2.4-.5.7-.5,1.2h3.2Z"/>
                <path id="DejaVuSans-636" data-name="DejaVuSans-63" d="M100.9,216.1v.8c-.3-.1-.5-.2-.8-.3s-.5-.1-.8-.1c-.6,0-1,.2-1.4.6-.3.4-.5.9-.5,1.6s.2,1.2.5,1.6c.3.4.8.6,1.4.6s.5,0,.8-.1.5-.2.8-.3v.8c-.3.1-.5.2-.8.3-.3,0-.6,0-.9,0-.8,0-1.5-.3-2-.8-.5-.5-.7-1.2-.7-2.1s.2-1.6.7-2.1c.5-.5,1.2-.8,2-.8s.5,0,.8,0c.3,0,.5.1.8.3Z"/>
                <path id="DejaVuSans-749" data-name="DejaVuSans-74" d="M103.3,214.3v1.6h1.9v.7h-1.9v3c0,.4,0,.7.2.9s.4.2.7.2h.9v.8h-.9c-.7,0-1.2-.1-1.4-.4-.3-.3-.4-.7-.4-1.4v-3h-.7v-.7h.7v-1.6h.9Z"/>
                <path id="DejaVuSans-6911" data-name="DejaVuSans-69" d="M106.3,215.9h.9v5.5h-.9v-5.5ZM106.3,213.7h.9v1.1h-.9v-1.1Z"/>
                <path id="DejaVuSans-6f6" data-name="DejaVuSans-6f" d="M111.2,216.5c-.5,0-.9.2-1.1.6s-.4.9-.4,1.5.1,1.2.4,1.5c.3.4.7.6,1.1.6s.9-.2,1.1-.6c.3-.4.4-.9.4-1.5s-.1-1.2-.4-1.5c-.3-.4-.7-.6-1.1-.6ZM111.2,215.7c.8,0,1.4.3,1.8.8.4.5.7,1.2.7,2.1s-.2,1.6-.7,2.1c-.4.5-1.1.8-1.8.8s-1.4-.3-1.8-.8c-.4-.5-.7-1.2-.7-2.1s.2-1.6.7-2.1c.4-.5,1.1-.8,1.8-.8Z"/>
                <path id="DejaVuSans-6e8" data-name="DejaVuSans-6e" d="M119.8,218v3.3h-.9v-3.3c0-.5-.1-.9-.3-1.2-.2-.3-.5-.4-.9-.4s-.9.2-1.1.5c-.3.3-.4.7-.4,1.3v3.1h-.9v-5.5h.9v.9c.2-.3.5-.6.8-.7.3-.2.6-.2,1-.2.6,0,1.1.2,1.4.6.3.4.5,1,.5,1.7Z"/>
              </g>
            </g>
          </g>
          <g id="xtick_5">
            <g id="line2d_5">
              <g class="st25">
                <path class="st1" d="M286,298.2l-152.7,73.5"/>
              </g>
            </g>
            <g id="text_5">
              <g>
                <path id="DejaVuSans-53" d="M9.7,373.5v1c-.4-.2-.7-.3-1.1-.4-.3,0-.7-.1-1-.1-.5,0-1,.1-1.2.3-.3.2-.4.5-.4.9s0,.6.3.7c.2.2.6.3,1.1.4h.6c.7.3,1.3.5,1.6.9s.5.8.5,1.4-.2,1.2-.7,1.6c-.5.4-1.2.5-2.1.5s-.7,0-1.1-.1c-.4,0-.8-.2-1.2-.3v-1c.4.2.8.4,1.2.5.4.1.8.2,1.1.2.6,0,1-.1,1.3-.3.3-.2.5-.5.5-.9s-.1-.6-.3-.8-.6-.4-1.1-.5h-.6c-.7-.3-1.3-.5-1.6-.8-.3-.3-.5-.7-.5-1.3s.2-1.2.7-1.5c.5-.4,1.1-.6,1.9-.6s.7,0,1,0c.4,0,.7.2,1.1.3Z"/>
                <path id="DejaVuSans-70" d="M12.5,379.7v2.9h-.9v-7.5h.9v.8c.2-.3.4-.6.7-.7.3-.2.6-.2,1-.2.7,0,1.2.3,1.6.8.4.5.6,1.2.6,2.1s-.2,1.6-.6,2.1c-.4.5-1,.8-1.6.8s-.7,0-1-.2c-.3-.2-.5-.4-.7-.7ZM15.5,377.8c0-.7-.1-1.2-.4-1.6s-.6-.6-1.1-.6-.9.2-1.1.6-.4.9-.4,1.6.1,1.2.4,1.6c.3.4.6.6,1.1.6s.8-.2,1.1-.6c.3-.4.4-.9.4-1.6Z"/>
                <path id="DejaVuSans-6511" data-name="DejaVuSans-65" d="M22.6,377.6v.4h-4.1c0,.6.2,1.1.6,1.4.3.3.8.5,1.4.5s.7,0,1-.1.6-.2,1-.4v.9c-.3.1-.7.2-1,.3s-.7.1-1,.1c-.9,0-1.6-.3-2.1-.8-.5-.5-.8-1.2-.8-2.1s.2-1.6.7-2.1c.5-.5,1.1-.8,2-.8s1.3.2,1.7.7c.4.5.6,1.1.6,1.9ZM21.7,377.3c0-.5-.1-.9-.4-1.2-.3-.3-.6-.4-1.1-.4s-.9.1-1.2.4-.5.7-.5,1.2h3.2Z"/>
                <path id="DejaVuSans-6111" data-name="DejaVuSans-61" d="M26.6,377.8c-.7,0-1.2,0-1.5.2s-.4.4-.4.9.1.6.3.8c.2.2.5.3.9.3s.9-.2,1.2-.5.5-.8.5-1.4v-.2h-.9ZM28.4,377.4v3.1h-.9v-.8c-.2.3-.5.6-.8.7-.3.2-.7.2-1.1.2s-1-.2-1.3-.5c-.3-.3-.5-.7-.5-1.3s.2-1.1.6-1.4c.4-.3,1-.5,1.8-.5h1.3c0-.5-.1-.8-.4-1s-.7-.3-1.1-.3-.6,0-.9.1c-.3,0-.6.2-.9.3v-.8c.3-.1.6-.2,1-.3.3,0,.6,0,.9,0,.8,0,1.4.2,1.8.6.4.4.6,1,.6,1.9Z"/>
                <path id="DejaVuSans-6b" d="M30.2,373h.9v4.5l2.7-2.4h1.1l-2.9,2.6,3,2.9h-1.2l-2.8-2.7v2.7h-.9v-7.6Z"/>
                <path id="DejaVuSans-6512" data-name="DejaVuSans-65" d="M40.3,377.6v.4h-4.1c0,.6.2,1.1.6,1.4.3.3.8.5,1.4.5s.7,0,1-.1.6-.2,1-.4v.9c-.3.1-.7.2-1,.3s-.7.1-1,.1c-.9,0-1.6-.3-2.1-.8-.5-.5-.8-1.2-.8-2.1s.2-1.6.7-2.1c.5-.5,1.1-.8,2-.8s1.3.2,1.7.7c.4.5.6,1.1.6,1.9ZM39.4,377.3c0-.5-.1-.9-.4-1.2-.3-.3-.6-.4-1.1-.4s-.9.1-1.2.4-.5.7-.5,1.2h3.2Z"/>
                <path id="DejaVuSans-725" data-name="DejaVuSans-72" d="M45,375.9c-.1,0-.2-.1-.3-.1-.1,0-.2,0-.4,0-.5,0-.9.2-1.2.5s-.4.8-.4,1.4v2.9h-.9v-5.5h.9v.9c.2-.3.4-.6.7-.7.3-.2.7-.2,1.1-.2s.1,0,.2,0c0,0,.2,0,.2,0v.9Z"/>
                <path id="DejaVuSans-207" data-name="DejaVuSans-20" d="M45,380.6"/>
                <path id="DejaVuSans-441" data-name="DejaVuSans-44" d="M50.1,374.1v5.7h1.2c1,0,1.7-.2,2.2-.7.5-.5.7-1.2.7-2.2s-.2-1.7-.7-2.1-1.2-.7-2.2-.7h-1.2ZM49.2,373.3h2c1.4,0,2.4.3,3.1.9.7.6,1,1.5,1,2.8s-.3,2.2-1,2.8c-.7.6-1.7.9-3.1.9h-2v-7.3Z"/>
                <path id="DejaVuSans-6513" data-name="DejaVuSans-65" d="M61.5,377.6v.4h-4.1c0,.6.2,1.1.6,1.4.3.3.8.5,1.4.5s.7,0,1-.1.6-.2,1-.4v.9c-.3.1-.7.2-1,.3s-.7.1-1,.1c-.9,0-1.6-.3-2.1-.8-.5-.5-.8-1.2-.8-2.1s.2-1.6.7-2.1c.5-.5,1.1-.8,2-.8s1.3.2,1.7.7c.4.5.6,1.1.6,1.9ZM60.6,377.3c0-.5-.1-.9-.4-1.2-.3-.3-.6-.4-1.1-.4s-.9.1-1.2.4-.5.7-.5,1.2h3.2Z"/>
                <path id="DejaVuSans-6d" d="M67.2,376.1c.2-.4.5-.7.8-.9s.7-.3,1.1-.3,1,.2,1.3.6c.3.4.5,1,.5,1.7v3.3h-.9v-3.3c0-.5,0-.9-.3-1.2-.2-.3-.5-.4-.8-.4s-.8.2-1.1.5c-.3.3-.4.7-.4,1.3v3.1h-.9v-3.3c0-.5,0-.9-.3-1.2s-.5-.4-.9-.4-.8.2-1.1.5c-.3.3-.4.7-.4,1.3v3.1h-.9v-5.5h.9v.9c.2-.3.5-.6.7-.7s.6-.2,1-.2.7.1,1,.3c.3.2.5.5.6.9Z"/>
                <path id="DejaVuSans-6f7" data-name="DejaVuSans-6f" d="M74.8,375.7c-.5,0-.9.2-1.1.6s-.4.9-.4,1.5.1,1.2.4,1.5c.3.4.7.6,1.1.6s.9-.2,1.1-.6c.3-.4.4-.9.4-1.5s-.1-1.2-.4-1.5c-.3-.4-.7-.6-1.1-.6ZM74.8,375c.8,0,1.4.3,1.8.8.4.5.7,1.2.7,2.1s-.2,1.6-.7,2.1c-.4.5-1.1.8-1.8.8s-1.4-.3-1.8-.8c-.4-.5-.7-1.2-.7-2.1s.2-1.6.7-2.1c.4-.5,1.1-.8,1.8-.8Z"/>
                <path id="DejaVuSans-673" data-name="DejaVuSans-67" d="M82.4,377.8c0-.7-.1-1.2-.4-1.5-.3-.4-.6-.5-1.1-.5s-.9.2-1.1.5c-.3.4-.4.9-.4,1.5s.1,1.2.4,1.5c.3.4.6.5,1.1.5s.9-.2,1.1-.5c.3-.4.4-.9.4-1.5ZM83.3,379.9c0,.9-.2,1.6-.6,2.1-.4.5-1,.7-1.9.7s-.6,0-.9,0-.6-.1-.8-.2v-.9c.3.1.5.2.8.3.3,0,.5.1.8.1.6,0,1-.2,1.3-.5.3-.3.4-.8.4-1.4v-.4c-.2.3-.4.6-.7.7s-.6.2-1,.2c-.7,0-1.2-.3-1.6-.8-.4-.5-.6-1.2-.6-2s.2-1.5.6-2c.4-.5,1-.8,1.6-.8s.8,0,1,.2.5.4.7.7v-.8h.9v4.8Z"/>
                <path id="DejaVuSans-726" data-name="DejaVuSans-72" d="M88.3,375.9c-.1,0-.2-.1-.3-.1-.1,0-.2,0-.4,0-.5,0-.9.2-1.2.5s-.4.8-.4,1.4v2.9h-.9v-5.5h.9v.9c.2-.3.4-.6.7-.7.3-.2.7-.2,1.1-.2s.1,0,.2,0c0,0,.2,0,.2,0v.9Z"/>
                <path id="DejaVuSans-6112" data-name="DejaVuSans-61" d="M91.8,377.8c-.7,0-1.2,0-1.5.2s-.4.4-.4.9.1.6.3.8c.2.2.5.3.9.3s.9-.2,1.2-.5.5-.8.5-1.4v-.2h-.9ZM93.6,377.4v3.1h-.9v-.8c-.2.3-.5.6-.8.7-.3.2-.7.2-1.1.2s-1-.2-1.3-.5c-.3-.3-.5-.7-.5-1.3s.2-1.1.6-1.4c.4-.3,1-.5,1.8-.5h1.3c0-.5-.1-.8-.4-1s-.7-.3-1.1-.3-.6,0-.9.1c-.3,0-.6.2-.9.3v-.8c.3-.1.6-.2,1-.3.3,0,.6,0,.9,0,.8,0,1.4.2,1.8.6.4.4.6,1,.6,1.9Z"/>
                <path id="DejaVuSans-701" data-name="DejaVuSans-70" d="M96.3,379.7v2.9h-.9v-7.5h.9v.8c.2-.3.4-.6.7-.7.3-.2.6-.2,1-.2.7,0,1.2.3,1.6.8.4.5.6,1.2.6,2.1s-.2,1.6-.6,2.1c-.4.5-1,.8-1.6.8s-.7,0-1-.2c-.3-.2-.5-.4-.7-.7ZM99.3,377.8c0-.7-.1-1.2-.4-1.6s-.6-.6-1.1-.6-.9.2-1.1.6-.4.9-.4,1.6.1,1.2.4,1.6c.3.4.6.6,1.1.6s.8-.2,1.1-.6c.3-.4.4-.9.4-1.6Z"/>
                <path id="DejaVuSans-683" data-name="DejaVuSans-68" d="M106.3,377.3v3.3h-.9v-3.3c0-.5-.1-.9-.3-1.2-.2-.3-.5-.4-.9-.4s-.9.2-1.1.5c-.3.3-.4.7-.4,1.3v3.1h-.9v-7.6h.9v3c.2-.3.5-.6.8-.7.3-.2.6-.2,1-.2.6,0,1.1.2,1.4.6.3.4.5,1,.5,1.7Z"/>
                <path id="DejaVuSans-6912" data-name="DejaVuSans-69" d="M108.1,375.1h.9v5.5h-.9v-5.5ZM108.1,373h.9v1.1h-.9v-1.1Z"/>
                <path id="DejaVuSans-637" data-name="DejaVuSans-63" d="M114.8,375.3v.8c-.3-.1-.5-.2-.8-.3s-.5-.1-.8-.1c-.6,0-1,.2-1.4.6-.3.4-.5.9-.5,1.6s.2,1.2.5,1.6c.3.4.8.6,1.4.6s.5,0,.8-.1.5-.2.8-.3v.8c-.3.1-.5.2-.8.3-.3,0-.6,0-.9,0-.8,0-1.5-.3-2-.8-.5-.5-.7-1.2-.7-2.1s.2-1.6.7-2.1c.5-.5,1.2-.8,2-.8s.5,0,.8,0c.3,0,.5.1.8.3Z"/>
                <path id="DejaVuSans-735" data-name="DejaVuSans-73" d="M119.9,375.3v.9c-.3-.1-.5-.2-.8-.3-.3,0-.6,0-.9,0-.4,0-.8,0-1,.2-.2.1-.3.3-.3.6s0,.4.2.5.5.2,1,.3h.3c.6.2,1.1.4,1.4.6s.4.6.4,1-.2.9-.6,1.2c-.4.3-1,.4-1.7.4s-.6,0-.9,0c-.3,0-.7-.1-1-.3v-.9c.3.2.7.3,1,.4.3,0,.6.1,1,.1s.7,0,1-.2c.2-.1.3-.3.3-.6s0-.4-.2-.6c-.2-.1-.5-.3-1.1-.4h-.3c-.6-.2-1-.4-1.2-.6-.2-.2-.4-.6-.4-1s.2-.9.5-1.2c.4-.3.9-.4,1.6-.4s.6,0,.9,0c.3,0,.6.1.8.2Z"/>
              </g>
            </g>
          </g>
          <g id="xtick_6">
            <g id="line2d_6">
              <g class="st24">
                <path class="st1" d="M286,298.2l-37.7,165.2"/>
              </g>
            </g>
            <g id="text_6">
              <g>
                <path id="DejaVuSans-531" data-name="DejaVuSans-53" d="M209.8,467.2v1c-.4-.2-.7-.3-1.1-.4-.3,0-.7-.1-1-.1-.5,0-1,.1-1.2.3-.3.2-.4.5-.4.9s0,.6.3.7c.2.2.6.3,1.1.4h.6c.7.3,1.3.5,1.6.9s.5.8.5,1.4-.2,1.2-.7,1.6c-.5.4-1.2.5-2.1.5s-.7,0-1.1-.1c-.4,0-.8-.2-1.2-.3v-1c.4.2.8.4,1.2.5.4.1.8.2,1.1.2.6,0,1-.1,1.3-.3.3-.2.5-.5.5-.9s-.1-.6-.3-.8-.6-.4-1.1-.5h-.6c-.7-.3-1.3-.5-1.6-.8-.3-.3-.5-.7-.5-1.3s.2-1.2.7-1.5c.5-.4,1.1-.6,1.9-.6s.7,0,1,0c.4,0,.7.2,1.1.3Z"/>
                <path id="DejaVuSans-702" data-name="DejaVuSans-70" d="M212.6,473.4v2.9h-.9v-7.5h.9v.8c.2-.3.4-.6.7-.7.3-.2.6-.2,1-.2.7,0,1.2.3,1.6.8.4.5.6,1.2.6,2.1s-.2,1.6-.6,2.1c-.4.5-1,.8-1.6.8s-.7,0-1-.2c-.3-.2-.5-.4-.7-.7ZM215.7,471.5c0-.7-.1-1.2-.4-1.6s-.6-.6-1.1-.6-.9.2-1.1.6-.4.9-.4,1.6.1,1.2.4,1.6c.3.4.6.6,1.1.6s.8-.2,1.1-.6c.3-.4.4-.9.4-1.6Z"/>
                <path id="DejaVuSans-6514" data-name="DejaVuSans-65" d="M222.8,471.3v.4h-4.1c0,.6.2,1.1.6,1.4.3.3.8.5,1.4.5s.7,0,1-.1.6-.2,1-.4v.9c-.3.1-.7.2-1,.3s-.7.1-1,.1c-.9,0-1.6-.3-2.1-.8-.5-.5-.8-1.2-.8-2.1s.2-1.6.7-2.1c.5-.5,1.1-.8,2-.8s1.3.2,1.7.7c.4.5.6,1.1.6,1.9ZM221.9,471c0-.5-.1-.9-.4-1.2-.3-.3-.6-.4-1.1-.4s-.9.1-1.2.4-.5.7-.5,1.2h3.2Z"/>
                <path id="DejaVuSans-6113" data-name="DejaVuSans-61" d="M226.7,471.5c-.7,0-1.2,0-1.5.2s-.4.4-.4.9.1.6.3.8c.2.2.5.3.9.3s.9-.2,1.2-.5.5-.8.5-1.4v-.2h-.9ZM228.5,471.1v3.1h-.9v-.8c-.2.3-.5.6-.8.7-.3.2-.7.2-1.1.2s-1-.2-1.3-.5c-.3-.3-.5-.7-.5-1.3s.2-1.1.6-1.4c.4-.3,1-.5,1.8-.5h1.3c0-.5-.1-.8-.4-1s-.7-.3-1.1-.3-.6,0-.9.1c-.3,0-.6.2-.9.3v-.8c.3-.1.6-.2,1-.3.3,0,.6,0,.9,0,.8,0,1.4.2,1.8.6.4.4.6,1,.6,1.9Z"/>
                <path id="DejaVuSans-6b1" data-name="DejaVuSans-6b" d="M230.3,466.6h.9v4.5l2.7-2.4h1.1l-2.9,2.6,3,2.9h-1.2l-2.8-2.7v2.7h-.9v-7.6Z"/>
                <path id="DejaVuSans-6515" data-name="DejaVuSans-65" d="M240.5,471.3v.4h-4.1c0,.6.2,1.1.6,1.4.3.3.8.5,1.4.5s.7,0,1-.1.6-.2,1-.4v.9c-.3.1-.7.2-1,.3s-.7.1-1,.1c-.9,0-1.6-.3-2.1-.8-.5-.5-.8-1.2-.8-2.1s.2-1.6.7-2.1c.5-.5,1.1-.8,2-.8s1.3.2,1.7.7c.4.5.6,1.1.6,1.9ZM239.6,471c0-.5-.1-.9-.4-1.2-.3-.3-.6-.4-1.1-.4s-.9.1-1.2.4-.5.7-.5,1.2h3.2Z"/>
                <path id="DejaVuSans-727" data-name="DejaVuSans-72" d="M245.1,469.6c-.1,0-.2-.1-.3-.1-.1,0-.2,0-.4,0-.5,0-.9.2-1.2.5s-.4.8-.4,1.4v2.9h-.9v-5.5h.9v.9c.2-.3.4-.6.7-.7.3-.2.7-.2,1.1-.2s.1,0,.2,0c0,0,.2,0,.2,0v.9Z"/>
              </g>
              <g>
                <path id="DejaVuSans-491" data-name="DejaVuSans-49" d="M180.5,478.1h1v7.3h-1v-7.3Z"/>
                <path id="DejaVuSans-644" data-name="DejaVuSans-64" d="M187,480.8v-3h.9v7.6h-.9v-.8c-.2.3-.4.6-.7.7-.3.2-.6.2-1,.2-.7,0-1.2-.3-1.6-.8-.4-.5-.6-1.2-.6-2.1s.2-1.6.6-2.1c.4-.5,1-.8,1.6-.8s.8,0,1,.2c.3.2.5.4.7.7ZM184,482.7c0,.7.1,1.2.4,1.6.3.4.6.6,1.1.6s.8-.2,1.1-.6c.3-.4.4-.9.4-1.6s-.1-1.2-.4-1.6c-.3-.4-.6-.6-1.1-.6s-.8.2-1.1.6-.4.9-.4,1.6Z"/>
                <path id="DejaVuSans-6516" data-name="DejaVuSans-65" d="M194.5,482.5v.4h-4.1c0,.6.2,1.1.6,1.4.3.3.8.5,1.4.5s.7,0,1-.1.6-.2,1-.4v.9c-.3.1-.7.2-1,.3s-.7.1-1,.1c-.9,0-1.6-.3-2.1-.8-.5-.5-.8-1.2-.8-2.1s.2-1.6.7-2.1c.5-.5,1.1-.8,2-.8s1.3.2,1.7.7c.4.5.6,1.1.6,1.9ZM193.6,482.2c0-.5-.1-.9-.4-1.2-.3-.3-.6-.4-1.1-.4s-.9.1-1.2.4-.5.7-.5,1.2h3.2Z"/>
                <path id="DejaVuSans-6e9" data-name="DejaVuSans-6e" d="M200.5,482.1v3.3h-.9v-3.3c0-.5-.1-.9-.3-1.2-.2-.3-.5-.4-.9-.4s-.9.2-1.1.5c-.3.3-.4.7-.4,1.3v3.1h-.9v-5.5h.9v.9c.2-.3.5-.6.8-.7.3-.2.6-.2,1-.2.6,0,1.1.2,1.4.6.3.4.5,1,.5,1.7Z"/>
                <path id="DejaVuSans-7410" data-name="DejaVuSans-74" d="M203.2,478.4v1.6h1.9v.7h-1.9v3c0,.4,0,.7.2.9s.4.2.7.2h.9v.8h-.9c-.7,0-1.2-.1-1.4-.4-.3-.3-.4-.7-.4-1.4v-3h-.7v-.7h.7v-1.6h.9Z"/>
                <path id="DejaVuSans-6913" data-name="DejaVuSans-69" d="M206.2,480h.9v5.5h-.9v-5.5ZM206.2,477.8h.9v1.1h-.9v-1.1Z"/>
                <path id="DejaVuSans-662" data-name="DejaVuSans-66" d="M211.8,477.8v.7h-.9c-.3,0-.5,0-.7.2-.1.1-.2.4-.2.7v.5h1.5v.7h-1.5v4.8h-.9v-4.8h-.9v-.7h.9v-.4c0-.6.1-1.1.4-1.3.3-.3.7-.4,1.3-.4h.9Z"/>
                <path id="DejaVuSans-6914" data-name="DejaVuSans-69" d="M212.5,480h.9v5.5h-.9v-5.5ZM212.5,477.8h.9v1.1h-.9v-1.1Z"/>
                <path id="DejaVuSans-638" data-name="DejaVuSans-63" d="M219.2,480.2v.8c-.3-.1-.5-.2-.8-.3s-.5-.1-.8-.1c-.6,0-1,.2-1.4.6-.3.4-.5.9-.5,1.6s.2,1.2.5,1.6c.3.4.8.6,1.4.6s.5,0,.8-.1.5-.2.8-.3v.8c-.3.1-.5.2-.8.3-.3,0-.6,0-.9,0-.8,0-1.5-.3-2-.8-.5-.5-.7-1.2-.7-2.1s.2-1.6.7-2.1c.5-.5,1.2-.8,2-.8s.5,0,.8,0c.3,0,.5.1.8.3Z"/>
                <path id="DejaVuSans-6114" data-name="DejaVuSans-61" d="M223.3,482.7c-.7,0-1.2,0-1.5.2s-.4.4-.4.9.1.6.3.8c.2.2.5.3.9.3s.9-.2,1.2-.5.5-.8.5-1.4v-.2h-.9ZM225.1,482.3v3.1h-.9v-.8c-.2.3-.5.6-.8.7-.3.2-.7.2-1.1.2s-1-.2-1.3-.5c-.3-.3-.5-.7-.5-1.3s.2-1.1.6-1.4c.4-.3,1-.5,1.8-.5h1.3c0-.5-.1-.8-.4-1s-.7-.3-1.1-.3-.6,0-.9.1c-.3,0-.6.2-.9.3v-.8c.3-.1.6-.2,1-.3.3,0,.6,0,.9,0,.8,0,1.4.2,1.8.6.4.4.6,1,.6,1.9Z"/>
                <path id="DejaVuSans-7411" data-name="DejaVuSans-74" d="M227.8,478.4v1.6h1.9v.7h-1.9v3c0,.4,0,.7.2.9s.4.2.7.2h.9v.8h-.9c-.7,0-1.2-.1-1.4-.4-.3-.3-.4-.7-.4-1.4v-3h-.7v-.7h.7v-1.6h.9Z"/>
                <path id="DejaVuSans-6915" data-name="DejaVuSans-69" d="M230.8,480h.9v5.5h-.9v-5.5ZM230.8,477.8h.9v1.1h-.9v-1.1Z"/>
                <path id="DejaVuSans-6f8" data-name="DejaVuSans-6f" d="M235.7,480.6c-.5,0-.9.2-1.1.6s-.4.9-.4,1.5.1,1.2.4,1.5c.3.4.7.6,1.1.6s.9-.2,1.1-.6c.3-.4.4-.9.4-1.5s-.1-1.2-.4-1.5c-.3-.4-.7-.6-1.1-.6ZM235.7,479.8c.8,0,1.4.3,1.8.8.4.5.7,1.2.7,2.1s-.2,1.6-.7,2.1c-.4.5-1.1.8-1.8.8s-1.4-.3-1.8-.8c-.4-.5-.7-1.2-.7-2.1s.2-1.6.7-2.1c.4-.5,1.1-.8,1.8-.8Z"/>
                <path id="DejaVuSans-6e10" data-name="DejaVuSans-6e" d="M244.3,482.1v3.3h-.9v-3.3c0-.5-.1-.9-.3-1.2-.2-.3-.5-.4-.9-.4s-.9.2-1.1.5c-.3.3-.4.7-.4,1.3v3.1h-.9v-5.5h.9v.9c.2-.3.5-.6.8-.7.3-.2.6-.2,1-.2.6,0,1.1.2,1.4.6.3.4.5,1,.5,1.7Z"/>
              </g>
            </g>
          </g>
          <g id="xtick_7">
            <g id="line2d_7">
              <g class="st17">
                <path class="st1" d="M286,298.2l105.7,132.5"/>
              </g>
            </g>
            <g id="text_7">
              <g>
                <path id="DejaVuSans-532" data-name="DejaVuSans-53" d="M405.7,426.2v1c-.4-.2-.7-.3-1.1-.4-.3,0-.7-.1-1-.1-.5,0-1,.1-1.2.3-.3.2-.4.5-.4.9s0,.6.3.7c.2.2.6.3,1.1.4h.6c.7.3,1.3.5,1.6.9s.5.8.5,1.4-.2,1.2-.7,1.6c-.5.4-1.2.5-2.1.5s-.7,0-1.1-.1c-.4,0-.8-.2-1.2-.3v-1c.4.2.8.4,1.2.5.4.1.8.2,1.1.2.6,0,1-.1,1.3-.3.3-.2.5-.5.5-.9s-.1-.6-.3-.8-.6-.4-1.1-.5h-.6c-.7-.3-1.3-.5-1.6-.8-.3-.3-.5-.7-.5-1.3s.2-1.2.7-1.5c.5-.4,1.1-.6,1.9-.6s.7,0,1,0c.4,0,.7.2,1.1.3Z"/>
                <path id="DejaVuSans-703" data-name="DejaVuSans-70" d="M408.5,432.4v2.9h-.9v-7.5h.9v.8c.2-.3.4-.6.7-.7.3-.2.6-.2,1-.2.7,0,1.2.3,1.6.8.4.5.6,1.2.6,2.1s-.2,1.6-.6,2.1c-.4.5-1,.8-1.6.8s-.7,0-1-.2c-.3-.2-.5-.4-.7-.7ZM411.6,430.5c0-.7-.1-1.2-.4-1.6s-.6-.6-1.1-.6-.9.2-1.1.6-.4.9-.4,1.6.1,1.2.4,1.6c.3.4.6.6,1.1.6s.8-.2,1.1-.6c.3-.4.4-.9.4-1.6Z"/>
                <path id="DejaVuSans-6517" data-name="DejaVuSans-65" d="M418.7,430.3v.4h-4.1c0,.6.2,1.1.6,1.4.3.3.8.5,1.4.5s.7,0,1-.1.6-.2,1-.4v.9c-.3.1-.7.2-1,.3s-.7.1-1,.1c-.9,0-1.6-.3-2.1-.8-.5-.5-.8-1.2-.8-2.1s.2-1.6.7-2.1c.5-.5,1.1-.8,2-.8s1.3.2,1.7.7c.4.5.6,1.1.6,1.9ZM417.8,430c0-.5-.1-.9-.4-1.2-.3-.3-.6-.4-1.1-.4s-.9.1-1.2.4-.5.7-.5,1.2h3.2Z"/>
                <path id="DejaVuSans-6518" data-name="DejaVuSans-65" d="M424.8,430.3v.4h-4.1c0,.6.2,1.1.6,1.4.3.3.8.5,1.4.5s.7,0,1-.1.6-.2,1-.4v.9c-.3.1-.7.2-1,.3s-.7.1-1,.1c-.9,0-1.6-.3-2.1-.8-.5-.5-.8-1.2-.8-2.1s.2-1.6.7-2.1c.5-.5,1.1-.8,2-.8s1.3.2,1.7.7c.4.5.6,1.1.6,1.9ZM423.9,430c0-.5-.1-.9-.4-1.2-.3-.3-.6-.4-1.1-.4s-.9.1-1.2.4-.5.7-.5,1.2h3.2Z"/>
                <path id="DejaVuSans-639" data-name="DejaVuSans-63" d="M430.2,428v.8c-.3-.1-.5-.2-.8-.3s-.5-.1-.8-.1c-.6,0-1,.2-1.4.6-.3.4-.5.9-.5,1.6s.2,1.2.5,1.6c.3.4.8.6,1.4.6s.5,0,.8-.1.5-.2.8-.3v.8c-.3.1-.5.2-.8.3-.3,0-.6,0-.9,0-.8,0-1.5-.3-2-.8-.5-.5-.7-1.2-.7-2.1s.2-1.6.7-2.1c.5-.5,1.2-.8,2-.8s.5,0,.8,0c.3,0,.5.1.8.3Z"/>
                <path id="DejaVuSans-684" data-name="DejaVuSans-68" d="M436.3,429.9v3.3h-.9v-3.3c0-.5-.1-.9-.3-1.2-.2-.3-.5-.4-.9-.4s-.9.2-1.1.5c-.3.3-.4.7-.4,1.3v3.1h-.9v-7.6h.9v3c.2-.3.5-.6.8-.7.3-.2.6-.2,1-.2.6,0,1.1.2,1.4.6.3.4.5,1,.5,1.7Z"/>
                <path id="DejaVuSans-208" data-name="DejaVuSans-20" d="M437.2,433.2"/>
                <path id="DejaVuSans-412" data-name="DejaVuSans-41" d="M443.8,426.9l-1.3,3.6h2.7l-1.3-3.6ZM443.2,425.9h1.1l2.8,7.3h-1l-.7-1.9h-3.3l-.7,1.9h-1l2.8-7.3Z"/>
                <path id="DejaVuSans-6310" data-name="DejaVuSans-63" d="M451.9,428v.8c-.3-.1-.5-.2-.8-.3s-.5-.1-.8-.1c-.6,0-1,.2-1.4.6-.3.4-.5.9-.5,1.6s.2,1.2.5,1.6c.3.4.8.6,1.4.6s.5,0,.8-.1.5-.2.8-.3v.8c-.3.1-.5.2-.8.3-.3,0-.6,0-.9,0-.8,0-1.5-.3-2-.8-.5-.5-.7-1.2-.7-2.1s.2-1.6.7-2.1c.5-.5,1.2-.8,2-.8s.5,0,.8,0c.3,0,.5.1.8.3Z"/>
                <path id="DejaVuSans-7412" data-name="DejaVuSans-74" d="M454.4,426.2v1.6h1.9v.7h-1.9v3c0,.4,0,.7.2.9s.4.2.7.2h.9v.8h-.9c-.7,0-1.2-.1-1.4-.4-.3-.3-.4-.7-.4-1.4v-3h-.7v-.7h.7v-1.6h.9Z"/>
                <path id="DejaVuSans-6916" data-name="DejaVuSans-69" d="M457.4,427.7h.9v5.5h-.9v-5.5ZM457.4,425.6h.9v1.1h-.9v-1.1Z"/>
                <path id="DejaVuSans-761" data-name="DejaVuSans-76" d="M459.5,427.7h1l1.7,4.6,1.7-4.6h1l-2.1,5.5h-1.2l-2.1-5.5Z"/>
                <path id="DejaVuSans-6917" data-name="DejaVuSans-69" d="M466.1,427.7h.9v5.5h-.9v-5.5ZM466.1,425.6h.9v1.1h-.9v-1.1Z"/>
                <path id="DejaVuSans-7413" data-name="DejaVuSans-74" d="M469.8,426.2v1.6h1.9v.7h-1.9v3c0,.4,0,.7.2.9s.4.2.7.2h.9v.8h-.9c-.7,0-1.2-.1-1.4-.4-.3-.3-.4-.7-.4-1.4v-3h-.7v-.7h.7v-1.6h.9Z"/>
                <path id="DejaVuSans-792" data-name="DejaVuSans-79" d="M475.1,433.7c-.3.7-.5,1.1-.7,1.3-.2.2-.6.3-1,.3h-.7v-.8h.5c.2,0,.4,0,.6-.2.1-.1.3-.4.5-.8l.2-.4-2.2-5.4h1l1.7,4.3,1.7-4.3h1l-2.4,6Z"/>
                <path id="DejaVuSans-2c1" data-name="DejaVuSans-2c" d="M478.9,432h1v.8l-.8,1.6h-.6l.4-1.6v-.8Z"/>
              </g>
              <g>
                <path id="DejaVuSans-54" d="M400.3,437.1h6.2v.8h-2.6v6.5h-1v-6.5h-2.6v-.8Z"/>
                <path id="DejaVuSans-753" data-name="DejaVuSans-75" d="M405.8,442.3v-3.3h.9v3.3c0,.5.1.9.3,1.2.2.3.5.4.9.4s.9-.2,1.1-.5c.3-.3.4-.7.4-1.3v-3.1h.9v5.5h-.9v-.8c-.2.3-.5.6-.8.7-.3.2-.6.2-1,.2-.6,0-1.1-.2-1.4-.6-.3-.4-.5-1-.5-1.7ZM408.1,438.8h0Z"/>
                <path id="DejaVuSans-728" data-name="DejaVuSans-72" d="M415.4,439.8c-.1,0-.2-.1-.3-.1-.1,0-.2,0-.4,0-.5,0-.9.2-1.2.5s-.4.8-.4,1.4v2.9h-.9v-5.5h.9v.9c.2-.3.4-.6.7-.7.3-.2.7-.2,1.1-.2s.1,0,.2,0c0,0,.2,0,.2,0v.9Z"/>
                <path id="DejaVuSans-6e11" data-name="DejaVuSans-6e" d="M420.7,441.1v3.3h-.9v-3.3c0-.5-.1-.9-.3-1.2-.2-.3-.5-.4-.9-.4s-.9.2-1.1.5c-.3.3-.4.7-.4,1.3v3.1h-.9v-5.5h.9v.9c.2-.3.5-.6.8-.7.3-.2.6-.2,1-.2.6,0,1.1.2,1.4.6.3.4.5,1,.5,1.7Z"/>
                <path id="DejaVuSans-2d1" data-name="DejaVuSans-2d" d="M422.1,441.3h2.6v.8h-2.6v-.8Z"/>
                <path id="DejaVuSans-541" data-name="DejaVuSans-54" d="M424.2,437.1h6.2v.8h-2.6v6.5h-1v-6.5h-2.6v-.8Z"/>
                <path id="DejaVuSans-6115" data-name="DejaVuSans-61" d="M432.1,441.7c-.7,0-1.2,0-1.5.2s-.4.4-.4.9.1.6.3.8c.2.2.5.3.9.3s.9-.2,1.2-.5.5-.8.5-1.4v-.2h-.9ZM433.9,441.3v3.1h-.9v-.8c-.2.3-.5.6-.8.7-.3.2-.7.2-1.1.2s-1-.2-1.3-.5c-.3-.3-.5-.7-.5-1.3s.2-1.1.6-1.4c.4-.3,1-.5,1.8-.5h1.3c0-.5-.1-.8-.4-1s-.7-.3-1.1-.3-.6,0-.9.1c-.3,0-.6.2-.9.3v-.8c.3-.1.6-.2,1-.3.3,0,.6,0,.9,0,.8,0,1.4.2,1.8.6.4.4.6,1,.6,1.9Z"/>
                <path id="DejaVuSans-6b2" data-name="DejaVuSans-6b" d="M435.8,436.8h.9v4.5l2.7-2.4h1.1l-2.9,2.6,3,2.9h-1.2l-2.8-2.7v2.7h-.9v-7.6Z"/>
                <path id="DejaVuSans-6918" data-name="DejaVuSans-69" d="M441.6,438.9h.9v5.5h-.9v-5.5ZM441.6,436.8h.9v1.1h-.9v-1.1Z"/>
                <path id="DejaVuSans-6e12" data-name="DejaVuSans-6e" d="M448.9,441.1v3.3h-.9v-3.3c0-.5-.1-.9-.3-1.2-.2-.3-.5-.4-.9-.4s-.9.2-1.1.5c-.3.3-.4.7-.4,1.3v3.1h-.9v-5.5h.9v.9c.2-.3.5-.6.8-.7.3-.2.6-.2,1-.2.6,0,1.1.2,1.4.6.3.4.5,1,.5,1.7Z"/>
                <path id="DejaVuSans-674" data-name="DejaVuSans-67" d="M454.3,441.6c0-.7-.1-1.2-.4-1.5-.3-.4-.6-.5-1.1-.5s-.9.2-1.1.5c-.3.4-.4.9-.4,1.5s.1,1.2.4,1.5c.3.4.6.5,1.1.5s.9-.2,1.1-.5c.3-.4.4-.9.4-1.5ZM455.2,443.7c0,.9-.2,1.6-.6,2.1-.4.5-1,.7-1.9.7s-.6,0-.9,0-.6-.1-.8-.2v-.9c.3.1.5.2.8.3.3,0,.5.1.8.1.6,0,1-.2,1.3-.5.3-.3.4-.8.4-1.4v-.4c-.2.3-.4.6-.7.7s-.6.2-1,.2c-.7,0-1.2-.3-1.6-.8-.4-.5-.6-1.2-.6-2s.2-1.5.6-2c.4-.5,1-.8,1.6-.8s.8,0,1,.2.5.4.7.7v-.8h.9v4.8Z"/>
                <path id="DejaVuSans-209" data-name="DejaVuSans-20" d="M456.1,444.4"/>
                <path id="DejaVuSans-6116" data-name="DejaVuSans-61" d="M462.7,441.7c-.7,0-1.2,0-1.5.2s-.4.4-.4.9.1.6.3.8c.2.2.5.3.9.3s.9-.2,1.2-.5.5-.8.5-1.4v-.2h-.9ZM464.5,441.3v3.1h-.9v-.8c-.2.3-.5.6-.8.7-.3.2-.7.2-1.1.2s-1-.2-1.3-.5c-.3-.3-.5-.7-.5-1.3s.2-1.1.6-1.4c.4-.3,1-.5,1.8-.5h1.3c0-.5-.1-.8-.4-1s-.7-.3-1.1-.3-.6,0-.9.1c-.3,0-.6.2-.9.3v-.8c.3-.1.6-.2,1-.3.3,0,.6,0,.9,0,.8,0,1.4.2,1.8.6.4.4.6,1,.6,1.9Z"/>
                <path id="DejaVuSans-6e13" data-name="DejaVuSans-6e" d="M470.9,441.1v3.3h-.9v-3.3c0-.5-.1-.9-.3-1.2-.2-.3-.5-.4-.9-.4s-.9.2-1.1.5c-.3.3-.4.7-.4,1.3v3.1h-.9v-5.5h.9v.9c.2-.3.5-.6.8-.7.3-.2.6-.2,1-.2.6,0,1.1.2,1.4.6.3.4.5,1,.5,1.7Z"/>
                <path id="DejaVuSans-645" data-name="DejaVuSans-64" d="M476.3,439.8v-3h.9v7.6h-.9v-.8c-.2.3-.4.6-.7.7-.3.2-.6.2-1,.2-.7,0-1.2-.3-1.6-.8-.4-.5-.6-1.2-.6-2.1s.2-1.6.6-2.1c.4-.5,1-.8,1.6-.8s.8,0,1,.2c.3.2.5.4.7.7ZM473.2,441.7c0,.7.1,1.2.4,1.6.3.4.6.6,1.1.6s.8-.2,1.1-.6c.3-.4.4-.9.4-1.6s-.1-1.2-.4-1.6c-.3-.4-.6-.6-1.1-.6s-.8.2-1.1.6-.4.9-.4,1.6Z"/>
              </g>
              <g>
                <path id="DejaVuSans-4f" d="M404.3,449c-.7,0-1.3.3-1.7.8-.4.5-.6,1.3-.6,2.2s.2,1.6.6,2.2c.4.5,1,.8,1.7.8s1.3-.3,1.7-.8c.4-.5.6-1.3.6-2.2s-.2-1.6-.6-2.2c-.4-.5-1-.8-1.7-.8ZM404.3,448.2c1,0,1.8.3,2.5,1,.6.7.9,1.6.9,2.8s-.3,2.1-.9,2.8c-.6.7-1.4,1-2.5,1s-1.8-.3-2.5-1c-.6-.7-.9-1.6-.9-2.8s.3-2.1.9-2.8c.6-.7,1.4-1,2.5-1Z"/>
                <path id="DejaVuSans-762" data-name="DejaVuSans-76" d="M408.5,450.1h1l1.7,4.6,1.7-4.6h1l-2.1,5.5h-1.2l-2.1-5.5Z"/>
                <path id="DejaVuSans-6519" data-name="DejaVuSans-65" d="M419.8,452.6v.4h-4.1c0,.6.2,1.1.6,1.4.3.3.8.5,1.4.5s.7,0,1-.1.6-.2,1-.4v.9c-.3.1-.7.2-1,.3s-.7.1-1,.1c-.9,0-1.6-.3-2.1-.8-.5-.5-.8-1.2-.8-2.1s.2-1.6.7-2.1c.5-.5,1.1-.8,2-.8s1.3.2,1.7.7c.4.5.6,1.1.6,1.9ZM418.9,452.4c0-.5-.1-.9-.4-1.2-.3-.3-.6-.4-1.1-.4s-.9.1-1.2.4-.5.7-.5,1.2h3.2Z"/>
                <path id="DejaVuSans-729" data-name="DejaVuSans-72" d="M424.4,451c-.1,0-.2-.1-.3-.1-.1,0-.2,0-.4,0-.5,0-.9.2-1.2.5s-.4.8-.4,1.4v2.9h-.9v-5.5h.9v.9c.2-.3.4-.6.7-.7.3-.2.7-.2,1.1-.2s.1,0,.2,0c0,0,.2,0,.2,0v.9Z"/>
                <path id="DejaVuSans-6c4" data-name="DejaVuSans-6c" d="M425.4,448h.9v7.6h-.9v-7.6Z"/>
                <path id="DejaVuSans-6117" data-name="DejaVuSans-61" d="M430.6,452.9c-.7,0-1.2,0-1.5.2s-.4.4-.4.9.1.6.3.8c.2.2.5.3.9.3s.9-.2,1.2-.5.5-.8.5-1.4v-.2h-.9ZM432.4,452.5v3.1h-.9v-.8c-.2.3-.5.6-.8.7-.3.2-.7.2-1.1.2s-1-.2-1.3-.5c-.3-.3-.5-.7-.5-1.3s.2-1.1.6-1.4c.4-.3,1-.5,1.8-.5h1.3c0-.5-.1-.8-.4-1s-.7-.3-1.1-.3-.6,0-.9.1c-.3,0-.6.2-.9.3v-.8c.3-.1.6-.2,1-.3.3,0,.6,0,.9,0,.8,0,1.4.2,1.8.6.4.4.6,1,.6,1.9Z"/>
                <path id="DejaVuSans-704" data-name="DejaVuSans-70" d="M435.1,454.8v2.9h-.9v-7.5h.9v.8c.2-.3.4-.6.7-.7.3-.2.6-.2,1-.2.7,0,1.2.3,1.6.8.4.5.6,1.2.6,2.1s-.2,1.6-.6,2.1c-.4.5-1,.8-1.6.8s-.7,0-1-.2c-.3-.2-.5-.4-.7-.7ZM438.2,452.9c0-.7-.1-1.2-.4-1.6s-.6-.6-1.1-.6-.9.2-1.1.6-.4.9-.4,1.6.1,1.2.4,1.6c.3.4.6.6,1.1.6s.8-.2,1.1-.6c.3-.4.4-.9.4-1.6Z"/>
                <path id="DejaVuSans-2010" data-name="DejaVuSans-20" d="M439.7,455.6"/>
                <path id="DejaVuSans-442" data-name="DejaVuSans-44" d="M444.8,449.1v5.7h1.2c1,0,1.7-.2,2.2-.7.5-.5.7-1.2.7-2.2s-.2-1.7-.7-2.1-1.2-.7-2.2-.7h-1.2ZM443.8,448.3h2c1.4,0,2.4.3,3.1.9.7.6,1,1.5,1,2.8s-.3,2.2-1,2.8c-.7.6-1.7.9-3.1.9h-2v-7.3Z"/>
                <path id="DejaVuSans-6520" data-name="DejaVuSans-65" d="M456.2,452.6v.4h-4.1c0,.6.2,1.1.6,1.4.3.3.8.5,1.4.5s.7,0,1-.1.6-.2,1-.4v.9c-.3.1-.7.2-1,.3s-.7.1-1,.1c-.9,0-1.6-.3-2.1-.8-.5-.5-.8-1.2-.8-2.1s.2-1.6.7-2.1c.5-.5,1.1-.8,2-.8s1.3.2,1.7.7c.4.5.6,1.1.6,1.9ZM455.3,452.4c0-.5-.1-.9-.4-1.2-.3-.3-.6-.4-1.1-.4s-.9.1-1.2.4-.5.7-.5,1.2h3.2Z"/>
                <path id="DejaVuSans-7414" data-name="DejaVuSans-74" d="M458.5,448.6v1.6h1.9v.7h-1.9v3c0,.4,0,.7.2.9s.4.2.7.2h.9v.8h-.9c-.7,0-1.2-.1-1.4-.4-.3-.3-.4-.7-.4-1.4v-3h-.7v-.7h.7v-1.6h.9Z"/>
                <path id="DejaVuSans-6521" data-name="DejaVuSans-65" d="M466.2,452.6v.4h-4.1c0,.6.2,1.1.6,1.4.3.3.8.5,1.4.5s.7,0,1-.1.6-.2,1-.4v.9c-.3.1-.7.2-1,.3s-.7.1-1,.1c-.9,0-1.6-.3-2.1-.8-.5-.5-.8-1.2-.8-2.1s.2-1.6.7-2.1c.5-.5,1.1-.8,2-.8s1.3.2,1.7.7c.4.5.6,1.1.6,1.9ZM465.3,452.4c0-.5-.1-.9-.4-1.2-.3-.3-.6-.4-1.1-.4s-.9.1-1.2.4-.5.7-.5,1.2h3.2Z"/>
                <path id="DejaVuSans-6311" data-name="DejaVuSans-63" d="M471.6,450.3v.8c-.3-.1-.5-.2-.8-.3s-.5-.1-.8-.1c-.6,0-1,.2-1.4.6-.3.4-.5.9-.5,1.6s.2,1.2.5,1.6c.3.4.8.6,1.4.6s.5,0,.8-.1.5-.2.8-.3v.8c-.3.1-.5.2-.8.3-.3,0-.6,0-.9,0-.8,0-1.5-.3-2-.8-.5-.5-.7-1.2-.7-2.1s.2-1.6.7-2.1c.5-.5,1.2-.8,2-.8s.5,0,.8,0c.3,0,.5.1.8.3Z"/>
                <path id="DejaVuSans-7415" data-name="DejaVuSans-74" d="M474.1,448.6v1.6h1.9v.7h-1.9v3c0,.4,0,.7.2.9s.4.2.7.2h.9v.8h-.9c-.7,0-1.2-.1-1.4-.4-.3-.3-.4-.7-.4-1.4v-3h-.7v-.7h.7v-1.6h.9Z"/>
                <path id="DejaVuSans-6919" data-name="DejaVuSans-69" d="M477.1,450.1h.9v5.5h-.9v-5.5ZM477.1,448h.9v1.1h-.9v-1.1Z"/>
                <path id="DejaVuSans-6f9" data-name="DejaVuSans-6f" d="M482,450.8c-.5,0-.9.2-1.1.6s-.4.9-.4,1.5.1,1.2.4,1.5c.3.4.7.6,1.1.6s.9-.2,1.1-.6c.3-.4.4-.9.4-1.5s-.1-1.2-.4-1.5c-.3-.4-.7-.6-1.1-.6ZM482,450c.8,0,1.4.3,1.8.8.4.5.7,1.2.7,2.1s-.2,1.6-.7,2.1c-.4.5-1.1.8-1.8.8s-1.4-.3-1.8-.8c-.4-.5-.7-1.2-.7-2.1s.2-1.6.7-2.1c.4-.5,1.1-.8,1.8-.8Z"/>
                <path id="DejaVuSans-6e14" data-name="DejaVuSans-6e" d="M490.6,452.3v3.3h-.9v-3.3c0-.5-.1-.9-.3-1.2-.2-.3-.5-.4-.9-.4s-.9.2-1.1.5c-.3.3-.4.7-.4,1.3v3.1h-.9v-5.5h.9v.9c.2-.3.5-.6.8-.7.3-.2.6-.2,1-.2.6,0,1.1.2,1.4.6.3.4.5,1,.5,1.7Z"/>
              </g>
            </g>
          </g>
        </g>
        <g id="matplotlib.axis_2">
          <g id="ytick_1">
            <g id="line2d_8">
              <g class="st16">
                <path class="st5" d="M328.3,298.2c0-5.6-1.1-11.1-3.2-16.2-2.1-5.1-5.3-9.8-9.2-13.7s-8.6-7.1-13.7-9.2c-5.1-2.1-10.7-3.2-16.2-3.2s-11.1,1.1-16.2,3.2c-5.1,2.1-9.8,5.3-13.7,9.2s-7.1,8.6-9.2,13.7-3.2,10.7-3.2,16.2,1.1,11.1,3.2,16.2,5.3,9.8,9.2,13.7,8.6,7.1,13.7,9.2c5.1,2.1,10.7,3.2,16.2,3.2s11.1-1.1,16.2-3.2c5.1-2.1,9.8-5.3,13.7-9.2s7.1-8.6,9.2-13.7c2.1-5.1,3.2-10.7,3.2-16.2"/>
              </g>
            </g>
            <g id="text_8">
              <g>
                <path id="DejaVuSans-32" d="M330.1,295.6h3.1v.7h-4.2v-.7c.3-.3.8-.8,1.4-1.4.6-.6.9-1,1.1-1.1.3-.3.5-.6.6-.8.1-.2.2-.4.2-.7,0-.3-.1-.6-.4-.9-.2-.2-.6-.3-1-.3s-.6,0-.9.1c-.3,0-.6.2-1,.4v-.9c.4-.1.7-.3,1-.3.3,0,.6-.1.9-.1.7,0,1.2.2,1.6.5.4.3.6.8.6,1.4s0,.5-.2.8c-.1.2-.3.5-.6.9,0,0-.3.3-.7.7-.4.4-.9,1-1.7,1.7Z"/>
                <path id="DejaVuSans-30" d="M336.9,290.3c-.5,0-.8.2-1,.7-.2.4-.3,1.1-.3,2s.1,1.6.3,2c.2.5.6.7,1,.7s.8-.2,1-.7c.2-.5.3-1.1.3-2s-.1-1.6-.3-2c-.2-.5-.6-.7-1-.7ZM336.9,289.6c.7,0,1.3.3,1.7.9.4.6.6,1.4.6,2.5s-.2,1.9-.6,2.5c-.4.6-1,.9-1.7.9s-1.3-.3-1.7-.9c-.4-.6-.6-1.4-.6-2.5s.2-2,.6-2.5c.4-.6.9-.9,1.7-.9Z"/>
                <path id="DejaVuSans-25" d="M346.3,293.4c-.3,0-.5.1-.6.3-.1.2-.2.5-.2.9s0,.7.2.9c.1.2.3.3.6.3s.4-.1.6-.3c.1-.2.2-.5.2-.9s0-.7-.2-.9c-.1-.2-.3-.3-.6-.3ZM346.3,292.9c.5,0,.8.2,1.1.5.3.3.4.8.4,1.3s-.1,1-.4,1.3c-.3.3-.6.5-1.1.5s-.8-.2-1.1-.5c-.3-.3-.4-.8-.4-1.3s.1-1,.4-1.3.6-.5,1.1-.5ZM341.8,290.2c-.3,0-.5.1-.6.3-.1.2-.2.5-.2.9s0,.7.2.9c.1.2.3.3.6.3s.5-.1.6-.3c.1-.2.2-.5.2-.9s0-.7-.2-.9c-.1-.2-.3-.3-.6-.3ZM345.8,289.6h.7l-4.1,6.8h-.7l4.1-6.8ZM341.8,289.6c.5,0,.8.2,1.1.5.3.3.4.8.4,1.3s-.1,1-.4,1.3c-.3.3-.6.5-1.1.5s-.8-.2-1.1-.5c-.3-.3-.4-.8-.4-1.3s.1-1,.4-1.3c.3-.3.6-.5,1.1-.5Z"/>
              </g>
            </g>
          </g>
          <g id="ytick_2">
            <g id="line2d_9">
              <g class="st20">
                <path class="st5" d="M370.7,298.2c0-11.1-2.2-22.1-6.5-32.4-4.3-10.3-10.5-19.6-18.4-27.5-7.9-7.9-17.2-14.1-27.5-18.4-10.3-4.3-21.3-6.5-32.4-6.5s-22.1,2.2-32.4,6.5c-10.3,4.3-19.6,10.5-27.5,18.4-7.9,7.9-14.1,17.2-18.4,27.5-4.3,10.3-6.5,21.3-6.5,32.4s2.2,22.1,6.5,32.4c4.3,10.3,10.5,19.6,18.4,27.5,7.9,7.9,17.2,14.1,27.5,18.4,10.3,4.3,21.3,6.5,32.4,6.5s22.1-2.2,32.4-6.5c10.3-4.3,19.6-10.5,27.5-18.4s14.1-17.2,18.4-27.5c4.3-10.3,6.5-21.3,6.5-32.4"/>
              </g>
            </g>
            <g id="text_9">
              <g>
                <path id="DejaVuSans-34" d="M374.1,290.5l-2.2,3.5h2.2v-3.5ZM373.9,289.8h1.1v4.3h.9v.7h-.9v1.5h-.9v-1.5h-3v-.9l2.7-4.2Z"/>
                <path id="DejaVuSans-301" data-name="DejaVuSans-30" d="M379.3,290.3c-.5,0-.8.2-1,.7-.2.4-.3,1.1-.3,2s.1,1.6.3,2c.2.5.6.7,1,.7s.8-.2,1-.7c.2-.5.3-1.1.3-2s-.1-1.6-.3-2c-.2-.5-.6-.7-1-.7ZM379.3,289.6c.7,0,1.3.3,1.7.9.4.6.6,1.4.6,2.5s-.2,1.9-.6,2.5c-.4.6-1,.9-1.7.9s-1.3-.3-1.7-.9c-.4-.6-.6-1.4-.6-2.5s.2-2,.6-2.5c.4-.6.9-.9,1.7-.9Z"/>
                <path id="DejaVuSans-251" data-name="DejaVuSans-25" d="M388.7,293.4c-.3,0-.5.1-.6.3-.1.2-.2.5-.2.9s0,.7.2.9c.1.2.3.3.6.3s.4-.1.6-.3c.1-.2.2-.5.2-.9s0-.7-.2-.9c-.1-.2-.3-.3-.6-.3ZM388.7,292.9c.5,0,.8.2,1.1.5.3.3.4.8.4,1.3s-.1,1-.4,1.3c-.3.3-.6.5-1.1.5s-.8-.2-1.1-.5c-.3-.3-.4-.8-.4-1.3s.1-1,.4-1.3.6-.5,1.1-.5ZM384.2,290.2c-.3,0-.5.1-.6.3-.1.2-.2.5-.2.9s0,.7.2.9c.1.2.3.3.6.3s.5-.1.6-.3c.1-.2.2-.5.2-.9s0-.7-.2-.9c-.1-.2-.3-.3-.6-.3ZM388.1,289.6h.7l-4.1,6.8h-.7l4.1-6.8ZM384.2,289.6c.5,0,.8.2,1.1.5.3.3.4.8.4,1.3s-.1,1-.4,1.3c-.3.3-.6.5-1.1.5s-.8-.2-1.1-.5c-.3-.3-.4-.8-.4-1.3s.1-1,.4-1.3c.3-.3.6-.5,1.1-.5Z"/>
              </g>
            </g>
          </g>
          <g id="ytick_3">
            <g id="line2d_10">
              <g class="st18">
                <path class="st5" d="M413.1,298.2c0-16.7-3.3-33.2-9.7-48.6-6.4-15.4-15.8-29.4-27.6-41.2-11.8-11.8-25.8-21.2-41.2-27.6s-32-9.7-48.6-9.7-33.2,3.3-48.6,9.7c-15.4,6.4-29.4,15.8-41.2,27.6-11.8,11.8-21.2,25.8-27.6,41.2-6.4,15.4-9.7,32-9.7,48.6s3.3,33.2,9.7,48.6,15.8,29.4,27.6,41.2c11.8,11.8,25.8,21.2,41.2,27.6,15.4,6.4,32,9.7,48.6,9.7s33.2-3.3,48.6-9.7,29.4-15.8,41.2-27.6,21.2-25.8,27.6-41.2c6.4-15.4,9.7-32,9.7-48.6"/>
              </g>
            </g>
            <g id="text_10">
              <g>
                <path id="DejaVuSans-36" d="M416,292.7c-.4,0-.7.1-.9.4-.2.3-.3.6-.3,1.1s.1.8.3,1.1c.2.3.5.4.9.4s.7-.1.9-.4c.2-.3.3-.6.3-1.1s-.1-.8-.3-1.1c-.2-.3-.5-.4-.9-.4ZM417.8,289.9v.8c-.2-.1-.4-.2-.7-.2-.2,0-.5,0-.7,0-.6,0-1,.2-1.3.6-.3.4-.5,1-.5,1.8.2-.3.4-.5.6-.6.3-.1.5-.2.9-.2.7,0,1.2.2,1.6.6.4.4.6.9.6,1.6s-.2,1.2-.6,1.6c-.4.4-.9.6-1.6.6s-1.3-.3-1.7-.9c-.4-.6-.6-1.4-.6-2.5s.2-1.9.7-2.5c.5-.6,1.2-.9,2-.9s.4,0,.7,0,.5.1.7.2Z"/>
                <path id="DejaVuSans-302" data-name="DejaVuSans-30" d="M421.7,290.3c-.5,0-.8.2-1,.7-.2.4-.3,1.1-.3,2s.1,1.6.3,2c.2.5.6.7,1,.7s.8-.2,1-.7c.2-.5.3-1.1.3-2s-.1-1.6-.3-2c-.2-.5-.6-.7-1-.7ZM421.7,289.6c.7,0,1.3.3,1.7.9.4.6.6,1.4.6,2.5s-.2,1.9-.6,2.5c-.4.6-1,.9-1.7.9s-1.3-.3-1.7-.9c-.4-.6-.6-1.4-.6-2.5s.2-2,.6-2.5c.4-.6.9-.9,1.7-.9Z"/>
                <path id="DejaVuSans-252" data-name="DejaVuSans-25" d="M431.1,293.4c-.3,0-.5.1-.6.3-.1.2-.2.5-.2.9s0,.7.2.9c.1.2.3.3.6.3s.4-.1.6-.3c.1-.2.2-.5.2-.9s0-.7-.2-.9c-.1-.2-.3-.3-.6-.3ZM431.1,292.9c.5,0,.8.2,1.1.5.3.3.4.8.4,1.3s-.1,1-.4,1.3c-.3.3-.6.5-1.1.5s-.8-.2-1.1-.5c-.3-.3-.4-.8-.4-1.3s.1-1,.4-1.3.6-.5,1.1-.5ZM426.5,290.2c-.3,0-.5.1-.6.3-.1.2-.2.5-.2.9s0,.7.2.9c.1.2.3.3.6.3s.5-.1.6-.3c.1-.2.2-.5.2-.9s0-.7-.2-.9c-.1-.2-.3-.3-.6-.3ZM430.5,289.6h.7l-4.1,6.8h-.7l4.1-6.8ZM426.5,289.6c.5,0,.8.2,1.1.5.3.3.4.8.4,1.3s-.1,1-.4,1.3c-.3.3-.6.5-1.1.5s-.8-.2-1.1-.5c-.3-.3-.4-.8-.4-1.3s.1-1,.4-1.3c.3-.3.6-.5,1.1-.5Z"/>
              </g>
            </g>
          </g>
          <g id="ytick_4">
            <g id="line2d_11">
              <g class="st19">
                <path class="st5" d="M455.4,298.2c0-22.3-4.4-44.3-12.9-64.9s-21-39.2-36.7-55-34.4-28.2-55-36.7c-20.6-8.5-42.6-12.9-64.9-12.9s-44.3,4.4-64.9,12.9c-20.6,8.5-39.2,21-55,36.7s-28.2,34.4-36.7,55c-8.5,20.6-12.9,42.6-12.9,64.9s4.4,44.3,12.9,64.9c8.5,20.6,21,39.2,36.7,55s34.4,28.2,55,36.7c20.6,8.5,42.6,12.9,64.9,12.9s44.3-4.4,64.9-12.9c20.6-8.5,39.2-21,55-36.7s28.2-34.4,36.7-55c8.5-20.6,12.9-42.6,12.9-64.9"/>
              </g>
            </g>
            <g id="text_11">
              <g>
                <path id="DejaVuSans-38" d="M458.3,293.2c-.4,0-.8.1-1,.3-.2.2-.4.5-.4.9s.1.7.4.9c.2.2.6.3,1,.3s.8-.1,1-.3c.2-.2.4-.5.4-.9s-.1-.7-.4-.9c-.2-.2-.6-.3-1-.3ZM457.4,292.8c-.4,0-.7-.3-.9-.5-.2-.3-.3-.6-.3-1s.2-.9.6-1.2c.4-.3.9-.5,1.5-.5s1.2.2,1.5.5.6.7.6,1.2-.1.7-.3,1c-.2.3-.5.4-.9.5.4,0,.8.3,1,.6.2.3.4.6.4,1.1,0,.6-.2,1.1-.6,1.5-.4.3-.9.5-1.7.5s-1.3-.2-1.7-.5c-.4-.3-.6-.8-.6-1.5s.1-.8.4-1.1c.2-.3.6-.5,1-.6ZM457.1,291.4c0,.3.1.6.3.8.2.2.5.3.9.3s.7,0,.9-.3c.2-.2.3-.5.3-.8s-.1-.6-.3-.8c-.2-.2-.5-.3-.9-.3s-.7,0-.9.3c-.2.2-.3.5-.3.8Z"/>
                <path id="DejaVuSans-303" data-name="DejaVuSans-30" d="M464,290.3c-.5,0-.8.2-1,.7-.2.4-.3,1.1-.3,2s.1,1.6.3,2c.2.5.6.7,1,.7s.8-.2,1-.7c.2-.5.3-1.1.3-2s-.1-1.6-.3-2c-.2-.5-.6-.7-1-.7ZM464,289.6c.7,0,1.3.3,1.7.9.4.6.6,1.4.6,2.5s-.2,1.9-.6,2.5c-.4.6-1,.9-1.7.9s-1.3-.3-1.7-.9c-.4-.6-.6-1.4-.6-2.5s.2-2,.6-2.5c.4-.6.9-.9,1.7-.9Z"/>
                <path id="DejaVuSans-253" data-name="DejaVuSans-25" d="M473.4,293.4c-.3,0-.5.1-.6.3-.1.2-.2.5-.2.9s0,.7.2.9c.1.2.3.3.6.3s.4-.1.6-.3c.1-.2.2-.5.2-.9s0-.7-.2-.9c-.1-.2-.3-.3-.6-.3ZM473.4,292.9c.5,0,.8.2,1.1.5.3.3.4.8.4,1.3s-.1,1-.4,1.3c-.3.3-.6.5-1.1.5s-.8-.2-1.1-.5c-.3-.3-.4-.8-.4-1.3s.1-1,.4-1.3.6-.5,1.1-.5ZM468.9,290.2c-.3,0-.5.1-.6.3-.1.2-.2.5-.2.9s0,.7.2.9c.1.2.3.3.6.3s.5-.1.6-.3c.1-.2.2-.5.2-.9s0-.7-.2-.9c-.1-.2-.3-.3-.6-.3ZM472.9,289.6h.7l-4.1,6.8h-.7l4.1-6.8ZM468.9,289.6c.5,0,.8.2,1.1.5.3.3.4.8.4,1.3s-.1,1-.4,1.3c-.3.3-.6.5-1.1.5s-.8-.2-1.1-.5c-.3-.3-.4-.8-.4-1.3s.1-1,.4-1.3c.3-.3.6-.5,1.1-.5Z"/>
              </g>
            </g>
          </g>
        </g>
        <g id="patch_7">
          <path class="st7" d="M455.4,298.2c0-22.3-4.4-44.3-12.9-64.9s-21-39.2-36.7-55-34.4-28.2-55-36.7c-20.6-8.5-42.6-12.9-64.9-12.9s-44.3,4.4-64.9,12.9c-20.6,8.5-39.2,21-55,36.7s-28.2,34.4-36.7,55c-8.5,20.6-12.9,42.6-12.9,64.9s4.4,44.3,12.9,64.9c8.5,20.6,21,39.2,36.7,55s34.4,28.2,55,36.7c20.6,8.5,42.6,12.9,64.9,12.9s44.3-4.4,64.9-12.9c20.6-8.5,39.2-21,55-36.7s28.2-34.4,36.7-55c8.5-20.6,12.9-42.6,12.9-64.9"/>
        </g>
        <g id="legend_1">
          <g id="patch_8">
            <path class="st8" d="M441.5,96.3h79.8c1.3,0,2-.7,2-2v-57.7c0-1.3-.7-2-2-2h-79.8c-1.3,0-2,.7-2,2v57.7c0,1.3.7,2,2,2Z"/>
          </g>
          <g id="line2d_16">
            <path class="st3" d="M443.5,42.7h20"/>
          </g>
          <g id="text_13">
            <g>
              <path id="DejaVuSans-4d" d="M472.5,38.9h1.5l1.9,5,1.9-5h1.5v7.3h-1v-6.4l-1.9,5h-1l-1.9-5v6.4h-1v-7.3Z"/>
              <path id="DejaVuSans-4d1" data-name="DejaVuSans-4d" d="M481.1,38.9h1.5l1.9,5,1.9-5h1.5v7.3h-1v-6.4l-1.9,5h-1l-1.9-5v6.4h-1v-7.3Z"/>
              <path id="DejaVuSans-413" data-name="DejaVuSans-41" d="M492.2,39.9l-1.3,3.6h2.7l-1.3-3.6ZM491.7,38.9h1.1l2.8,7.3h-1l-.7-1.9h-3.3l-.7,1.9h-1l2.8-7.3Z"/>
              <path id="DejaVuSans-55" d="M496.5,38.9h1v4.4c0,.8.1,1.3.4,1.7.3.3.7.5,1.4.5s1.1-.2,1.4-.5c.3-.3.4-.9.4-1.7v-4.4h1v4.6c0,1-.2,1.7-.7,2.2-.5.5-1.2.7-2.1.7s-1.6-.2-2.1-.7c-.5-.5-.7-1.2-.7-2.2v-4.6Z"/>
              <path id="DejaVuSans-705" data-name="DejaVuSans-70" d="M504.8,45.4v2.9h-.9v-7.5h.9v.8c.2-.3.4-.6.7-.7.3-.2.6-.2,1-.2.7,0,1.2.3,1.6.8.4.5.6,1.2.6,2.1s-.2,1.6-.6,2.1c-.4.5-1,.8-1.6.8s-.7,0-1-.2c-.3-.2-.5-.4-.7-.7ZM507.8,43.5c0-.7-.1-1.2-.4-1.6s-.6-.6-1.1-.6-.9.2-1.1.6-.4.9-.4,1.6.1,1.2.4,1.6c.3.4.6.6,1.1.6s.8-.2,1.1-.6c.3-.4.4-.9.4-1.6Z"/>
              <path id="DejaVuSans-7210" data-name="DejaVuSans-72" d="M513.4,41.6c-.1,0-.2-.1-.3-.1-.1,0-.2,0-.4,0-.5,0-.9.2-1.2.5s-.4.8-.4,1.4v2.9h-.9v-5.5h.9v.9c.2-.3.4-.6.7-.7.3-.2.7-.2,1.1-.2s.1,0,.2,0c0,0,.2,0,.2,0v.9Z"/>
              <path id="DejaVuSans-6f10" data-name="DejaVuSans-6f" d="M516.2,41.4c-.5,0-.9.2-1.1.6s-.4.9-.4,1.5.1,1.2.4,1.5c.3.4.7.6,1.1.6s.9-.2,1.1-.6c.3-.4.4-.9.4-1.5s-.1-1.2-.4-1.5c-.3-.4-.7-.6-1.1-.6ZM516.2,40.6c.8,0,1.4.3,1.8.8.4.5.7,1.2.7,2.1s-.2,1.6-.7,2.1c-.4.5-1.1.8-1.8.8s-1.4-.3-1.8-.8c-.4-.5-.7-1.2-.7-2.1s.2-1.6.7-2.1c.4-.5,1.1-.8,1.8-.8Z"/>
            </g>
          </g>
          <g id="line2d_17">
            <path class="st2" d="M443.5,57.4h20"/>
          </g>
          <g id="text_14">
            <g>
              <path id="DejaVuSans-4d2" data-name="DejaVuSans-4d" d="M472.5,53.6h1.5l1.9,5,1.9-5h1.5v7.3h-1v-6.4l-1.9,5h-1l-1.9-5v6.4h-1v-7.3Z"/>
              <path id="DejaVuSans-4d3" data-name="DejaVuSans-4d" d="M481.1,53.6h1.5l1.9,5,1.9-5h1.5v7.3h-1v-6.4l-1.9,5h-1l-1.9-5v6.4h-1v-7.3Z"/>
              <path id="DejaVuSans-533" data-name="DejaVuSans-53" d="M494.1,53.8v1c-.4-.2-.7-.3-1.1-.4-.3,0-.7-.1-1-.1-.5,0-1,.1-1.2.3-.3.2-.4.5-.4.9s0,.6.3.7c.2.2.6.3,1.1.4h.6c.7.3,1.3.5,1.6.9s.5.8.5,1.4-.2,1.2-.7,1.6c-.5.4-1.2.5-2.1.5s-.7,0-1.1-.1c-.4,0-.8-.2-1.2-.3v-1c.4.2.8.4,1.2.5.4.1.8.2,1.1.2.6,0,1-.1,1.3-.3.3-.2.5-.5.5-.9s-.1-.6-.3-.8-.6-.4-1.1-.5h-.6c-.7-.3-1.3-.5-1.6-.8-.3-.3-.5-.7-.5-1.3s.2-1.2.7-1.5c.5-.4,1.1-.6,1.9-.6s.7,0,1,0c.4,0,.7.2,1.1.3Z"/>
              <path id="DejaVuSans-551" data-name="DejaVuSans-55" d="M496,53.6h1v4.4c0,.8.1,1.3.4,1.7.3.3.7.5,1.4.5s1.1-.2,1.4-.5c.3-.3.4-.9.4-1.7v-4.4h1v4.6c0,1-.2,1.7-.7,2.2-.5.5-1.2.7-2.1.7s-1.6-.2-2.1-.7c-.5-.5-.7-1.2-.7-2.2v-4.6Z"/>
            </g>
          </g>
          <g id="line2d_18">
            <path class="st6" d="M443.5,72.1h20"/>
          </g>
          <g id="text_15">
            <g>
              <path id="DejaVuSans-534" data-name="DejaVuSans-53" d="M476.9,68.5v1c-.4-.2-.7-.3-1.1-.4-.3,0-.7-.1-1-.1-.5,0-1,.1-1.2.3-.3.2-.4.5-.4.9s0,.6.3.7c.2.2.6.3,1.1.4h.6c.7.3,1.3.5,1.6.9s.5.8.5,1.4-.2,1.2-.7,1.6c-.5.4-1.2.5-2.1.5s-.7,0-1.1-.1c-.4,0-.8-.2-1.2-.3v-1c.4.2.8.4,1.2.5.4.1.8.2,1.1.2.6,0,1-.1,1.3-.3.3-.2.5-.5.5-.9s-.1-.6-.3-.8-.6-.4-1.1-.5h-.6c-.7-.3-1.3-.5-1.6-.8-.3-.3-.5-.7-.5-1.3s.2-1.2.7-1.5c.5-.4,1.1-.6,1.9-.6s.7,0,1,0c.4,0,.7.2,1.1.3Z"/>
              <path id="DejaVuSans-414" data-name="DejaVuSans-41" d="M481.5,69.3l-1.3,3.6h2.7l-1.3-3.6ZM480.9,68.3h1.1l2.8,7.3h-1l-.7-1.9h-3.3l-.7,1.9h-1l2.8-7.3Z"/>
              <path id="DejaVuSans-4b" d="M485.9,68.3h1v3.1l3.3-3.1h1.3l-3.6,3.4,3.9,3.9h-1.3l-3.5-3.5v3.5h-1v-7.3Z"/>
              <path id="DejaVuSans-552" data-name="DejaVuSans-55" d="M492.1,68.3h1v4.4c0,.8.1,1.3.4,1.7.3.3.7.5,1.4.5s1.1-.2,1.4-.5c.3-.3.4-.9.4-1.7v-4.4h1v4.6c0,1-.2,1.7-.7,2.2-.5.5-1.2.7-2.1.7s-1.6-.2-2.1-.7c-.5-.5-.7-1.2-.7-2.2v-4.6Z"/>
              <path id="DejaVuSans-521" data-name="DejaVuSans-52" d="M503,72.2c.2,0,.4.2.6.5s.4.6.6,1l1,2h-1.1l-.9-1.9c-.2-.5-.5-.8-.7-1s-.5-.2-.9-.2h-1.1v3.1h-1v-7.3h2.2c.8,0,1.5.2,1.9.5.4.3.6.9.6,1.6s-.1.8-.3,1.1c-.2.3-.5.5-.9.6ZM500.5,69.1v2.6h1.2c.5,0,.8-.1,1.1-.3s.4-.5.4-1-.1-.7-.4-1-.6-.3-1.1-.3h-1.2Z"/>
              <path id="DejaVuSans-415" data-name="DejaVuSans-41" d="M508.5,69.3l-1.3,3.6h2.7l-1.3-3.6ZM507.9,68.3h1.1l2.8,7.3h-1l-.7-1.9h-3.3l-.7,1.9h-1l2.8-7.3Z"/>
            </g>
          </g>
          <g id="line2d_19">
            <path class="st4" d="M443.1,84.9h20"/>
          </g>
          <g id="text_16">
            <g>
              <path id="DejaVuSans-4d4" data-name="DejaVuSans-4d" d="M472.1,81.1h1.5l1.9,5,1.9-5h1.5v7.3h-1v-6.4l-1.9,5h-1l-1.9-5v6.4h-1v-7.3Z"/>
              <path id="DejaVuSans-4d5" data-name="DejaVuSans-4d" d="M480.7,81.1h1.5l1.9,5,1.9-5h1.5v7.3h-1v-6.4l-1.9,5h-1l-1.9-5v6.4h-1v-7.3Z"/>
              <path id="DejaVuSans-416" data-name="DejaVuSans-41" d="M491.8,82.1l-1.3,3.6h2.7l-1.3-3.6ZM491.3,81.1h1.1l2.8,7.3h-1l-.7-1.9h-3.3l-.7,1.9h-1l2.8-7.3Z"/>
              <path id="DejaVuSans-522" data-name="DejaVuSans-52" d="M499.7,85c.2,0,.4.2.6.5s.4.6.6,1l1,2h-1.1l-.9-1.9c-.2-.5-.5-.8-.7-1s-.5-.2-.9-.2h-1.1v3.1h-1v-7.3h2.2c.8,0,1.5.2,1.9.5.4.3.6.9.6,1.6s-.1.8-.3,1.1c-.2.3-.5.5-.9.6ZM497.2,81.9v2.6h1.2c.5,0,.8-.1,1.1-.3s.4-.5.4-1-.1-.7-.4-1-.6-.3-1.1-.3h-1.2Z"/>
            </g>
          </g>
        </g>
      </g>
    </g>
    <text class="st15" transform="translate(141.9 80)"><tspan x="0" y="0">Perceptual Speech Skill Coverage</tspan></text>
    <text class="st14" transform="translate(223.3 540.4)"><tspan x="0" y="0">% of total Speech questions using skill</tspan></text>
  </g>
  <g id="Layer_2">
    <path class="st11" d="M296.8,298.3l28.5-49.3-48.8,7.7-65.3,5.5-47.9,95.1,111-7.6,55.8,3.7-33.3-55.2Z"/>
    <path class="st3" d="M296.8,298.3l28.5-49.3-48.8,7.7-65.3,5.5-47.9,95.1,111-7.6,55.8,3.7-33.3-55.2"/>
  </g>
  <g id="Layer_3">
    <path class="st12" d="M326.2,297.7l28.3-86.1-100-51.4-80.1,83.8-51.3,132.1,145.3-2,57.1-26.6.7-49.8Z"/>
    <path class="st2" d="M326.2,297.7l28.3-86.1-100-51.4-80.1,83.8-51.3,132.1,145.3-2,57.1-26.6.7-49.8"/>
  </g>
  <g id="Layer_4">
    <path class="st9" d="M293.2,298.3l13.2-25.6-24.7,6.9-99.7-31.3-25,112.1,123.7-39.6,64,51.2-51.6-73.7Z"/>
    <path class="st6" d="M293.2,298.3l13.2-25.6-24.7,6.9-99.7-31.3-25,112.1,123.7-39.6,64,51.2-51.6-73.7"/>
  </g>
  <g id="Layer_5">
    <path class="st10" d="M289.7,298.7l9.5-16.4-17.4-2.4-53.4-9-54.8,81.9,107.5-32.7,19.6-3.1-11.1-18.4Z"/>
    <path class="st4" d="M289.7,298.7l9.5-16.4-17.4-2.4-53.4-9-54.8,81.9,107.5-32.7,19.6-3.1-11.1-18.4"/>
  </g>
</svg>