<?xml version="1.0" encoding="utf-8" standalone="no"?>
<!DOCTYPE svg PUBLIC "-//W3C//DTD SVG 1.1//EN"
  "http://www.w3.org/Graphics/SVG/1.1/DTD/svg11.dtd">
<svg xmlns:xlink="http://www.w3.org/1999/xlink" width="576pt" height="576pt" viewBox="0 0 576 576" xmlns="http://www.w3.org/2000/svg" version="1.1">
 <metadata>
  <rdf:RDF xmlns:dc="http://purl.org/dc/elements/1.1/" xmlns:cc="http://creativecommons.org/ns#" xmlns:rdf="http://www.w3.org/1999/02/22-rdf-syntax-ns#">
   <cc:Work>
    <dc:type rdf:resource="http://purl.org/dc/dcmitype/StillImage"/>
    <dc:date>2025-07-28T10:55:28.870077</dc:date>
    <dc:format>image/svg+xml</dc:format>
    <dc:creator>
     <cc:Agent>
      <dc:title>Matplotlib v3.10.1, https://matplotlib.org/</dc:title>
     </cc:Agent>
    </dc:creator>
   </cc:Work>
  </rdf:RDF>
 </metadata>
 <defs>
  <style type="text/css">*{stroke-linejoin: round; stroke-linecap: butt}</style>
 </defs>
 <g id="figure_1">
  <g id="patch_1">
   <path d="M 0 576 
L 576 576 
L 576 0 
L 0 0 
z
" style="fill: #ffffff"/>
  </g>
  <g id="axes_1">
   <g id="patch_2">
    <path d="M 516.96 290.88 
C 516.96 261.758744 511.223747 232.920655 500.079525 206.016122 
C 488.935303 179.111589 472.599838 154.663838 452.008 134.072 
C 431.416162 113.480162 406.968411 97.144697 380.063878 86.000475 
C 353.159345 74.856253 324.321256 69.12 295.2 69.12 
C 266.078744 69.12 237.240655 74.856253 210.336122 86.000475 
C 183.431589 97.144697 158.983838 113.480162 138.392 134.072 
C 117.800162 154.663838 101.464697 179.111589 90.320475 206.016122 
C 79.176253 232.920655 73.44 261.758744 73.44 290.88 
C 73.44 320.001256 79.176253 348.839345 90.320475 375.743878 
C 101.464697 402.648411 117.800162 427.096162 138.392 447.688 
C 158.983838 468.279838 183.431589 484.615303 210.336122 495.759525 
C 237.240655 506.903747 266.078744 512.64 295.2 512.64 
C 324.321256 512.64 353.159345 506.903747 380.063878 495.759525 
C 406.968411 484.615303 431.416162 468.279838 452.008 447.688 
C 472.599838 427.096162 488.935303 402.648411 500.079525 375.743878 
C 511.223747 348.839345 516.96 320.001256 516.96 290.88 
M 295.2 290.88 
C 295.2 290.88 295.2 290.88 295.2 290.88 
C 295.2 290.88 295.2 290.88 295.2 290.88 
C 295.2 290.88 295.2 290.88 295.2 290.88 
C 295.2 290.88 295.2 290.88 295.2 290.88 
C 295.2 290.88 295.2 290.88 295.2 290.88 
C 295.2 290.88 295.2 290.88 295.2 290.88 
C 295.2 290.88 295.2 290.88 295.2 290.88 
C 295.2 290.88 295.2 290.88 295.2 290.88 
C 295.2 290.88 295.2 290.88 295.2 290.88 
C 295.2 290.88 295.2 290.88 295.2 290.88 
C 295.2 290.88 295.2 290.88 295.2 290.88 
C 295.2 290.88 295.2 290.88 295.2 290.88 
C 295.2 290.88 295.2 290.88 295.2 290.88 
C 295.2 290.88 295.2 290.88 295.2 290.88 
C 295.2 290.88 295.2 290.88 295.2 290.88 
C 295.2 290.88 295.2 290.88 295.2 290.88 
z
" style="fill: #ffffff"/>
   </g>
   <g id="patch_3">
    <path d="M 295.2 290.88 
C 295.2 290.88 295.2 290.88 295.2 290.88 
C 295.2 290.88 295.2 290.88 295.2 290.88 
L 496.063136 225.615611 
C 502.911629 246.693105 506.4 268.717811 506.4 290.88 
C 506.4 313.042189 502.911629 335.066895 496.063136 356.144389 
z
" clip-path="url(#p65aba41183)" style="fill: #1f77b4"/>
   </g>
   <g id="patch_4">
    <path d="M 295.2 290.88 
C 295.2 290.88 295.2 290.88 295.2 290.88 
C 295.2 290.88 295.2 290.88 295.2 290.88 
L 402.323781 143.436764 
C 417.795679 154.677756 431.402244 168.284321 442.643236 183.756219 
C 453.884227 199.228117 462.62018 216.373389 468.529919 234.561695 
z
" clip-path="url(#p65aba41183)" style="fill: #1f77b4"/>
   </g>
   <g id="patch_5">
    <path d="M 295.2 290.88 
C 295.2 290.88 295.2 290.88 295.2 290.88 
C 295.2 290.88 295.2 290.88 295.2 290.88 
L 295.2 134.27724 
C 311.633049 134.27724 327.964156 136.863833 343.592914 141.941925 
C 359.221672 147.020016 373.954177 154.526602 387.248793 164.185706 
z
" clip-path="url(#p65aba41183)" style="fill: #1f77b4"/>
   </g>
   <g id="patch_6">
    <path d="M 295.2 290.88 
C 295.2 290.88 295.2 290.88 295.2 290.88 
C 295.2 290.88 295.2 290.88 295.2 290.88 
L 194.585873 152.396535 
C 209.117581 141.838631 225.220976 133.633541 242.304023 128.082923 
C 259.38707 122.532304 277.237821 119.705023 295.2 119.705023 
z
" clip-path="url(#p65aba41183)" style="fill: #1f77b4"/>
   </g>
   <g id="patch_7">
    <path d="M 295.2 290.88 
C 295.2 290.88 295.2 290.88 295.2 290.88 
C 295.2 290.88 295.2 290.88 295.2 290.88 
L 125.935388 235.882594 
C 131.70652 218.120879 140.237578 201.377734 151.214921 186.268717 
C 162.192265 171.159699 175.479699 157.872265 190.588717 146.894921 
z
" clip-path="url(#p65aba41183)" style="fill: #1f77b4"/>
   </g>
   <g id="patch_8">
    <path d="M 295.2 290.88 
C 295.2 290.88 295.2 290.88 295.2 290.88 
C 295.2 290.88 295.2 290.88 295.2 290.88 
L 97.478238 355.123695 
C 90.736851 334.37584 87.303036 312.695586 87.303036 290.88 
C 87.303036 269.064414 90.736851 247.38416 97.478238 226.636305 
z
" clip-path="url(#p65aba41183)" style="fill: #1f77b4"/>
   </g>
   <g id="patch_9">
    <path d="M 295.2 290.88 
C 295.2 290.88 295.2 290.88 295.2 290.88 
C 295.2 290.88 295.2 290.88 295.2 290.88 
L 254.314804 347.153644 
C 248.409752 342.863372 243.216628 337.670248 238.926356 331.765196 
C 234.636084 325.860143 231.301893 319.316425 229.046364 312.374619 
z
" clip-path="url(#p65aba41183)" style="fill: #1f77b4"/>
   </g>
   <g id="patch_10">
    <path d="M 295.2 290.88 
C 295.2 290.88 295.2 290.88 295.2 290.88 
C 295.2 290.88 295.2 290.88 295.2 290.88 
L 295.2 308.560957 
C 293.344656 308.560957 291.500821 308.268922 289.736284 307.695589 
C 287.971747 307.122256 286.308399 306.274738 284.807394 305.184194 
z
" clip-path="url(#p65aba41183)" style="fill: #1f77b4"/>
   </g>
   <g id="patch_11">
    <path d="M 295.2 290.88 
C 295.2 290.88 295.2 290.88 295.2 290.88 
C 295.2 290.88 295.2 290.88 295.2 290.88 
L 303.308516 302.040415 
C 302.137403 302.891279 300.839626 303.55253 299.462899 303.999855 
C 298.086173 304.447181 296.647576 304.675032 295.2 304.675032 
z
" clip-path="url(#p65aba41183)" style="fill: #1f77b4"/>
   </g>
   <g id="patch_12">
    <path d="M 295.2 290.88 
C 295.2 290.88 295.2 290.88 295.2 290.88 
C 295.2 290.88 295.2 290.88 295.2 290.88 
L 316.635256 297.844737 
C 315.904415 300.094037 314.824062 302.214348 313.433918 304.127717 
C 312.043774 306.041086 310.361086 307.723774 308.447717 309.113918 
z
" clip-path="url(#p65aba41183)" style="fill: #1f77b4"/>
   </g>
   <g id="matplotlib.axis_1">
    <g id="xtick_1">
     <g id="line2d_1">
      <path d="M 295.2 290.88 
L 516.96 290.88 
" clip-path="url(#p65aba41183)" style="fill: none; stroke: #b0b0b0; stroke-width: 0.8; stroke-linecap: square"/>
     </g>
     <g id="text_1">
      <!-- Quantitative Reasoning -->
      <g transform="translate(472.320156 282.441562) scale(0.1 -0.1)">
       <defs>
        <path id="DejaVuSans-51" d="M 2522 4238 
Q 1834 4238 1429 3725 
Q 1025 3213 1025 2328 
Q 1025 1447 1429 934 
Q 1834 422 2522 422 
Q 3209 422 3611 934 
Q 4013 1447 4013 2328 
Q 4013 3213 3611 3725 
Q 3209 4238 2522 4238 
z
M 3406 84 
L 4238 -825 
L 3475 -825 
L 2784 -78 
Q 2681 -84 2626 -87 
Q 2572 -91 2522 -91 
Q 1538 -91 948 567 
Q 359 1225 359 2328 
Q 359 3434 948 4092 
Q 1538 4750 2522 4750 
Q 3503 4750 4090 4092 
Q 4678 3434 4678 2328 
Q 4678 1516 4351 937 
Q 4025 359 3406 84 
z
" transform="scale(0.015625)"/>
        <path id="DejaVuSans-75" d="M 544 1381 
L 544 3500 
L 1119 3500 
L 1119 1403 
Q 1119 906 1312 657 
Q 1506 409 1894 409 
Q 2359 409 2629 706 
Q 2900 1003 2900 1516 
L 2900 3500 
L 3475 3500 
L 3475 0 
L 2900 0 
L 2900 538 
Q 2691 219 2414 64 
Q 2138 -91 1772 -91 
Q 1169 -91 856 284 
Q 544 659 544 1381 
z
M 1991 3584 
L 1991 3584 
z
" transform="scale(0.015625)"/>
        <path id="DejaVuSans-61" d="M 2194 1759 
Q 1497 1759 1228 1600 
Q 959 1441 959 1056 
Q 959 750 1161 570 
Q 1363 391 1709 391 
Q 2188 391 2477 730 
Q 2766 1069 2766 1631 
L 2766 1759 
L 2194 1759 
z
M 3341 1997 
L 3341 0 
L 2766 0 
L 2766 531 
Q 2569 213 2275 61 
Q 1981 -91 1556 -91 
Q 1019 -91 701 211 
Q 384 513 384 1019 
Q 384 1609 779 1909 
Q 1175 2209 1959 2209 
L 2766 2209 
L 2766 2266 
Q 2766 2663 2505 2880 
Q 2244 3097 1772 3097 
Q 1472 3097 1187 3025 
Q 903 2953 641 2809 
L 641 3341 
Q 956 3463 1253 3523 
Q 1550 3584 1831 3584 
Q 2591 3584 2966 3190 
Q 3341 2797 3341 1997 
z
" transform="scale(0.015625)"/>
        <path id="DejaVuSans-6e" d="M 3513 2113 
L 3513 0 
L 2938 0 
L 2938 2094 
Q 2938 2591 2744 2837 
Q 2550 3084 2163 3084 
Q 1697 3084 1428 2787 
Q 1159 2491 1159 1978 
L 1159 0 
L 581 0 
L 581 3500 
L 1159 3500 
L 1159 2956 
Q 1366 3272 1645 3428 
Q 1925 3584 2291 3584 
Q 2894 3584 3203 3211 
Q 3513 2838 3513 2113 
z
" transform="scale(0.015625)"/>
        <path id="DejaVuSans-74" d="M 1172 4494 
L 1172 3500 
L 2356 3500 
L 2356 3053 
L 1172 3053 
L 1172 1153 
Q 1172 725 1289 603 
Q 1406 481 1766 481 
L 2356 481 
L 2356 0 
L 1766 0 
Q 1100 0 847 248 
Q 594 497 594 1153 
L 594 3053 
L 172 3053 
L 172 3500 
L 594 3500 
L 594 4494 
L 1172 4494 
z
" transform="scale(0.015625)"/>
        <path id="DejaVuSans-69" d="M 603 3500 
L 1178 3500 
L 1178 0 
L 603 0 
L 603 3500 
z
M 603 4863 
L 1178 4863 
L 1178 4134 
L 603 4134 
L 603 4863 
z
" transform="scale(0.015625)"/>
        <path id="DejaVuSans-76" d="M 191 3500 
L 800 3500 
L 1894 563 
L 2988 3500 
L 3597 3500 
L 2284 0 
L 1503 0 
L 191 3500 
z
" transform="scale(0.015625)"/>
        <path id="DejaVuSans-65" d="M 3597 1894 
L 3597 1613 
L 953 1613 
Q 991 1019 1311 708 
Q 1631 397 2203 397 
Q 2534 397 2845 478 
Q 3156 559 3463 722 
L 3463 178 
Q 3153 47 2828 -22 
Q 2503 -91 2169 -91 
Q 1331 -91 842 396 
Q 353 884 353 1716 
Q 353 2575 817 3079 
Q 1281 3584 2069 3584 
Q 2775 3584 3186 3129 
Q 3597 2675 3597 1894 
z
M 3022 2063 
Q 3016 2534 2758 2815 
Q 2500 3097 2075 3097 
Q 1594 3097 1305 2825 
Q 1016 2553 972 2059 
L 3022 2063 
z
" transform="scale(0.015625)"/>
        <path id="DejaVuSans-20" transform="scale(0.015625)"/>
        <path id="DejaVuSans-52" d="M 2841 2188 
Q 3044 2119 3236 1894 
Q 3428 1669 3622 1275 
L 4263 0 
L 3584 0 
L 2988 1197 
Q 2756 1666 2539 1819 
Q 2322 1972 1947 1972 
L 1259 1972 
L 1259 0 
L 628 0 
L 628 4666 
L 2053 4666 
Q 2853 4666 3247 4331 
Q 3641 3997 3641 3322 
Q 3641 2881 3436 2590 
Q 3231 2300 2841 2188 
z
M 1259 4147 
L 1259 2491 
L 2053 2491 
Q 2509 2491 2742 2702 
Q 2975 2913 2975 3322 
Q 2975 3731 2742 3939 
Q 2509 4147 2053 4147 
L 1259 4147 
z
" transform="scale(0.015625)"/>
        <path id="DejaVuSans-73" d="M 2834 3397 
L 2834 2853 
Q 2591 2978 2328 3040 
Q 2066 3103 1784 3103 
Q 1356 3103 1142 2972 
Q 928 2841 928 2578 
Q 928 2378 1081 2264 
Q 1234 2150 1697 2047 
L 1894 2003 
Q 2506 1872 2764 1633 
Q 3022 1394 3022 966 
Q 3022 478 2636 193 
Q 2250 -91 1575 -91 
Q 1294 -91 989 -36 
Q 684 19 347 128 
L 347 722 
Q 666 556 975 473 
Q 1284 391 1588 391 
Q 1994 391 2212 530 
Q 2431 669 2431 922 
Q 2431 1156 2273 1281 
Q 2116 1406 1581 1522 
L 1381 1569 
Q 847 1681 609 1914 
Q 372 2147 372 2553 
Q 372 3047 722 3315 
Q 1072 3584 1716 3584 
Q 2034 3584 2315 3537 
Q 2597 3491 2834 3397 
z
" transform="scale(0.015625)"/>
        <path id="DejaVuSans-6f" d="M 1959 3097 
Q 1497 3097 1228 2736 
Q 959 2375 959 1747 
Q 959 1119 1226 758 
Q 1494 397 1959 397 
Q 2419 397 2687 759 
Q 2956 1122 2956 1747 
Q 2956 2369 2687 2733 
Q 2419 3097 1959 3097 
z
M 1959 3584 
Q 2709 3584 3137 3096 
Q 3566 2609 3566 1747 
Q 3566 888 3137 398 
Q 2709 -91 1959 -91 
Q 1206 -91 779 398 
Q 353 888 353 1747 
Q 353 2609 779 3096 
Q 1206 3584 1959 3584 
z
" transform="scale(0.015625)"/>
        <path id="DejaVuSans-67" d="M 2906 1791 
Q 2906 2416 2648 2759 
Q 2391 3103 1925 3103 
Q 1463 3103 1205 2759 
Q 947 2416 947 1791 
Q 947 1169 1205 825 
Q 1463 481 1925 481 
Q 2391 481 2648 825 
Q 2906 1169 2906 1791 
z
M 3481 434 
Q 3481 -459 3084 -895 
Q 2688 -1331 1869 -1331 
Q 1566 -1331 1297 -1286 
Q 1028 -1241 775 -1147 
L 775 -588 
Q 1028 -725 1275 -790 
Q 1522 -856 1778 -856 
Q 2344 -856 2625 -561 
Q 2906 -266 2906 331 
L 2906 616 
Q 2728 306 2450 153 
Q 2172 0 1784 0 
Q 1141 0 747 490 
Q 353 981 353 1791 
Q 353 2603 747 3093 
Q 1141 3584 1784 3584 
Q 2172 3584 2450 3431 
Q 2728 3278 2906 2969 
L 2906 3500 
L 3481 3500 
L 3481 434 
z
" transform="scale(0.015625)"/>
       </defs>
       <use xlink:href="#DejaVuSans-51"/>
       <use xlink:href="#DejaVuSans-75" transform="translate(78.710938 0)"/>
       <use xlink:href="#DejaVuSans-61" transform="translate(142.089844 0)"/>
       <use xlink:href="#DejaVuSans-6e" transform="translate(203.369141 0)"/>
       <use xlink:href="#DejaVuSans-74" transform="translate(266.748047 0)"/>
       <use xlink:href="#DejaVuSans-69" transform="translate(305.957031 0)"/>
       <use xlink:href="#DejaVuSans-74" transform="translate(333.740234 0)"/>
       <use xlink:href="#DejaVuSans-61" transform="translate(372.949219 0)"/>
       <use xlink:href="#DejaVuSans-74" transform="translate(434.228516 0)"/>
       <use xlink:href="#DejaVuSans-69" transform="translate(473.4375 0)"/>
       <use xlink:href="#DejaVuSans-76" transform="translate(501.220703 0)"/>
       <use xlink:href="#DejaVuSans-65" transform="translate(560.400391 0)"/>
       <use xlink:href="#DejaVuSans-20" transform="translate(621.923828 0)"/>
       <use xlink:href="#DejaVuSans-52" transform="translate(653.710938 0)"/>
       <use xlink:href="#DejaVuSans-65" transform="translate(718.693359 0)"/>
       <use xlink:href="#DejaVuSans-61" transform="translate(780.216797 0)"/>
       <use xlink:href="#DejaVuSans-73" transform="translate(841.496094 0)"/>
       <use xlink:href="#DejaVuSans-6f" transform="translate(893.595703 0)"/>
       <use xlink:href="#DejaVuSans-6e" transform="translate(954.777344 0)"/>
       <use xlink:href="#DejaVuSans-69" transform="translate(1018.15625 0)"/>
       <use xlink:href="#DejaVuSans-6e" transform="translate(1045.939453 0)"/>
       <use xlink:href="#DejaVuSans-67" transform="translate(1109.318359 0)"/>
      </g>
      <!-- (Counting/Arithmetic -->
      <g transform="translate(478.705313 293.639375) scale(0.1 -0.1)">
       <defs>
        <path id="DejaVuSans-28" d="M 1984 4856 
Q 1566 4138 1362 3434 
Q 1159 2731 1159 2009 
Q 1159 1288 1364 580 
Q 1569 -128 1984 -844 
L 1484 -844 
Q 1016 -109 783 600 
Q 550 1309 550 2009 
Q 550 2706 781 3412 
Q 1013 4119 1484 4856 
L 1984 4856 
z
" transform="scale(0.015625)"/>
        <path id="DejaVuSans-43" d="M 4122 4306 
L 4122 3641 
Q 3803 3938 3442 4084 
Q 3081 4231 2675 4231 
Q 1875 4231 1450 3742 
Q 1025 3253 1025 2328 
Q 1025 1406 1450 917 
Q 1875 428 2675 428 
Q 3081 428 3442 575 
Q 3803 722 4122 1019 
L 4122 359 
Q 3791 134 3420 21 
Q 3050 -91 2638 -91 
Q 1578 -91 968 557 
Q 359 1206 359 2328 
Q 359 3453 968 4101 
Q 1578 4750 2638 4750 
Q 3056 4750 3426 4639 
Q 3797 4528 4122 4306 
z
" transform="scale(0.015625)"/>
        <path id="DejaVuSans-2f" d="M 1625 4666 
L 2156 4666 
L 531 -594 
L 0 -594 
L 1625 4666 
z
" transform="scale(0.015625)"/>
        <path id="DejaVuSans-41" d="M 2188 4044 
L 1331 1722 
L 3047 1722 
L 2188 4044 
z
M 1831 4666 
L 2547 4666 
L 4325 0 
L 3669 0 
L 3244 1197 
L 1141 1197 
L 716 0 
L 50 0 
L 1831 4666 
z
" transform="scale(0.015625)"/>
        <path id="DejaVuSans-72" d="M 2631 2963 
Q 2534 3019 2420 3045 
Q 2306 3072 2169 3072 
Q 1681 3072 1420 2755 
Q 1159 2438 1159 1844 
L 1159 0 
L 581 0 
L 581 3500 
L 1159 3500 
L 1159 2956 
Q 1341 3275 1631 3429 
Q 1922 3584 2338 3584 
Q 2397 3584 2469 3576 
Q 2541 3569 2628 3553 
L 2631 2963 
z
" transform="scale(0.015625)"/>
        <path id="DejaVuSans-68" d="M 3513 2113 
L 3513 0 
L 2938 0 
L 2938 2094 
Q 2938 2591 2744 2837 
Q 2550 3084 2163 3084 
Q 1697 3084 1428 2787 
Q 1159 2491 1159 1978 
L 1159 0 
L 581 0 
L 581 4863 
L 1159 4863 
L 1159 2956 
Q 1366 3272 1645 3428 
Q 1925 3584 2291 3584 
Q 2894 3584 3203 3211 
Q 3513 2838 3513 2113 
z
" transform="scale(0.015625)"/>
        <path id="DejaVuSans-6d" d="M 3328 2828 
Q 3544 3216 3844 3400 
Q 4144 3584 4550 3584 
Q 5097 3584 5394 3201 
Q 5691 2819 5691 2113 
L 5691 0 
L 5113 0 
L 5113 2094 
Q 5113 2597 4934 2840 
Q 4756 3084 4391 3084 
Q 3944 3084 3684 2787 
Q 3425 2491 3425 1978 
L 3425 0 
L 2847 0 
L 2847 2094 
Q 2847 2600 2669 2842 
Q 2491 3084 2119 3084 
Q 1678 3084 1418 2786 
Q 1159 2488 1159 1978 
L 1159 0 
L 581 0 
L 581 3500 
L 1159 3500 
L 1159 2956 
Q 1356 3278 1631 3431 
Q 1906 3584 2284 3584 
Q 2666 3584 2933 3390 
Q 3200 3197 3328 2828 
z
" transform="scale(0.015625)"/>
        <path id="DejaVuSans-63" d="M 3122 3366 
L 3122 2828 
Q 2878 2963 2633 3030 
Q 2388 3097 2138 3097 
Q 1578 3097 1268 2742 
Q 959 2388 959 1747 
Q 959 1106 1268 751 
Q 1578 397 2138 397 
Q 2388 397 2633 464 
Q 2878 531 3122 666 
L 3122 134 
Q 2881 22 2623 -34 
Q 2366 -91 2075 -91 
Q 1284 -91 818 406 
Q 353 903 353 1747 
Q 353 2603 823 3093 
Q 1294 3584 2113 3584 
Q 2378 3584 2631 3529 
Q 2884 3475 3122 3366 
z
" transform="scale(0.015625)"/>
       </defs>
       <use xlink:href="#DejaVuSans-28"/>
       <use xlink:href="#DejaVuSans-43" transform="translate(39.013672 0)"/>
       <use xlink:href="#DejaVuSans-6f" transform="translate(108.837891 0)"/>
       <use xlink:href="#DejaVuSans-75" transform="translate(170.019531 0)"/>
       <use xlink:href="#DejaVuSans-6e" transform="translate(233.398438 0)"/>
       <use xlink:href="#DejaVuSans-74" transform="translate(296.777344 0)"/>
       <use xlink:href="#DejaVuSans-69" transform="translate(335.986328 0)"/>
       <use xlink:href="#DejaVuSans-6e" transform="translate(363.769531 0)"/>
       <use xlink:href="#DejaVuSans-67" transform="translate(427.148438 0)"/>
       <use xlink:href="#DejaVuSans-2f" transform="translate(490.625 0)"/>
       <use xlink:href="#DejaVuSans-41" transform="translate(524.316406 0)"/>
       <use xlink:href="#DejaVuSans-72" transform="translate(592.724609 0)"/>
       <use xlink:href="#DejaVuSans-69" transform="translate(633.837891 0)"/>
       <use xlink:href="#DejaVuSans-74" transform="translate(661.621094 0)"/>
       <use xlink:href="#DejaVuSans-68" transform="translate(700.830078 0)"/>
       <use xlink:href="#DejaVuSans-6d" transform="translate(764.208984 0)"/>
       <use xlink:href="#DejaVuSans-65" transform="translate(861.621094 0)"/>
       <use xlink:href="#DejaVuSans-74" transform="translate(923.144531 0)"/>
       <use xlink:href="#DejaVuSans-69" transform="translate(962.353516 0)"/>
       <use xlink:href="#DejaVuSans-63" transform="translate(990.136719 0)"/>
      </g>
      <!-- Comparison) -->
      <g transform="translate(499.0725 304.837187) scale(0.1 -0.1)">
       <defs>
        <path id="DejaVuSans-70" d="M 1159 525 
L 1159 -1331 
L 581 -1331 
L 581 3500 
L 1159 3500 
L 1159 2969 
Q 1341 3281 1617 3432 
Q 1894 3584 2278 3584 
Q 2916 3584 3314 3078 
Q 3713 2572 3713 1747 
Q 3713 922 3314 415 
Q 2916 -91 2278 -91 
Q 1894 -91 1617 61 
Q 1341 213 1159 525 
z
M 3116 1747 
Q 3116 2381 2855 2742 
Q 2594 3103 2138 3103 
Q 1681 3103 1420 2742 
Q 1159 2381 1159 1747 
Q 1159 1113 1420 752 
Q 1681 391 2138 391 
Q 2594 391 2855 752 
Q 3116 1113 3116 1747 
z
" transform="scale(0.015625)"/>
        <path id="DejaVuSans-29" d="M 513 4856 
L 1013 4856 
Q 1481 4119 1714 3412 
Q 1947 2706 1947 2009 
Q 1947 1309 1714 600 
Q 1481 -109 1013 -844 
L 513 -844 
Q 928 -128 1133 580 
Q 1338 1288 1338 2009 
Q 1338 2731 1133 3434 
Q 928 4138 513 4856 
z
" transform="scale(0.015625)"/>
       </defs>
       <use xlink:href="#DejaVuSans-43"/>
       <use xlink:href="#DejaVuSans-6f" transform="translate(69.824219 0)"/>
       <use xlink:href="#DejaVuSans-6d" transform="translate(131.005859 0)"/>
       <use xlink:href="#DejaVuSans-70" transform="translate(228.417969 0)"/>
       <use xlink:href="#DejaVuSans-61" transform="translate(291.894531 0)"/>
       <use xlink:href="#DejaVuSans-72" transform="translate(353.173828 0)"/>
       <use xlink:href="#DejaVuSans-69" transform="translate(394.287109 0)"/>
       <use xlink:href="#DejaVuSans-73" transform="translate(422.070312 0)"/>
       <use xlink:href="#DejaVuSans-6f" transform="translate(474.169922 0)"/>
       <use xlink:href="#DejaVuSans-6e" transform="translate(535.351562 0)"/>
       <use xlink:href="#DejaVuSans-29" transform="translate(598.730469 0)"/>
      </g>
     </g>
    </g>
    <g id="xtick_2">
     <g id="line2d_2">
      <path d="M 295.2 290.88 
L 474.607609 160.532742 
" clip-path="url(#p65aba41183)" style="fill: none; stroke: #b0b0b0; stroke-width: 0.8; stroke-linecap: square"/>
     </g>
     <g id="text_2">
      <!-- Temporal and Ordering -->
      <g transform="translate(428.513534 149.464218) scale(0.1 -0.1)">
       <defs>
        <path id="DejaVuSans-54" d="M -19 4666 
L 3928 4666 
L 3928 4134 
L 2272 4134 
L 2272 0 
L 1638 0 
L 1638 4134 
L -19 4134 
L -19 4666 
z
" transform="scale(0.015625)"/>
        <path id="DejaVuSans-6c" d="M 603 4863 
L 1178 4863 
L 1178 0 
L 603 0 
L 603 4863 
z
" transform="scale(0.015625)"/>
        <path id="DejaVuSans-64" d="M 2906 2969 
L 2906 4863 
L 3481 4863 
L 3481 0 
L 2906 0 
L 2906 525 
Q 2725 213 2448 61 
Q 2172 -91 1784 -91 
Q 1150 -91 751 415 
Q 353 922 353 1747 
Q 353 2572 751 3078 
Q 1150 3584 1784 3584 
Q 2172 3584 2448 3432 
Q 2725 3281 2906 2969 
z
M 947 1747 
Q 947 1113 1208 752 
Q 1469 391 1925 391 
Q 2381 391 2643 752 
Q 2906 1113 2906 1747 
Q 2906 2381 2643 2742 
Q 2381 3103 1925 3103 
Q 1469 3103 1208 2742 
Q 947 2381 947 1747 
z
" transform="scale(0.015625)"/>
        <path id="DejaVuSans-4f" d="M 2522 4238 
Q 1834 4238 1429 3725 
Q 1025 3213 1025 2328 
Q 1025 1447 1429 934 
Q 1834 422 2522 422 
Q 3209 422 3611 934 
Q 4013 1447 4013 2328 
Q 4013 3213 3611 3725 
Q 3209 4238 2522 4238 
z
M 2522 4750 
Q 3503 4750 4090 4092 
Q 4678 3434 4678 2328 
Q 4678 1225 4090 567 
Q 3503 -91 2522 -91 
Q 1538 -91 948 565 
Q 359 1222 359 2328 
Q 359 3434 948 4092 
Q 1538 4750 2522 4750 
z
" transform="scale(0.015625)"/>
       </defs>
       <use xlink:href="#DejaVuSans-54"/>
       <use xlink:href="#DejaVuSans-65" transform="translate(44.083984 0)"/>
       <use xlink:href="#DejaVuSans-6d" transform="translate(105.607422 0)"/>
       <use xlink:href="#DejaVuSans-70" transform="translate(203.019531 0)"/>
       <use xlink:href="#DejaVuSans-6f" transform="translate(266.496094 0)"/>
       <use xlink:href="#DejaVuSans-72" transform="translate(327.677734 0)"/>
       <use xlink:href="#DejaVuSans-61" transform="translate(368.791016 0)"/>
       <use xlink:href="#DejaVuSans-6c" transform="translate(430.070312 0)"/>
       <use xlink:href="#DejaVuSans-20" transform="translate(457.853516 0)"/>
       <use xlink:href="#DejaVuSans-61" transform="translate(489.640625 0)"/>
       <use xlink:href="#DejaVuSans-6e" transform="translate(550.919922 0)"/>
       <use xlink:href="#DejaVuSans-64" transform="translate(614.298828 0)"/>
       <use xlink:href="#DejaVuSans-20" transform="translate(677.775391 0)"/>
       <use xlink:href="#DejaVuSans-4f" transform="translate(709.5625 0)"/>
       <use xlink:href="#DejaVuSans-72" transform="translate(788.273438 0)"/>
       <use xlink:href="#DejaVuSans-64" transform="translate(827.636719 0)"/>
       <use xlink:href="#DejaVuSans-65" transform="translate(891.113281 0)"/>
       <use xlink:href="#DejaVuSans-72" transform="translate(952.636719 0)"/>
       <use xlink:href="#DejaVuSans-69" transform="translate(993.75 0)"/>
       <use xlink:href="#DejaVuSans-6e" transform="translate(1021.533203 0)"/>
       <use xlink:href="#DejaVuSans-67" transform="translate(1084.912109 0)"/>
      </g>
      <!-- Reasoning -->
      <g transform="translate(459.979159 160.66203) scale(0.1 -0.1)">
       <use xlink:href="#DejaVuSans-52"/>
       <use xlink:href="#DejaVuSans-65" transform="translate(64.982422 0)"/>
       <use xlink:href="#DejaVuSans-61" transform="translate(126.505859 0)"/>
       <use xlink:href="#DejaVuSans-73" transform="translate(187.785156 0)"/>
       <use xlink:href="#DejaVuSans-6f" transform="translate(239.884766 0)"/>
       <use xlink:href="#DejaVuSans-6e" transform="translate(301.066406 0)"/>
       <use xlink:href="#DejaVuSans-69" transform="translate(364.445312 0)"/>
       <use xlink:href="#DejaVuSans-6e" transform="translate(392.228516 0)"/>
       <use xlink:href="#DejaVuSans-67" transform="translate(455.607422 0)"/>
      </g>
     </g>
    </g>
    <g id="xtick_3">
     <g id="line2d_3">
      <path d="M 295.2 290.88 
L 363.727609 79.973707 
" clip-path="url(#p65aba41183)" style="fill: none; stroke: #b0b0b0; stroke-width: 0.8; stroke-linecap: square"/>
     </g>
     <g id="text_3">
      <!-- Logical/Consistency -->
      <g transform="translate(318.614003 63.819384) scale(0.1 -0.1)">
       <defs>
        <path id="DejaVuSans-4c" d="M 628 4666 
L 1259 4666 
L 1259 531 
L 3531 531 
L 3531 0 
L 628 0 
L 628 4666 
z
" transform="scale(0.015625)"/>
        <path id="DejaVuSans-79" d="M 2059 -325 
Q 1816 -950 1584 -1140 
Q 1353 -1331 966 -1331 
L 506 -1331 
L 506 -850 
L 844 -850 
Q 1081 -850 1212 -737 
Q 1344 -625 1503 -206 
L 1606 56 
L 191 3500 
L 800 3500 
L 1894 763 
L 2988 3500 
L 3597 3500 
L 2059 -325 
z
" transform="scale(0.015625)"/>
       </defs>
       <use xlink:href="#DejaVuSans-4c"/>
       <use xlink:href="#DejaVuSans-6f" transform="translate(53.962891 0)"/>
       <use xlink:href="#DejaVuSans-67" transform="translate(115.144531 0)"/>
       <use xlink:href="#DejaVuSans-69" transform="translate(178.621094 0)"/>
       <use xlink:href="#DejaVuSans-63" transform="translate(206.404297 0)"/>
       <use xlink:href="#DejaVuSans-61" transform="translate(261.384766 0)"/>
       <use xlink:href="#DejaVuSans-6c" transform="translate(322.664062 0)"/>
       <use xlink:href="#DejaVuSans-2f" transform="translate(350.447266 0)"/>
       <use xlink:href="#DejaVuSans-43" transform="translate(384.138672 0)"/>
       <use xlink:href="#DejaVuSans-6f" transform="translate(453.962891 0)"/>
       <use xlink:href="#DejaVuSans-6e" transform="translate(515.144531 0)"/>
       <use xlink:href="#DejaVuSans-73" transform="translate(578.523438 0)"/>
       <use xlink:href="#DejaVuSans-69" transform="translate(630.623047 0)"/>
       <use xlink:href="#DejaVuSans-73" transform="translate(658.40625 0)"/>
       <use xlink:href="#DejaVuSans-74" transform="translate(710.505859 0)"/>
       <use xlink:href="#DejaVuSans-65" transform="translate(749.714844 0)"/>
       <use xlink:href="#DejaVuSans-6e" transform="translate(811.238281 0)"/>
       <use xlink:href="#DejaVuSans-63" transform="translate(874.617188 0)"/>
       <use xlink:href="#DejaVuSans-79" transform="translate(929.597656 0)"/>
      </g>
      <!-- Reasoning -->
      <g transform="translate(342.099159 75.017197) scale(0.1 -0.1)">
       <use xlink:href="#DejaVuSans-52"/>
       <use xlink:href="#DejaVuSans-65" transform="translate(64.982422 0)"/>
       <use xlink:href="#DejaVuSans-61" transform="translate(126.505859 0)"/>
       <use xlink:href="#DejaVuSans-73" transform="translate(187.785156 0)"/>
       <use xlink:href="#DejaVuSans-6f" transform="translate(239.884766 0)"/>
       <use xlink:href="#DejaVuSans-6e" transform="translate(301.066406 0)"/>
       <use xlink:href="#DejaVuSans-69" transform="translate(364.445312 0)"/>
       <use xlink:href="#DejaVuSans-6e" transform="translate(392.228516 0)"/>
       <use xlink:href="#DejaVuSans-67" transform="translate(455.607422 0)"/>
      </g>
     </g>
    </g>
    <g id="xtick_4">
     <g id="line2d_4">
      <path d="M 295.2 290.88 
L 226.672391 79.973707 
" clip-path="url(#p65aba41183)" style="fill: none; stroke: #b0b0b0; stroke-width: 0.8; stroke-linecap: square"/>
     </g>
     <g id="text_4">
      <!-- Cross-frontier Entity -->
      <g transform="translate(172.240685 63.819384) scale(0.1 -0.1)">
       <defs>
        <path id="DejaVuSans-2d" d="M 313 2009 
L 1997 2009 
L 1997 1497 
L 313 1497 
L 313 2009 
z
" transform="scale(0.015625)"/>
        <path id="DejaVuSans-66" d="M 2375 4863 
L 2375 4384 
L 1825 4384 
Q 1516 4384 1395 4259 
Q 1275 4134 1275 3809 
L 1275 3500 
L 2222 3500 
L 2222 3053 
L 1275 3053 
L 1275 0 
L 697 0 
L 697 3053 
L 147 3053 
L 147 3500 
L 697 3500 
L 697 3744 
Q 697 4328 969 4595 
Q 1241 4863 1831 4863 
L 2375 4863 
z
" transform="scale(0.015625)"/>
        <path id="DejaVuSans-45" d="M 628 4666 
L 3578 4666 
L 3578 4134 
L 1259 4134 
L 1259 2753 
L 3481 2753 
L 3481 2222 
L 1259 2222 
L 1259 531 
L 3634 531 
L 3634 0 
L 628 0 
L 628 4666 
z
" transform="scale(0.015625)"/>
       </defs>
       <use xlink:href="#DejaVuSans-43"/>
       <use xlink:href="#DejaVuSans-72" transform="translate(69.824219 0)"/>
       <use xlink:href="#DejaVuSans-6f" transform="translate(108.6875 0)"/>
       <use xlink:href="#DejaVuSans-73" transform="translate(169.869141 0)"/>
       <use xlink:href="#DejaVuSans-73" transform="translate(221.96875 0)"/>
       <use xlink:href="#DejaVuSans-2d" transform="translate(274.068359 0)"/>
       <use xlink:href="#DejaVuSans-66" transform="translate(310.152344 0)"/>
       <use xlink:href="#DejaVuSans-72" transform="translate(345.357422 0)"/>
       <use xlink:href="#DejaVuSans-6f" transform="translate(384.220703 0)"/>
       <use xlink:href="#DejaVuSans-6e" transform="translate(445.402344 0)"/>
       <use xlink:href="#DejaVuSans-74" transform="translate(508.78125 0)"/>
       <use xlink:href="#DejaVuSans-69" transform="translate(547.990234 0)"/>
       <use xlink:href="#DejaVuSans-65" transform="translate(575.773438 0)"/>
       <use xlink:href="#DejaVuSans-72" transform="translate(637.296875 0)"/>
       <use xlink:href="#DejaVuSans-20" transform="translate(678.410156 0)"/>
       <use xlink:href="#DejaVuSans-45" transform="translate(710.197266 0)"/>
       <use xlink:href="#DejaVuSans-6e" transform="translate(773.380859 0)"/>
       <use xlink:href="#DejaVuSans-74" transform="translate(836.759766 0)"/>
       <use xlink:href="#DejaVuSans-69" transform="translate(875.96875 0)"/>
       <use xlink:href="#DejaVuSans-74" transform="translate(903.751953 0)"/>
       <use xlink:href="#DejaVuSans-79" transform="translate(942.960938 0)"/>
      </g>
      <!-- Linking -->
      <g transform="translate(204.37506 75.017197) scale(0.1 -0.1)">
       <defs>
        <path id="DejaVuSans-6b" d="M 581 4863 
L 1159 4863 
L 1159 1991 
L 2875 3500 
L 3609 3500 
L 1753 1863 
L 3688 0 
L 2938 0 
L 1159 1709 
L 1159 0 
L 581 0 
L 581 4863 
z
" transform="scale(0.015625)"/>
       </defs>
       <use xlink:href="#DejaVuSans-4c"/>
       <use xlink:href="#DejaVuSans-69" transform="translate(55.712891 0)"/>
       <use xlink:href="#DejaVuSans-6e" transform="translate(83.496094 0)"/>
       <use xlink:href="#DejaVuSans-6b" transform="translate(146.875 0)"/>
       <use xlink:href="#DejaVuSans-69" transform="translate(204.785156 0)"/>
       <use xlink:href="#DejaVuSans-6e" transform="translate(232.568359 0)"/>
       <use xlink:href="#DejaVuSans-67" transform="translate(295.947266 0)"/>
      </g>
     </g>
    </g>
    <g id="xtick_5">
     <g id="line2d_5">
      <path d="M 295.2 290.88 
L 115.792391 160.532742 
" clip-path="url(#p65aba41183)" style="fill: none; stroke: #b0b0b0; stroke-width: 0.8; stroke-linecap: square"/>
     </g>
     <g id="text_5">
      <!-- Semantic Abstraction and -->
      <g transform="translate(39.823185 149.464218) scale(0.1 -0.1)">
       <defs>
        <path id="DejaVuSans-53" d="M 3425 4513 
L 3425 3897 
Q 3066 4069 2747 4153 
Q 2428 4238 2131 4238 
Q 1616 4238 1336 4038 
Q 1056 3838 1056 3469 
Q 1056 3159 1242 3001 
Q 1428 2844 1947 2747 
L 2328 2669 
Q 3034 2534 3370 2195 
Q 3706 1856 3706 1288 
Q 3706 609 3251 259 
Q 2797 -91 1919 -91 
Q 1588 -91 1214 -16 
Q 841 59 441 206 
L 441 856 
Q 825 641 1194 531 
Q 1563 422 1919 422 
Q 2459 422 2753 634 
Q 3047 847 3047 1241 
Q 3047 1584 2836 1778 
Q 2625 1972 2144 2069 
L 1759 2144 
Q 1053 2284 737 2584 
Q 422 2884 422 3419 
Q 422 4038 858 4394 
Q 1294 4750 2059 4750 
Q 2388 4750 2728 4690 
Q 3069 4631 3425 4513 
z
" transform="scale(0.015625)"/>
        <path id="DejaVuSans-62" d="M 3116 1747 
Q 3116 2381 2855 2742 
Q 2594 3103 2138 3103 
Q 1681 3103 1420 2742 
Q 1159 2381 1159 1747 
Q 1159 1113 1420 752 
Q 1681 391 2138 391 
Q 2594 391 2855 752 
Q 3116 1113 3116 1747 
z
M 1159 2969 
Q 1341 3281 1617 3432 
Q 1894 3584 2278 3584 
Q 2916 3584 3314 3078 
Q 3713 2572 3713 1747 
Q 3713 922 3314 415 
Q 2916 -91 2278 -91 
Q 1894 -91 1617 61 
Q 1341 213 1159 525 
L 1159 0 
L 581 0 
L 581 4863 
L 1159 4863 
L 1159 2969 
z
" transform="scale(0.015625)"/>
       </defs>
       <use xlink:href="#DejaVuSans-53"/>
       <use xlink:href="#DejaVuSans-65" transform="translate(63.476562 0)"/>
       <use xlink:href="#DejaVuSans-6d" transform="translate(125 0)"/>
       <use xlink:href="#DejaVuSans-61" transform="translate(222.412109 0)"/>
       <use xlink:href="#DejaVuSans-6e" transform="translate(283.691406 0)"/>
       <use xlink:href="#DejaVuSans-74" transform="translate(347.070312 0)"/>
       <use xlink:href="#DejaVuSans-69" transform="translate(386.279297 0)"/>
       <use xlink:href="#DejaVuSans-63" transform="translate(414.0625 0)"/>
       <use xlink:href="#DejaVuSans-20" transform="translate(469.042969 0)"/>
       <use xlink:href="#DejaVuSans-41" transform="translate(500.830078 0)"/>
       <use xlink:href="#DejaVuSans-62" transform="translate(569.238281 0)"/>
       <use xlink:href="#DejaVuSans-73" transform="translate(632.714844 0)"/>
       <use xlink:href="#DejaVuSans-74" transform="translate(684.814453 0)"/>
       <use xlink:href="#DejaVuSans-72" transform="translate(724.023438 0)"/>
       <use xlink:href="#DejaVuSans-61" transform="translate(765.136719 0)"/>
       <use xlink:href="#DejaVuSans-63" transform="translate(826.416016 0)"/>
       <use xlink:href="#DejaVuSans-74" transform="translate(881.396484 0)"/>
       <use xlink:href="#DejaVuSans-69" transform="translate(920.605469 0)"/>
       <use xlink:href="#DejaVuSans-6f" transform="translate(948.388672 0)"/>
       <use xlink:href="#DejaVuSans-6e" transform="translate(1009.570312 0)"/>
       <use xlink:href="#DejaVuSans-20" transform="translate(1072.949219 0)"/>
       <use xlink:href="#DejaVuSans-61" transform="translate(1104.736328 0)"/>
       <use xlink:href="#DejaVuSans-6e" transform="translate(1166.015625 0)"/>
       <use xlink:href="#DejaVuSans-64" transform="translate(1229.394531 0)"/>
      </g>
      <!-- Summarization -->
      <g transform="translate(66.608341 160.66203) scale(0.1 -0.1)">
       <defs>
        <path id="DejaVuSans-7a" d="M 353 3500 
L 3084 3500 
L 3084 2975 
L 922 459 
L 3084 459 
L 3084 0 
L 275 0 
L 275 525 
L 2438 3041 
L 353 3041 
L 353 3500 
z
" transform="scale(0.015625)"/>
       </defs>
       <use xlink:href="#DejaVuSans-53"/>
       <use xlink:href="#DejaVuSans-75" transform="translate(63.476562 0)"/>
       <use xlink:href="#DejaVuSans-6d" transform="translate(126.855469 0)"/>
       <use xlink:href="#DejaVuSans-6d" transform="translate(224.267578 0)"/>
       <use xlink:href="#DejaVuSans-61" transform="translate(321.679688 0)"/>
       <use xlink:href="#DejaVuSans-72" transform="translate(382.958984 0)"/>
       <use xlink:href="#DejaVuSans-69" transform="translate(424.072266 0)"/>
       <use xlink:href="#DejaVuSans-7a" transform="translate(451.855469 0)"/>
       <use xlink:href="#DejaVuSans-61" transform="translate(504.345703 0)"/>
       <use xlink:href="#DejaVuSans-74" transform="translate(565.625 0)"/>
       <use xlink:href="#DejaVuSans-69" transform="translate(604.833984 0)"/>
       <use xlink:href="#DejaVuSans-6f" transform="translate(632.617188 0)"/>
       <use xlink:href="#DejaVuSans-6e" transform="translate(693.798828 0)"/>
      </g>
     </g>
    </g>
    <g id="xtick_6">
     <g id="line2d_6">
      <path d="M 295.2 290.88 
L 73.44 290.88 
" clip-path="url(#p65aba41183)" style="fill: none; stroke: #b0b0b0; stroke-width: 0.8; stroke-linecap: square"/>
     </g>
     <g id="text_6">
      <!-- Ground Truth and World -->
      <g transform="translate(-0.120156 288.040469) scale(0.1 -0.1)">
       <defs>
        <path id="DejaVuSans-47" d="M 3809 666 
L 3809 1919 
L 2778 1919 
L 2778 2438 
L 4434 2438 
L 4434 434 
Q 4069 175 3628 42 
Q 3188 -91 2688 -91 
Q 1594 -91 976 548 
Q 359 1188 359 2328 
Q 359 3472 976 4111 
Q 1594 4750 2688 4750 
Q 3144 4750 3555 4637 
Q 3966 4525 4313 4306 
L 4313 3634 
Q 3963 3931 3569 4081 
Q 3175 4231 2741 4231 
Q 1884 4231 1454 3753 
Q 1025 3275 1025 2328 
Q 1025 1384 1454 906 
Q 1884 428 2741 428 
Q 3075 428 3337 486 
Q 3600 544 3809 666 
z
" transform="scale(0.015625)"/>
        <path id="DejaVuSans-57" d="M 213 4666 
L 850 4666 
L 1831 722 
L 2809 4666 
L 3519 4666 
L 4500 722 
L 5478 4666 
L 6119 4666 
L 4947 0 
L 4153 0 
L 3169 4050 
L 2175 0 
L 1381 0 
L 213 4666 
z
" transform="scale(0.015625)"/>
       </defs>
       <use xlink:href="#DejaVuSans-47"/>
       <use xlink:href="#DejaVuSans-72" transform="translate(77.490234 0)"/>
       <use xlink:href="#DejaVuSans-6f" transform="translate(116.353516 0)"/>
       <use xlink:href="#DejaVuSans-75" transform="translate(177.535156 0)"/>
       <use xlink:href="#DejaVuSans-6e" transform="translate(240.914062 0)"/>
       <use xlink:href="#DejaVuSans-64" transform="translate(304.292969 0)"/>
       <use xlink:href="#DejaVuSans-20" transform="translate(367.769531 0)"/>
       <use xlink:href="#DejaVuSans-54" transform="translate(399.556641 0)"/>
       <use xlink:href="#DejaVuSans-72" transform="translate(445.890625 0)"/>
       <use xlink:href="#DejaVuSans-75" transform="translate(487.003906 0)"/>
       <use xlink:href="#DejaVuSans-74" transform="translate(550.382812 0)"/>
       <use xlink:href="#DejaVuSans-68" transform="translate(589.591797 0)"/>
       <use xlink:href="#DejaVuSans-20" transform="translate(652.970703 0)"/>
       <use xlink:href="#DejaVuSans-61" transform="translate(684.757812 0)"/>
       <use xlink:href="#DejaVuSans-6e" transform="translate(746.037109 0)"/>
       <use xlink:href="#DejaVuSans-64" transform="translate(809.416016 0)"/>
       <use xlink:href="#DejaVuSans-20" transform="translate(872.892578 0)"/>
       <use xlink:href="#DejaVuSans-57" transform="translate(904.679688 0)"/>
       <use xlink:href="#DejaVuSans-6f" transform="translate(997.681641 0)"/>
       <use xlink:href="#DejaVuSans-72" transform="translate(1058.863281 0)"/>
       <use xlink:href="#DejaVuSans-6c" transform="translate(1099.976562 0)"/>
       <use xlink:href="#DejaVuSans-64" transform="translate(1127.759766 0)"/>
      </g>
      <!-- Knowledge Integration -->
      <g transform="translate(2.812656 299.238281) scale(0.1 -0.1)">
       <defs>
        <path id="DejaVuSans-4b" d="M 628 4666 
L 1259 4666 
L 1259 2694 
L 3353 4666 
L 4166 4666 
L 1850 2491 
L 4331 0 
L 3500 0 
L 1259 2247 
L 1259 0 
L 628 0 
L 628 4666 
z
" transform="scale(0.015625)"/>
        <path id="DejaVuSans-77" d="M 269 3500 
L 844 3500 
L 1563 769 
L 2278 3500 
L 2956 3500 
L 3675 769 
L 4391 3500 
L 4966 3500 
L 4050 0 
L 3372 0 
L 2619 2869 
L 1863 0 
L 1184 0 
L 269 3500 
z
" transform="scale(0.015625)"/>
        <path id="DejaVuSans-49" d="M 628 4666 
L 1259 4666 
L 1259 0 
L 628 0 
L 628 4666 
z
" transform="scale(0.015625)"/>
       </defs>
       <use xlink:href="#DejaVuSans-4b"/>
       <use xlink:href="#DejaVuSans-6e" transform="translate(65.576172 0)"/>
       <use xlink:href="#DejaVuSans-6f" transform="translate(128.955078 0)"/>
       <use xlink:href="#DejaVuSans-77" transform="translate(190.136719 0)"/>
       <use xlink:href="#DejaVuSans-6c" transform="translate(271.923828 0)"/>
       <use xlink:href="#DejaVuSans-65" transform="translate(299.707031 0)"/>
       <use xlink:href="#DejaVuSans-64" transform="translate(361.230469 0)"/>
       <use xlink:href="#DejaVuSans-67" transform="translate(424.707031 0)"/>
       <use xlink:href="#DejaVuSans-65" transform="translate(488.183594 0)"/>
       <use xlink:href="#DejaVuSans-20" transform="translate(549.707031 0)"/>
       <use xlink:href="#DejaVuSans-49" transform="translate(581.494141 0)"/>
       <use xlink:href="#DejaVuSans-6e" transform="translate(610.986328 0)"/>
       <use xlink:href="#DejaVuSans-74" transform="translate(674.365234 0)"/>
       <use xlink:href="#DejaVuSans-65" transform="translate(713.574219 0)"/>
       <use xlink:href="#DejaVuSans-67" transform="translate(775.097656 0)"/>
       <use xlink:href="#DejaVuSans-72" transform="translate(838.574219 0)"/>
       <use xlink:href="#DejaVuSans-61" transform="translate(879.6875 0)"/>
       <use xlink:href="#DejaVuSans-74" transform="translate(940.966797 0)"/>
       <use xlink:href="#DejaVuSans-69" transform="translate(980.175781 0)"/>
       <use xlink:href="#DejaVuSans-6f" transform="translate(1007.958984 0)"/>
       <use xlink:href="#DejaVuSans-6e" transform="translate(1069.140625 0)"/>
      </g>
     </g>
    </g>
    <g id="xtick_7">
     <g id="line2d_7">
      <path d="M 295.2 290.88 
L 115.792391 421.227258 
" clip-path="url(#p65aba41183)" style="fill: none; stroke: #b0b0b0; stroke-width: 0.8; stroke-linecap: square"/>
     </g>
     <g id="text_7">
      <!-- Speaker Intent, -->
      <g transform="translate(66.143497 421.017814) scale(0.1 -0.1)">
       <defs>
        <path id="DejaVuSans-2c" d="M 750 794 
L 1409 794 
L 1409 256 
L 897 -744 
L 494 -744 
L 750 256 
L 750 794 
z
" transform="scale(0.015625)"/>
       </defs>
       <use xlink:href="#DejaVuSans-53"/>
       <use xlink:href="#DejaVuSans-70" transform="translate(63.476562 0)"/>
       <use xlink:href="#DejaVuSans-65" transform="translate(126.953125 0)"/>
       <use xlink:href="#DejaVuSans-61" transform="translate(188.476562 0)"/>
       <use xlink:href="#DejaVuSans-6b" transform="translate(249.755859 0)"/>
       <use xlink:href="#DejaVuSans-65" transform="translate(304.041016 0)"/>
       <use xlink:href="#DejaVuSans-72" transform="translate(365.564453 0)"/>
       <use xlink:href="#DejaVuSans-20" transform="translate(406.677734 0)"/>
       <use xlink:href="#DejaVuSans-49" transform="translate(438.464844 0)"/>
       <use xlink:href="#DejaVuSans-6e" transform="translate(467.957031 0)"/>
       <use xlink:href="#DejaVuSans-74" transform="translate(531.335938 0)"/>
       <use xlink:href="#DejaVuSans-65" transform="translate(570.544922 0)"/>
       <use xlink:href="#DejaVuSans-6e" transform="translate(632.068359 0)"/>
       <use xlink:href="#DejaVuSans-74" transform="translate(695.447266 0)"/>
       <use xlink:href="#DejaVuSans-2c" transform="translate(734.65625 0)"/>
      </g>
      <!-- Pragmatics and Causal -->
      <g transform="translate(47.240372 432.215626) scale(0.1 -0.1)">
       <defs>
        <path id="DejaVuSans-50" d="M 1259 4147 
L 1259 2394 
L 2053 2394 
Q 2494 2394 2734 2622 
Q 2975 2850 2975 3272 
Q 2975 3691 2734 3919 
Q 2494 4147 2053 4147 
L 1259 4147 
z
M 628 4666 
L 2053 4666 
Q 2838 4666 3239 4311 
Q 3641 3956 3641 3272 
Q 3641 2581 3239 2228 
Q 2838 1875 2053 1875 
L 1259 1875 
L 1259 0 
L 628 0 
L 628 4666 
z
" transform="scale(0.015625)"/>
       </defs>
       <use xlink:href="#DejaVuSans-50"/>
       <use xlink:href="#DejaVuSans-72" transform="translate(58.552734 0)"/>
       <use xlink:href="#DejaVuSans-61" transform="translate(99.666016 0)"/>
       <use xlink:href="#DejaVuSans-67" transform="translate(160.945312 0)"/>
       <use xlink:href="#DejaVuSans-6d" transform="translate(224.421875 0)"/>
       <use xlink:href="#DejaVuSans-61" transform="translate(321.833984 0)"/>
       <use xlink:href="#DejaVuSans-74" transform="translate(383.113281 0)"/>
       <use xlink:href="#DejaVuSans-69" transform="translate(422.322266 0)"/>
       <use xlink:href="#DejaVuSans-63" transform="translate(450.105469 0)"/>
       <use xlink:href="#DejaVuSans-73" transform="translate(505.085938 0)"/>
       <use xlink:href="#DejaVuSans-20" transform="translate(557.185547 0)"/>
       <use xlink:href="#DejaVuSans-61" transform="translate(588.972656 0)"/>
       <use xlink:href="#DejaVuSans-6e" transform="translate(650.251953 0)"/>
       <use xlink:href="#DejaVuSans-64" transform="translate(713.630859 0)"/>
       <use xlink:href="#DejaVuSans-20" transform="translate(777.107422 0)"/>
       <use xlink:href="#DejaVuSans-43" transform="translate(808.894531 0)"/>
       <use xlink:href="#DejaVuSans-61" transform="translate(878.71875 0)"/>
       <use xlink:href="#DejaVuSans-75" transform="translate(939.998047 0)"/>
       <use xlink:href="#DejaVuSans-73" transform="translate(1003.376953 0)"/>
       <use xlink:href="#DejaVuSans-61" transform="translate(1055.476562 0)"/>
       <use xlink:href="#DejaVuSans-6c" transform="translate(1116.755859 0)"/>
      </g>
      <!-- Reasoning -->
      <g transform="translate(78.511466 443.413439) scale(0.1 -0.1)">
       <use xlink:href="#DejaVuSans-52"/>
       <use xlink:href="#DejaVuSans-65" transform="translate(64.982422 0)"/>
       <use xlink:href="#DejaVuSans-61" transform="translate(126.505859 0)"/>
       <use xlink:href="#DejaVuSans-73" transform="translate(187.785156 0)"/>
       <use xlink:href="#DejaVuSans-6f" transform="translate(239.884766 0)"/>
       <use xlink:href="#DejaVuSans-6e" transform="translate(301.066406 0)"/>
       <use xlink:href="#DejaVuSans-69" transform="translate(364.445312 0)"/>
       <use xlink:href="#DejaVuSans-6e" transform="translate(392.228516 0)"/>
       <use xlink:href="#DejaVuSans-67" transform="translate(455.607422 0)"/>
      </g>
     </g>
    </g>
    <g id="xtick_8">
     <g id="line2d_8">
      <path d="M 295.2 290.88 
L 226.672391 501.786293 
" clip-path="url(#p65aba41183)" style="fill: none; stroke: #b0b0b0; stroke-width: 0.8; stroke-linecap: square"/>
     </g>
     <g id="text_8">
      <!-- Contextual/Causal -->
      <g transform="translate(176.669591 512.261553) scale(0.1 -0.1)">
       <defs>
        <path id="DejaVuSans-78" d="M 3513 3500 
L 2247 1797 
L 3578 0 
L 2900 0 
L 1881 1375 
L 863 0 
L 184 0 
L 1544 1831 
L 300 3500 
L 978 3500 
L 1906 2253 
L 2834 3500 
L 3513 3500 
z
" transform="scale(0.015625)"/>
       </defs>
       <use xlink:href="#DejaVuSans-43"/>
       <use xlink:href="#DejaVuSans-6f" transform="translate(69.824219 0)"/>
       <use xlink:href="#DejaVuSans-6e" transform="translate(131.005859 0)"/>
       <use xlink:href="#DejaVuSans-74" transform="translate(194.384766 0)"/>
       <use xlink:href="#DejaVuSans-65" transform="translate(233.59375 0)"/>
       <use xlink:href="#DejaVuSans-78" transform="translate(293.367188 0)"/>
       <use xlink:href="#DejaVuSans-74" transform="translate(352.546875 0)"/>
       <use xlink:href="#DejaVuSans-75" transform="translate(391.755859 0)"/>
       <use xlink:href="#DejaVuSans-61" transform="translate(455.134766 0)"/>
       <use xlink:href="#DejaVuSans-6c" transform="translate(516.414062 0)"/>
       <use xlink:href="#DejaVuSans-2f" transform="translate(544.197266 0)"/>
       <use xlink:href="#DejaVuSans-43" transform="translate(577.888672 0)"/>
       <use xlink:href="#DejaVuSans-61" transform="translate(647.712891 0)"/>
       <use xlink:href="#DejaVuSans-75" transform="translate(708.992188 0)"/>
       <use xlink:href="#DejaVuSans-73" transform="translate(772.371094 0)"/>
       <use xlink:href="#DejaVuSans-61" transform="translate(824.470703 0)"/>
       <use xlink:href="#DejaVuSans-6c" transform="translate(885.75 0)"/>
      </g>
      <!-- Scenario Reasoning -->
      <g transform="translate(173.065685 523.459366) scale(0.1 -0.1)">
       <use xlink:href="#DejaVuSans-53"/>
       <use xlink:href="#DejaVuSans-63" transform="translate(63.476562 0)"/>
       <use xlink:href="#DejaVuSans-65" transform="translate(118.457031 0)"/>
       <use xlink:href="#DejaVuSans-6e" transform="translate(179.980469 0)"/>
       <use xlink:href="#DejaVuSans-61" transform="translate(243.359375 0)"/>
       <use xlink:href="#DejaVuSans-72" transform="translate(304.638672 0)"/>
       <use xlink:href="#DejaVuSans-69" transform="translate(345.751953 0)"/>
       <use xlink:href="#DejaVuSans-6f" transform="translate(373.535156 0)"/>
       <use xlink:href="#DejaVuSans-20" transform="translate(434.716797 0)"/>
       <use xlink:href="#DejaVuSans-52" transform="translate(466.503906 0)"/>
       <use xlink:href="#DejaVuSans-65" transform="translate(531.486328 0)"/>
       <use xlink:href="#DejaVuSans-61" transform="translate(593.009766 0)"/>
       <use xlink:href="#DejaVuSans-73" transform="translate(654.289062 0)"/>
       <use xlink:href="#DejaVuSans-6f" transform="translate(706.388672 0)"/>
       <use xlink:href="#DejaVuSans-6e" transform="translate(767.570312 0)"/>
       <use xlink:href="#DejaVuSans-69" transform="translate(830.949219 0)"/>
       <use xlink:href="#DejaVuSans-6e" transform="translate(858.732422 0)"/>
       <use xlink:href="#DejaVuSans-67" transform="translate(922.111328 0)"/>
      </g>
     </g>
    </g>
    <g id="xtick_9">
     <g id="line2d_9">
      <path d="M 295.2 290.88 
L 363.727609 501.786293 
" clip-path="url(#p65aba41183)" style="fill: none; stroke: #b0b0b0; stroke-width: 0.8; stroke-linecap: square"/>
     </g>
     <g id="text_9">
      <!-- Comparative and -->
      <g transform="translate(324.89369 506.662647) scale(0.1 -0.1)">
       <use xlink:href="#DejaVuSans-43"/>
       <use xlink:href="#DejaVuSans-6f" transform="translate(69.824219 0)"/>
       <use xlink:href="#DejaVuSans-6d" transform="translate(131.005859 0)"/>
       <use xlink:href="#DejaVuSans-70" transform="translate(228.417969 0)"/>
       <use xlink:href="#DejaVuSans-61" transform="translate(291.894531 0)"/>
       <use xlink:href="#DejaVuSans-72" transform="translate(353.173828 0)"/>
       <use xlink:href="#DejaVuSans-61" transform="translate(394.287109 0)"/>
       <use xlink:href="#DejaVuSans-74" transform="translate(455.566406 0)"/>
       <use xlink:href="#DejaVuSans-69" transform="translate(494.775391 0)"/>
       <use xlink:href="#DejaVuSans-76" transform="translate(522.558594 0)"/>
       <use xlink:href="#DejaVuSans-65" transform="translate(581.738281 0)"/>
       <use xlink:href="#DejaVuSans-20" transform="translate(643.261719 0)"/>
       <use xlink:href="#DejaVuSans-61" transform="translate(675.048828 0)"/>
       <use xlink:href="#DejaVuSans-6e" transform="translate(736.328125 0)"/>
       <use xlink:href="#DejaVuSans-64" transform="translate(799.707031 0)"/>
      </g>
      <!-- Preference-Based -->
      <g transform="translate(324.283534 517.860459) scale(0.1 -0.1)">
       <defs>
        <path id="DejaVuSans-42" d="M 1259 2228 
L 1259 519 
L 2272 519 
Q 2781 519 3026 730 
Q 3272 941 3272 1375 
Q 3272 1813 3026 2020 
Q 2781 2228 2272 2228 
L 1259 2228 
z
M 1259 4147 
L 1259 2741 
L 2194 2741 
Q 2656 2741 2882 2914 
Q 3109 3088 3109 3444 
Q 3109 3797 2882 3972 
Q 2656 4147 2194 4147 
L 1259 4147 
z
M 628 4666 
L 2241 4666 
Q 2963 4666 3353 4366 
Q 3744 4066 3744 3513 
Q 3744 3084 3544 2831 
Q 3344 2578 2956 2516 
Q 3422 2416 3680 2098 
Q 3938 1781 3938 1306 
Q 3938 681 3513 340 
Q 3088 0 2303 0 
L 628 0 
L 628 4666 
z
" transform="scale(0.015625)"/>
       </defs>
       <use xlink:href="#DejaVuSans-50"/>
       <use xlink:href="#DejaVuSans-72" transform="translate(58.552734 0)"/>
       <use xlink:href="#DejaVuSans-65" transform="translate(97.416016 0)"/>
       <use xlink:href="#DejaVuSans-66" transform="translate(158.939453 0)"/>
       <use xlink:href="#DejaVuSans-65" transform="translate(194.144531 0)"/>
       <use xlink:href="#DejaVuSans-72" transform="translate(255.667969 0)"/>
       <use xlink:href="#DejaVuSans-65" transform="translate(294.53125 0)"/>
       <use xlink:href="#DejaVuSans-6e" transform="translate(356.054688 0)"/>
       <use xlink:href="#DejaVuSans-63" transform="translate(419.433594 0)"/>
       <use xlink:href="#DejaVuSans-65" transform="translate(474.414062 0)"/>
       <use xlink:href="#DejaVuSans-2d" transform="translate(535.9375 0)"/>
       <use xlink:href="#DejaVuSans-42" transform="translate(568.396484 0)"/>
       <use xlink:href="#DejaVuSans-61" transform="translate(637 0)"/>
       <use xlink:href="#DejaVuSans-73" transform="translate(698.279297 0)"/>
       <use xlink:href="#DejaVuSans-65" transform="translate(750.378906 0)"/>
       <use xlink:href="#DejaVuSans-64" transform="translate(811.902344 0)"/>
      </g>
      <!-- Judgments -->
      <g transform="translate(341.38119 529.058272) scale(0.1 -0.1)">
       <defs>
        <path id="DejaVuSans-4a" d="M 628 4666 
L 1259 4666 
L 1259 325 
Q 1259 -519 939 -900 
Q 619 -1281 -91 -1281 
L -331 -1281 
L -331 -750 
L -134 -750 
Q 284 -750 456 -515 
Q 628 -281 628 325 
L 628 4666 
z
" transform="scale(0.015625)"/>
       </defs>
       <use xlink:href="#DejaVuSans-4a"/>
       <use xlink:href="#DejaVuSans-75" transform="translate(29.492188 0)"/>
       <use xlink:href="#DejaVuSans-64" transform="translate(92.871094 0)"/>
       <use xlink:href="#DejaVuSans-67" transform="translate(156.347656 0)"/>
       <use xlink:href="#DejaVuSans-6d" transform="translate(219.824219 0)"/>
       <use xlink:href="#DejaVuSans-65" transform="translate(317.236328 0)"/>
       <use xlink:href="#DejaVuSans-6e" transform="translate(378.759766 0)"/>
       <use xlink:href="#DejaVuSans-74" transform="translate(442.138672 0)"/>
       <use xlink:href="#DejaVuSans-73" transform="translate(481.347656 0)"/>
      </g>
     </g>
    </g>
    <g id="xtick_10">
     <g id="line2d_10">
      <path d="M 295.2 290.88 
L 474.607609 421.227258 
" clip-path="url(#p65aba41183)" style="fill: none; stroke: #b0b0b0; stroke-width: 0.8; stroke-linecap: square"/>
     </g>
     <g id="text_10">
      <!-- Social Role and -->
      <g transform="translate(447.749472 426.61672) scale(0.1 -0.1)">
       <use xlink:href="#DejaVuSans-53"/>
       <use xlink:href="#DejaVuSans-6f" transform="translate(63.476562 0)"/>
       <use xlink:href="#DejaVuSans-63" transform="translate(124.658203 0)"/>
       <use xlink:href="#DejaVuSans-69" transform="translate(179.638672 0)"/>
       <use xlink:href="#DejaVuSans-61" transform="translate(207.421875 0)"/>
       <use xlink:href="#DejaVuSans-6c" transform="translate(268.701172 0)"/>
       <use xlink:href="#DejaVuSans-20" transform="translate(296.484375 0)"/>
       <use xlink:href="#DejaVuSans-52" transform="translate(328.271484 0)"/>
       <use xlink:href="#DejaVuSans-6f" transform="translate(393.253906 0)"/>
       <use xlink:href="#DejaVuSans-6c" transform="translate(454.435547 0)"/>
       <use xlink:href="#DejaVuSans-65" transform="translate(482.21875 0)"/>
       <use xlink:href="#DejaVuSans-20" transform="translate(543.742188 0)"/>
       <use xlink:href="#DejaVuSans-61" transform="translate(575.529297 0)"/>
       <use xlink:href="#DejaVuSans-6e" transform="translate(636.808594 0)"/>
       <use xlink:href="#DejaVuSans-64" transform="translate(700.1875 0)"/>
      </g>
      <!-- Relationship Inference -->
      <g transform="translate(430.157284 437.814532) scale(0.1 -0.1)">
       <use xlink:href="#DejaVuSans-52"/>
       <use xlink:href="#DejaVuSans-65" transform="translate(64.982422 0)"/>
       <use xlink:href="#DejaVuSans-6c" transform="translate(126.505859 0)"/>
       <use xlink:href="#DejaVuSans-61" transform="translate(154.289062 0)"/>
       <use xlink:href="#DejaVuSans-74" transform="translate(215.568359 0)"/>
       <use xlink:href="#DejaVuSans-69" transform="translate(254.777344 0)"/>
       <use xlink:href="#DejaVuSans-6f" transform="translate(282.560547 0)"/>
       <use xlink:href="#DejaVuSans-6e" transform="translate(343.742188 0)"/>
       <use xlink:href="#DejaVuSans-73" transform="translate(407.121094 0)"/>
       <use xlink:href="#DejaVuSans-68" transform="translate(459.220703 0)"/>
       <use xlink:href="#DejaVuSans-69" transform="translate(522.599609 0)"/>
       <use xlink:href="#DejaVuSans-70" transform="translate(550.382812 0)"/>
       <use xlink:href="#DejaVuSans-20" transform="translate(613.859375 0)"/>
       <use xlink:href="#DejaVuSans-49" transform="translate(645.646484 0)"/>
       <use xlink:href="#DejaVuSans-6e" transform="translate(675.138672 0)"/>
       <use xlink:href="#DejaVuSans-66" transform="translate(738.517578 0)"/>
       <use xlink:href="#DejaVuSans-65" transform="translate(773.722656 0)"/>
       <use xlink:href="#DejaVuSans-72" transform="translate(835.246094 0)"/>
       <use xlink:href="#DejaVuSans-65" transform="translate(874.109375 0)"/>
       <use xlink:href="#DejaVuSans-6e" transform="translate(935.632812 0)"/>
       <use xlink:href="#DejaVuSans-63" transform="translate(999.011719 0)"/>
       <use xlink:href="#DejaVuSans-65" transform="translate(1053.992188 0)"/>
      </g>
     </g>
    </g>
   </g>
   <g id="matplotlib.axis_2">
    <g id="ytick_1">
     <g id="line2d_11">
      <path d="M 334.059246 290.88 
C 334.059246 285.777051 333.054076 280.723721 331.101262 276.009211 
C 329.148448 271.2947 326.285966 267.010694 322.677636 263.402364 
C 319.069306 259.794034 314.7853 256.931552 310.070789 254.978738 
C 305.356279 253.025924 300.302949 252.020754 295.2 252.020754 
C 290.097051 252.020754 285.043721 253.025924 280.329211 254.978738 
C 275.6147 256.931552 271.330694 259.794034 267.722364 263.402364 
C 264.114034 267.010694 261.251552 271.2947 259.298738 276.009211 
C 257.345924 280.723721 256.340754 285.777051 256.340754 290.88 
C 256.340754 295.982949 257.345924 301.036279 259.298738 305.750789 
C 261.251552 310.4653 264.114034 314.749306 267.722364 318.357636 
C 271.330694 321.965966 275.6147 324.828448 280.329211 326.781262 
C 285.043721 328.734076 290.097051 329.739246 295.2 329.739246 
C 300.302949 329.739246 305.356279 328.734076 310.070789 326.781262 
C 314.7853 324.828448 319.069306 321.965966 322.677636 318.357636 
C 326.285966 314.749306 329.148448 310.4653 331.101262 305.750789 
C 333.054076 301.036279 334.059246 295.982949 334.059246 290.88 
" clip-path="url(#p65aba41183)" style="fill: none; stroke: #b0b0b0; stroke-width: 0.8; stroke-linecap: square"/>
     </g>
     <g id="text_11">
      <!-- 200 -->
      <g transform="translate(331.101262 273.929523) scale(0.1 -0.1)">
       <defs>
        <path id="DejaVuSans-32" d="M 1228 531 
L 3431 531 
L 3431 0 
L 469 0 
L 469 531 
Q 828 903 1448 1529 
Q 2069 2156 2228 2338 
Q 2531 2678 2651 2914 
Q 2772 3150 2772 3378 
Q 2772 3750 2511 3984 
Q 2250 4219 1831 4219 
Q 1534 4219 1204 4116 
Q 875 4013 500 3803 
L 500 4441 
Q 881 4594 1212 4672 
Q 1544 4750 1819 4750 
Q 2544 4750 2975 4387 
Q 3406 4025 3406 3419 
Q 3406 3131 3298 2873 
Q 3191 2616 2906 2266 
Q 2828 2175 2409 1742 
Q 1991 1309 1228 531 
z
" transform="scale(0.015625)"/>
        <path id="DejaVuSans-30" d="M 2034 4250 
Q 1547 4250 1301 3770 
Q 1056 3291 1056 2328 
Q 1056 1369 1301 889 
Q 1547 409 2034 409 
Q 2525 409 2770 889 
Q 3016 1369 3016 2328 
Q 3016 3291 2770 3770 
Q 2525 4250 2034 4250 
z
M 2034 4750 
Q 2819 4750 3233 4129 
Q 3647 3509 3647 2328 
Q 3647 1150 3233 529 
Q 2819 -91 2034 -91 
Q 1250 -91 836 529 
Q 422 1150 422 2328 
Q 422 3509 836 4129 
Q 1250 4750 2034 4750 
z
" transform="scale(0.015625)"/>
       </defs>
       <use xlink:href="#DejaVuSans-32"/>
       <use xlink:href="#DejaVuSans-30" transform="translate(63.623047 0)"/>
       <use xlink:href="#DejaVuSans-30" transform="translate(127.246094 0)"/>
      </g>
     </g>
    </g>
    <g id="ytick_2">
     <g id="line2d_12">
      <path d="M 372.918491 290.88 
C 372.918491 280.674101 370.908152 270.567442 367.002523 261.138421 
C 363.096895 251.7094 357.371932 243.141388 350.155272 235.924728 
C 342.938612 228.708068 334.3706 222.983105 324.941579 219.077477 
C 315.512558 215.171848 305.405899 213.161509 295.2 213.161509 
C 284.994101 213.161509 274.887442 215.171848 265.458421 219.077477 
C 256.0294 222.983105 247.461388 228.708068 240.244728 235.924728 
C 233.028068 243.141388 227.303105 251.7094 223.397477 261.138421 
C 219.491848 270.567442 217.481509 280.674101 217.481509 290.88 
C 217.481509 301.085899 219.491848 311.192558 223.397477 320.621579 
C 227.303105 330.0506 233.028068 338.618612 240.244728 345.835272 
C 247.461388 353.051932 256.0294 358.776895 265.458421 362.682523 
C 274.887442 366.588152 284.994101 368.598491 295.2 368.598491 
C 305.405899 368.598491 315.512558 366.588152 324.941579 362.682523 
C 334.3706 358.776895 342.938612 353.051932 350.155272 345.835272 
C 357.371932 338.618612 363.096895 330.0506 367.002523 320.621579 
C 370.908152 311.192558 372.918491 301.085899 372.918491 290.88 
" clip-path="url(#p65aba41183)" style="fill: none; stroke: #b0b0b0; stroke-width: 0.8; stroke-linecap: square"/>
     </g>
     <g id="text_12">
      <!-- 400 -->
      <g transform="translate(367.002523 259.058734) scale(0.1 -0.1)">
       <defs>
        <path id="DejaVuSans-34" d="M 2419 4116 
L 825 1625 
L 2419 1625 
L 2419 4116 
z
M 2253 4666 
L 3047 4666 
L 3047 1625 
L 3713 1625 
L 3713 1100 
L 3047 1100 
L 3047 0 
L 2419 0 
L 2419 1100 
L 313 1100 
L 313 1709 
L 2253 4666 
z
" transform="scale(0.015625)"/>
       </defs>
       <use xlink:href="#DejaVuSans-34"/>
       <use xlink:href="#DejaVuSans-30" transform="translate(63.623047 0)"/>
       <use xlink:href="#DejaVuSans-30" transform="translate(127.246094 0)"/>
      </g>
     </g>
    </g>
    <g id="ytick_3">
     <g id="line2d_13">
      <path d="M 411.777737 290.88 
C 411.777737 275.571152 408.762228 260.411163 402.903785 246.267632 
C 397.045343 232.1241 388.457899 219.272082 377.632908 208.447092 
C 366.807918 197.622101 353.9559 189.034657 339.812368 183.176215 
C 325.668837 177.317772 310.508848 174.302263 295.2 174.302263 
C 279.891152 174.302263 264.731163 177.317772 250.587632 183.176215 
C 236.4441 189.034657 223.592082 197.622101 212.767092 208.447092 
C 201.942101 219.272082 193.354657 232.1241 187.496215 246.267632 
C 181.637772 260.411163 178.622263 275.571152 178.622263 290.88 
C 178.622263 306.188848 181.637772 321.348837 187.496215 335.492368 
C 193.354657 349.6359 201.942101 362.487918 212.767092 373.312908 
C 223.592082 384.137899 236.4441 392.725343 250.587632 398.583785 
C 264.731163 404.442228 279.891152 407.457737 295.2 407.457737 
C 310.508848 407.457737 325.668837 404.442228 339.812368 398.583785 
C 353.9559 392.725343 366.807918 384.137899 377.632908 373.312908 
C 388.457899 362.487918 397.045343 349.6359 402.903785 335.492368 
C 408.762228 321.348837 411.777737 306.188848 411.777737 290.88 
" clip-path="url(#p65aba41183)" style="fill: none; stroke: #b0b0b0; stroke-width: 0.8; stroke-linecap: square"/>
     </g>
     <g id="text_13">
      <!-- 600 -->
      <g transform="translate(402.903785 244.187944) scale(0.1 -0.1)">
       <defs>
        <path id="DejaVuSans-36" d="M 2113 2584 
Q 1688 2584 1439 2293 
Q 1191 2003 1191 1497 
Q 1191 994 1439 701 
Q 1688 409 2113 409 
Q 2538 409 2786 701 
Q 3034 994 3034 1497 
Q 3034 2003 2786 2293 
Q 2538 2584 2113 2584 
z
M 3366 4563 
L 3366 3988 
Q 3128 4100 2886 4159 
Q 2644 4219 2406 4219 
Q 1781 4219 1451 3797 
Q 1122 3375 1075 2522 
Q 1259 2794 1537 2939 
Q 1816 3084 2150 3084 
Q 2853 3084 3261 2657 
Q 3669 2231 3669 1497 
Q 3669 778 3244 343 
Q 2819 -91 2113 -91 
Q 1303 -91 875 529 
Q 447 1150 447 2328 
Q 447 3434 972 4092 
Q 1497 4750 2381 4750 
Q 2619 4750 2861 4703 
Q 3103 4656 3366 4563 
z
" transform="scale(0.015625)"/>
       </defs>
       <use xlink:href="#DejaVuSans-36"/>
       <use xlink:href="#DejaVuSans-30" transform="translate(63.623047 0)"/>
       <use xlink:href="#DejaVuSans-30" transform="translate(127.246094 0)"/>
      </g>
     </g>
    </g>
    <g id="ytick_4">
     <g id="line2d_14">
      <path d="M 450.636983 290.88 
C 450.636983 270.468202 446.616303 250.254884 438.805047 231.396842 
C 430.99379 212.5388 419.543865 195.402776 405.110544 180.969456 
C 390.677224 166.536135 373.5412 155.08621 354.683158 147.274953 
C 335.825116 139.463697 315.611798 135.443017 295.2 135.443017 
C 274.788202 135.443017 254.574884 139.463697 235.716842 147.274953 
C 216.8588 155.08621 199.722776 166.536135 185.289456 180.969456 
C 170.856135 195.402776 159.40621 212.5388 151.594953 231.396842 
C 143.783697 250.254884 139.763017 270.468202 139.763017 290.88 
C 139.763017 311.291798 143.783697 331.505116 151.594953 350.363158 
C 159.40621 369.2212 170.856135 386.357224 185.289456 400.790544 
C 199.722776 415.223865 216.8588 426.67379 235.716842 434.485047 
C 254.574884 442.296303 274.788202 446.316983 295.2 446.316983 
C 315.611798 446.316983 335.825116 442.296303 354.683158 434.485047 
C 373.5412 426.67379 390.677224 415.223865 405.110544 400.790544 
C 419.543865 386.357224 430.99379 369.2212 438.805047 350.363158 
C 446.616303 331.505116 450.636983 311.291798 450.636983 290.88 
" clip-path="url(#p65aba41183)" style="fill: none; stroke: #b0b0b0; stroke-width: 0.8; stroke-linecap: square"/>
     </g>
     <g id="text_14">
      <!-- 800 -->
      <g transform="translate(438.805047 229.317155) scale(0.1 -0.1)">
       <defs>
        <path id="DejaVuSans-38" d="M 2034 2216 
Q 1584 2216 1326 1975 
Q 1069 1734 1069 1313 
Q 1069 891 1326 650 
Q 1584 409 2034 409 
Q 2484 409 2743 651 
Q 3003 894 3003 1313 
Q 3003 1734 2745 1975 
Q 2488 2216 2034 2216 
z
M 1403 2484 
Q 997 2584 770 2862 
Q 544 3141 544 3541 
Q 544 4100 942 4425 
Q 1341 4750 2034 4750 
Q 2731 4750 3128 4425 
Q 3525 4100 3525 3541 
Q 3525 3141 3298 2862 
Q 3072 2584 2669 2484 
Q 3125 2378 3379 2068 
Q 3634 1759 3634 1313 
Q 3634 634 3220 271 
Q 2806 -91 2034 -91 
Q 1263 -91 848 271 
Q 434 634 434 1313 
Q 434 1759 690 2068 
Q 947 2378 1403 2484 
z
M 1172 3481 
Q 1172 3119 1398 2916 
Q 1625 2713 2034 2713 
Q 2441 2713 2670 2916 
Q 2900 3119 2900 3481 
Q 2900 3844 2670 4047 
Q 2441 4250 2034 4250 
Q 1625 4250 1398 4047 
Q 1172 3844 1172 3481 
z
" transform="scale(0.015625)"/>
       </defs>
       <use xlink:href="#DejaVuSans-38"/>
       <use xlink:href="#DejaVuSans-30" transform="translate(63.623047 0)"/>
       <use xlink:href="#DejaVuSans-30" transform="translate(127.246094 0)"/>
      </g>
     </g>
    </g>
    <g id="ytick_5">
     <g id="line2d_15">
      <path d="M 489.496228 290.88 
C 489.496228 265.365253 484.470379 240.098605 474.706308 216.526053 
C 464.942238 192.9535 450.629831 171.53347 432.58818 153.49182 
C 414.54653 135.450169 393.1265 121.137762 369.553947 111.373692 
C 345.981395 101.609621 320.714747 96.583772 295.2 96.583772 
C 269.685253 96.583772 244.418605 101.609621 220.846053 111.373692 
C 197.2735 121.137762 175.85347 135.450169 157.81182 153.49182 
C 139.770169 171.53347 125.457762 192.9535 115.693692 216.526053 
C 105.929621 240.098605 100.903772 265.365253 100.903772 290.88 
C 100.903772 316.394747 105.929621 341.661395 115.693692 365.233947 
C 125.457762 388.8065 139.770169 410.22653 157.81182 428.26818 
C 175.85347 446.309831 197.2735 460.622238 220.846053 470.386308 
C 244.418605 480.150379 269.685253 485.176228 295.2 485.176228 
C 320.714747 485.176228 345.981395 480.150379 369.553947 470.386308 
C 393.1265 460.622238 414.54653 446.309831 432.58818 428.26818 
C 450.629831 410.22653 464.942238 388.8065 474.706308 365.233947 
C 484.470379 341.661395 489.496228 316.394747 489.496228 290.88 
" clip-path="url(#p65aba41183)" style="fill: none; stroke: #b0b0b0; stroke-width: 0.8; stroke-linecap: square"/>
     </g>
     <g id="text_15">
      <!-- 1000 -->
      <g transform="translate(474.706308 214.446365) scale(0.1 -0.1)">
       <defs>
        <path id="DejaVuSans-31" d="M 794 531 
L 1825 531 
L 1825 4091 
L 703 3866 
L 703 4441 
L 1819 4666 
L 2450 4666 
L 2450 531 
L 3481 531 
L 3481 0 
L 794 0 
L 794 531 
z
" transform="scale(0.015625)"/>
       </defs>
       <use xlink:href="#DejaVuSans-31"/>
       <use xlink:href="#DejaVuSans-30" transform="translate(63.623047 0)"/>
       <use xlink:href="#DejaVuSans-30" transform="translate(127.246094 0)"/>
       <use xlink:href="#DejaVuSans-30" transform="translate(190.869141 0)"/>
      </g>
     </g>
    </g>
   </g>
   <g id="patch_13">
    <path d="M 516.96 290.88 
C 516.96 261.758744 511.223747 232.920655 500.079525 206.016122 
C 488.935303 179.111589 472.599838 154.663838 452.008 134.072 
C 431.416162 113.480162 406.968411 97.144697 380.063878 86.000475 
C 353.159345 74.856253 324.321256 69.12 295.2 69.12 
C 266.078744 69.12 237.240655 74.856253 210.336122 86.000475 
C 183.431589 97.144697 158.983838 113.480162 138.392 134.072 
C 117.800162 154.663838 101.464697 179.111589 90.320475 206.016122 
C 79.176253 232.920655 73.44 261.758744 73.44 290.88 
C 73.44 320.001256 79.176253 348.839345 90.320475 375.743878 
C 101.464697 402.648411 117.800162 427.096162 138.392 447.688 
C 158.983838 468.279838 183.431589 484.615303 210.336122 495.759525 
C 237.240655 506.903747 266.078744 512.64 295.2 512.64 
C 324.321256 512.64 353.159345 506.903747 380.063878 495.759525 
C 406.968411 484.615303 431.416162 468.279838 452.008 447.688 
C 472.599838 427.096162 488.935303 402.648411 500.079525 375.743878 
C 511.223747 348.839345 516.96 320.001256 516.96 290.88 
" style="fill: none; stroke: #000000; stroke-width: 0.8; stroke-linejoin: miter; stroke-linecap: square"/>
   </g>
   <g id="text_16">
    <!-- Reasoning Tags Distribution -->
    <g transform="translate(211.951875 50.220947) scale(0.12 -0.12)">
     <defs>
      <path id="DejaVuSans-44" d="M 1259 4147 
L 1259 519 
L 2022 519 
Q 2988 519 3436 956 
Q 3884 1394 3884 2338 
Q 3884 3275 3436 3711 
Q 2988 4147 2022 4147 
L 1259 4147 
z
M 628 4666 
L 1925 4666 
Q 3281 4666 3915 4102 
Q 4550 3538 4550 2338 
Q 4550 1131 3912 565 
Q 3275 0 1925 0 
L 628 0 
L 628 4666 
z
" transform="scale(0.015625)"/>
     </defs>
     <use xlink:href="#DejaVuSans-52"/>
     <use xlink:href="#DejaVuSans-65" transform="translate(64.982422 0)"/>
     <use xlink:href="#DejaVuSans-61" transform="translate(126.505859 0)"/>
     <use xlink:href="#DejaVuSans-73" transform="translate(187.785156 0)"/>
     <use xlink:href="#DejaVuSans-6f" transform="translate(239.884766 0)"/>
     <use xlink:href="#DejaVuSans-6e" transform="translate(301.066406 0)"/>
     <use xlink:href="#DejaVuSans-69" transform="translate(364.445312 0)"/>
     <use xlink:href="#DejaVuSans-6e" transform="translate(392.228516 0)"/>
     <use xlink:href="#DejaVuSans-67" transform="translate(455.607422 0)"/>
     <use xlink:href="#DejaVuSans-20" transform="translate(519.083984 0)"/>
     <use xlink:href="#DejaVuSans-54" transform="translate(550.871094 0)"/>
     <use xlink:href="#DejaVuSans-61" transform="translate(595.455078 0)"/>
     <use xlink:href="#DejaVuSans-67" transform="translate(656.734375 0)"/>
     <use xlink:href="#DejaVuSans-73" transform="translate(720.210938 0)"/>
     <use xlink:href="#DejaVuSans-20" transform="translate(772.310547 0)"/>
     <use xlink:href="#DejaVuSans-44" transform="translate(804.097656 0)"/>
     <use xlink:href="#DejaVuSans-69" transform="translate(881.099609 0)"/>
     <use xlink:href="#DejaVuSans-73" transform="translate(908.882812 0)"/>
     <use xlink:href="#DejaVuSans-74" transform="translate(960.982422 0)"/>
     <use xlink:href="#DejaVuSans-72" transform="translate(1000.191406 0)"/>
     <use xlink:href="#DejaVuSans-69" transform="translate(1041.304688 0)"/>
     <use xlink:href="#DejaVuSans-62" transform="translate(1069.087891 0)"/>
     <use xlink:href="#DejaVuSans-75" transform="translate(1132.564453 0)"/>
     <use xlink:href="#DejaVuSans-74" transform="translate(1195.943359 0)"/>
     <use xlink:href="#DejaVuSans-69" transform="translate(1235.152344 0)"/>
     <use xlink:href="#DejaVuSans-6f" transform="translate(1262.935547 0)"/>
     <use xlink:href="#DejaVuSans-6e" transform="translate(1324.117188 0)"/>
    </g>
   </g>
  </g>
 </g>
 <defs>
  <clipPath id="p65aba41183">
   <path d="M 516.96 290.88 
C 516.96 261.758744 511.223747 232.920655 500.079525 206.016122 
C 488.935303 179.111589 472.599838 154.663838 452.008 134.072 
C 431.416162 113.480162 406.968411 97.144697 380.063878 86.000475 
C 353.159345 74.856253 324.321256 69.12 295.2 69.12 
C 266.078744 69.12 237.240655 74.856253 210.336122 86.000475 
C 183.431589 97.144697 158.983838 113.480162 138.392 134.072 
C 117.800162 154.663838 101.464697 179.111589 90.320475 206.016122 
C 79.176253 232.920655 73.44 261.758744 73.44 290.88 
C 73.44 320.001256 79.176253 348.839345 90.320475 375.743878 
C 101.464697 402.648411 117.800162 427.096162 138.392 447.688 
C 158.983838 468.279838 183.431589 484.615303 210.336122 495.759525 
C 237.240655 506.903747 266.078744 512.64 295.2 512.64 
C 324.321256 512.64 353.159345 506.903747 380.063878 495.759525 
C 406.968411 484.615303 431.416162 468.279838 452.008 447.688 
C 472.599838 427.096162 488.935303 402.648411 500.079525 375.743878 
C 511.223747 348.839345 516.96 320.001256 516.96 290.88 
M 295.2 290.88 
C 295.2 290.88 295.2 290.88 295.2 290.88 
C 295.2 290.88 295.2 290.88 295.2 290.88 
C 295.2 290.88 295.2 290.88 295.2 290.88 
C 295.2 290.88 295.2 290.88 295.2 290.88 
C 295.2 290.88 295.2 290.88 295.2 290.88 
C 295.2 290.88 295.2 290.88 295.2 290.88 
C 295.2 290.88 295.2 290.88 295.2 290.88 
C 295.2 290.88 295.2 290.88 295.2 290.88 
C 295.2 290.88 295.2 290.88 295.2 290.88 
C 295.2 290.88 295.2 290.88 295.2 290.88 
C 295.2 290.88 295.2 290.88 295.2 290.88 
C 295.2 290.88 295.2 290.88 295.2 290.88 
C 295.2 290.88 295.2 290.88 295.2 290.88 
C 295.2 290.88 295.2 290.88 295.2 290.88 
C 295.2 290.88 295.2 290.88 295.2 290.88 
C 295.2 290.88 295.2 290.88 295.2 290.88 
z
"/>
  </clipPath>
 </defs>
</svg>
